<?xml version="1.0" encoding="utf-8"?>
<!-- Generator: Adobe Illustrator 17.0.0, SVG Export Plug-In . SVG Version: 6.00 Build 0)  -->
<!DOCTYPE svg PUBLIC "-//W3C//DTD SVG 1.1//EN" "http://www.w3.org/Graphics/SVG/1.1/DTD/svg11.dtd">
<svg version="1.1" id="Warstwa_1" xmlns="http://www.w3.org/2000/svg" xmlns:xlink="http://www.w3.org/1999/xlink" x="0px" y="0px"
	 width="707.1px" height="200px" viewBox="0 0 707.1 200" style="enable-background:new 0 0 707.1 200;" xml:space="preserve">
<g transform="translate(0.000000,322.000000) scale(0.100000,-0.100000)"
fill="#000000" stroke="none">
	<path d="M1575 3130 c-11 -4 -22 -19 -25 -36 -4 -20 -12 -30 -30 -34 -40 -10
	-69 0 -72 24 -4 31 -50 32 -112 2 -32 -16 -70 -26 -97 -26 -65 0 -95 -19 -91
	-58 2 -26 -3 -34 -28 -47 -40 -21 -67 -19 -73 5 -8 30 -40 24 -89 -15 -24 -19
	-72 -49 -108 -66 -76 -35 -98 -60 -74 -83 19 -19 7 -45 -32 -70 -25 -17 -27
	-17 -47 2 -28 26 -46 17 -88 -46 -18 -26 -56 -69 -86 -95 -53 -49 -67 -82 -37
	-94 20 -7 11 -49 -18 -80 -19 -20 -22 -21 -43 -7 -20 13 -24 12 -39 -5 -10
	-11 -25 -43 -35 -73 -9 -29 -34 -79 -55 -110 -40 -60 -42 -86 -6 -95 24 -6 26
	-42 5 -84 -14 -25 -19 -28 -36 -18 -35 18 -49 -5 -49 -80 0 -42 -7 -85 -21
	-120 -27 -71 -23 -105 13 -109 20 -2 28 -10 33 -31 9 -41 -8 -76 -36 -76 -31
	0 -36 -30 -18 -105 7 -30 11 -80 10 -112 -3 -71 11 -102 45 -94 19 5 26 1 39
	-23 22 -44 19 -70 -10 -81 -34 -13 -32 -35 9 -102 18 -31 37 -73 41 -94 7 -41
	29 -89 45 -99 5 -3 18 0 29 7 17 10 23 9 40 -6 27 -25 36 -67 17 -78 -30 -17
	-18 -54 32 -100 26 -23 60 -64 75 -90 15 -26 37 -54 49 -62 20 -14 24 -14 39
	0 22 20 52 11 79 -23 19 -25 19 -27 3 -45 -24 -27 -9 -46 63 -83 32 -17 77
	-48 98 -68 52 -49 75 -55 97 -28 21 26 35 26 77 1 29 -18 31 -23 21 -41 -17
	-32 16 -60 77 -66 27 -2 77 -18 110 -35 70 -34 107 -34 112 0 3 18 10 22 37
	22 48 0 65 -9 65 -35 0 -39 22 -48 99 -40 42 4 91 2 125 -5 68 -14 101 -2 94
	35 -5 26 12 35 69 35 25 0 32 -5 35 -22 4 -33 49 -35 118 -4 32 14 76 26 98
	26 23 0 53 5 67 12 22 10 26 17 23 40 -5 33 15 55 59 64 25 5 31 2 36 -15 8
	-33 48 -26 97 16 23 21 70 49 103 63 70 29 88 50 69 80 -16 26 -2 54 37 74 25
	14 29 13 48 -5 19 -20 19 -20 46 1 15 12 38 40 52 64 13 23 45 56 69 73 53 37
	70 78 41 99 -15 12 -16 17 -5 43 19 46 36 57 66 40 24 -12 27 -11 44 11 10 14
	24 45 31 70 7 25 30 72 51 104 43 65 45 86 10 101 -20 8 -23 15 -18 43 7 45
	23 63 50 56 34 -8 48 18 51 98 1 41 10 90 19 112 10 21 16 52 14 70 -2 25 -8
	32 -30 34 -18 2 -28 11 -32 28 -11 41 3 72 32 76 24 3 27 8 30 45 2 22 -3 56
	-11 75 -9 21 -12 54 -10 88 3 30 0 68 -6 83 -10 25 -15 28 -40 22 -26 -5 -30
	-3 -40 26 -17 49 -14 66 14 73 16 4 25 13 25 27 0 22 -24 75 -46 100 -8 9 -21
	42 -30 75 -8 32 -22 69 -30 81 -12 20 -17 21 -40 11 -24 -11 -29 -9 -50 15
	-29 34 -30 58 -4 75 11 7 20 17 20 24 0 6 -25 36 -56 67 -30 31 -70 78 -87
	106 -35 55 -59 66 -87 40 -19 -17 -21 -16 -57 20 -33 33 -35 38 -20 46 39 23
	8 67 -69 98 -17 6 -52 32 -79 56 -61 57 -83 64 -106 36 -21 -26 -35 -26 -78 0
	-25 15 -31 23 -22 32 34 34 -4 66 -88 74 -31 3 -67 13 -81 23 -68 45 -126 49
	-132 7 -4 -27 -30 -33 -69 -17 -22 10 -29 19 -29 40 0 16 -7 30 -16 34 -20 8
	-82 6 -114 -3 -14 -4 -38 -4 -55 0 -59 14 -90 17 -110 9z m73 -18 c9 -6 -1
	-13 -29 -21 -42 -13 -68 -4 -55 18 8 13 65 14 84 3z m206 -10 c2 -4 1 -13 -3
	-20 -6 -9 -15 -10 -42 -1 -55 19 -57 29 -7 29 26 0 49 -4 52 -8z m-420 -10
	c12 -20 -13 -33 -55 -30 l-44 4 35 16 c39 19 56 22 64 10z m354 -19 c23 -9 42
	-19 42 -23 0 -24 -229 -18 -237 6 -5 14 94 43 127 38 14 -3 44 -12 68 -21z
	m272 -9 l25 -13 -27 -1 c-14 0 -32 -2 -40 -5 -20 -7 -42 11 -35 30 7 18 29 15
	77 -11z m-810 -18 c0 -2 -19 -16 -41 -31 -32 -21 -43 -24 -50 -14 -12 20 8 37
	49 42 20 2 38 4 40 5 1 1 2 0 2 -2z m167 -13 c3 -7 -27 -22 -77 -37 -79 -25
	-150 -34 -150 -18 0 4 24 22 53 40 46 29 59 32 111 30 35 -2 61 -8 63 -15z
	m153 -2 c26 -8 25 -8 -110 -27 l-35 -5 35 20 c36 21 67 24 110 12z m375 -17
	c20 -8 35 -17 32 -20 -2 -3 -38 1 -78 8 -58 9 -69 13 -49 19 40 11 55 10 95
	-7z m233 -21 c30 -20 49 -40 44 -45 -19 -19 -222 46 -222 71 0 7 25 11 62 11
	56 0 69 -4 116 -37z m63 17 c19 -11 26 -35 11 -44 -4 -2 -23 9 -42 25 -33 26
	-33 28 -12 29 13 0 32 -5 43 -10z m-591 -41 c41 -38 44 -42 27 -52 -11 -7 -44
	-31 -75 -54 -32 -23 -62 -43 -69 -43 -21 0 -173 63 -173 72 0 8 47 87 53 89 1
	0 45 6 97 13 52 8 95 14 95 15 1 0 21 -17 45 -40z m120 33 c0 -9 -36 -44 -56
	-55 -6 -3 -26 9 -44 28 l-34 35 67 0 c37 0 67 -4 67 -8z m173 -24 c52 -10 62
	-15 84 -49 14 -21 23 -45 20 -53 -3 -8 -44 -27 -91 -42 l-84 -28 -71 58 c-39
	31 -71 61 -71 65 0 5 17 23 38 40 40 33 42 34 175 9z m-583 -48 c-25 -35 -33
	-36 -79 -11 -34 18 -34 19 -12 30 29 16 105 29 109 19 2 -4 -6 -21 -18 -38z
	m-322 18 c2 -10 -7 -18 -25 -22 -15 -4 -36 -9 -45 -12 -28 -8 -21 9 15 34 35
	24 50 24 55 0z m1082 -9 l45 -21 -35 -18 c-49 -27 -57 -25 -80 20 l-20 40 22
	0 c13 0 43 -10 68 -21z m-989 -30 c-35 -16 -66 -27 -69 -24 -3 3 -3 6 -1 8 2
	2 17 13 33 25 18 14 42 22 65 21 35 0 35 -1 -28 -30z m1314 -9 l20 -22 -35 7
	c-43 9 -55 19 -46 40 7 19 30 9 61 -25z m-1172 9 c23 -12 44 -23 46 -25 2 -2
	-22 -38 -54 -80 l-57 -76 -92 7 c-50 3 -95 10 -100 15 -5 5 -1 29 11 57 18 46
	23 50 104 85 46 20 88 37 92 37 4 1 27 -9 50 -20z m502 -43 c37 -29 67 -57 67
	-62 0 -5 -31 -18 -69 -30 l-68 -21 -73 26 c-40 13 -71 28 -70 33 2 5 134 104
	144 108 1 0 32 -24 69 -54z m548 21 c24 -19 35 -37 22 -37 -10 0 -125 60 -125
	66 0 11 77 -10 103 -29z m-1318 -13 c-22 -20 -66 -49 -97 -65 -90 -46 -101
	-37 -40 32 39 43 89 66 147 68 l30 0 -40 -35z m1275 -9 c86 -43 89 -46 103
	-92 8 -27 11 -51 8 -54 -3 -4 -47 -10 -97 -14 l-92 -6 -56 77 c-31 42 -56 80
	-56 84 0 6 70 41 98 49 1 1 43 -19 92 -44z m173 -1 c32 -11 59 -30 87 -62 43
	-50 48 -62 27 -62 -37 0 -187 105 -187 130 0 14 19 13 73 -6z m-1023 -24 c41
	-17 76 -33 78 -35 2 -2 -24 -22 -57 -44 -57 -39 -64 -41 -134 -41 -40 0 -76 3
	-80 6 -7 8 94 144 108 144 5 0 44 -14 85 -30z m-595 -14 c-16 -21 -32 -33 -41
	-29 -23 8 -16 31 14 47 46 25 55 19 27 -18z m1284 -36 c28 -39 51 -75 51 -80
	0 -6 -33 -10 -75 -10 -72 0 -77 2 -135 43 -33 23 -60 45 -60 49 0 3 37 20 83
	37 45 16 83 30 83 30 1 1 25 -31 53 -69z m-1109 16 c-12 -53 -18 -59 -62 -53
	-52 7 -57 14 -28 35 28 20 82 51 91 52 4 0 3 -15 -1 -34z m1594 -7 c30 -23 33
	-37 11 -46 -15 -5 -33 10 -56 50 -14 24 11 23 45 -4z m-171 -10 c27 -14 67
	-50 67 -60 0 -11 -80 -16 -89 -4 -5 5 -11 25 -14 43 -7 35 1 39 36 21z m-830
	-15 c26 -9 49 -20 52 -24 14 -23 -207 -55 -229 -33 -8 8 93 72 115 73 8 0 36
	-7 62 -16z m311 -13 c23 -16 48 -36 55 -45 12 -14 7 -16 -50 -16 -53 0 -159
	27 -177 45 -3 3 106 41 126 44 2 1 22 -12 46 -28z m-1114 -52 c-25 -22 -53
	-45 -64 -50 -18 -11 -18 -10 0 21 20 34 68 70 94 70 9 -1 -4 -18 -30 -41z
	m173 21 c13 -12 -53 -179 -72 -184 -9 -3 -43 -10 -76 -16 -33 -6 -70 -13 -82
	-16 -22 -4 -23 -1 -23 54 l0 59 77 62 c76 61 78 63 123 56 25 -4 49 -10 53
	-15z m773 -7 l39 -18 -69 -3 c-78 -3 -108 11 -55 26 46 14 42 14 85 -5z
	m-1058 -14 c3 -14 -65 -55 -75 -46 -2 3 8 19 23 36 27 32 47 36 52 10z m415
	12 c38 -5 71 -12 74 -15 3 -3 -14 -30 -38 -60 -42 -52 -48 -56 -117 -72 -40
	-9 -76 -14 -79 -11 -3 4 9 42 27 87 22 55 37 80 49 80 9 -1 47 -5 84 -9z m222
	-20 c18 -7 14 -12 -30 -40 -46 -29 -69 -38 -150 -57 l-30 -7 20 24 c66 81 77
	89 124 88 26 0 55 -4 66 -8z m1281 -57 l74 -66 0 -54 c0 -61 -1 -61 -80 -43
	-125 28 -115 21 -149 115 -17 47 -31 89 -31 94 0 9 31 16 84 19 22 1 45 -13
	102 -65z m4 50 c26 -16 67 -71 58 -79 -2 -2 -28 18 -58 45 -54 48 -54 65 0 34z
	m-1145 -3 c-10 -8 -122 -41 -140 -41 -5 0 6 11 25 25 24 18 47 25 79 25 26 0
	41 -4 36 -9z m967 -80 c15 -47 26 -86 24 -88 -2 -2 -34 5 -72 15 -64 17 -73
	23 -116 77 -27 33 -48 62 -48 67 0 6 118 16 169 14 9 -1 25 -34 43 -85z m-437
	30 c138 -44 160 -55 276 -132 115 -77 134 -95 232 -212 59 -71 107 -133 107
	-138 0 -5 24 -64 54 -132 51 -116 54 -129 71 -276 17 -152 17 -154 -5 -295
	-21 -131 -27 -151 -89 -285 -64 -139 -70 -148 -177 -265 -102 -111 -122 -127
	-240 -198 -114 -68 -145 -81 -264 -114 -134 -37 -137 -38 -300 -35 l-165 2
	-145 46 c-136 43 -153 52 -276 135 -72 49 -141 102 -153 118 -12 17 -55 70
	-95 118 -63 75 -80 106 -133 232 -41 97 -63 165 -67 205 -4 33 -11 101 -17
	150 -10 81 -8 106 15 240 24 144 28 156 95 290 63 127 79 151 173 253 86 93
	119 121 196 167 51 30 106 64 123 75 16 12 94 39 172 60 135 36 150 38 302 39
	l160 1 150 -49z m55 19 l35 -29 -55 15 c-84 23 -90 26 -90 35 0 5 17 9 38 9
	26 0 47 -9 72 -30z m180 -21 c60 -77 57 -80 -51 -39 -49 18 -119 66 -119 81 0
	5 29 9 65 9 l65 0 40 -51z m-1530 30 c0 -30 -132 -179 -160 -179 -14 0 -13 6
	15 69 21 46 35 62 78 88 57 35 67 39 67 22z m2068 -27 c30 -39 11 -43 -32 -9
	-18 15 -26 28 -22 36 11 17 26 10 54 -27z m-1 -47 c42 -28 55 -44 72 -90 24
	-64 24 -65 11 -65 -26 0 -150 147 -150 177 0 20 11 16 67 -22z m-2063 -34 c-3
	-53 -10 -61 -54 -61 -22 0 -40 4 -40 8 0 16 72 93 84 89 6 -2 10 -18 10 -36z
	m446 9 c-14 -10 -43 -29 -64 -41 l-39 -22 19 31 c18 31 51 50 89 51 18 1 18
	-1 -5 -19z m-615 -27 c-19 -46 -21 -47 -40 -40 -21 9 -19 24 10 52 36 37 48
	31 30 -12z m525 21 c0 -3 -18 -27 -40 -53 -38 -45 -135 -110 -146 -98 -3 3 7
	32 23 64 27 56 30 58 88 75 70 19 75 20 75 12z m1258 -39 c24 -28 30 -51 10
	-39 -24 15 -108 76 -108 79 0 2 17 -1 38 -6 20 -4 47 -20 60 -34z m426 -15
	c42 -46 45 -60 14 -60 -57 0 -68 10 -68 56 0 24 4 44 9 44 5 0 25 -18 45 -40z
	m-1850 -2 c-4 -13 -19 -47 -33 -77 -22 -46 -35 -58 -89 -88 -35 -19 -66 -32
	-68 -30 -3 3 -1 44 3 93 l8 89 80 16 c108 23 108 23 99 -3z m1552 -3 c24 -10
	35 -25 52 -70 12 -32 20 -60 18 -62 -10 -11 -99 52 -136 97 -22 26 -40 51 -40
	55 0 9 66 -3 106 -20z m461 -49 c-10 -26 -26 -18 -42 20 -23 55 -18 62 16 27
	20 -20 30 -37 26 -47z m-2211 -52 c-4 -47 -10 -92 -13 -100 -5 -14 -152 -94
	-172 -94 -5 0 -15 24 -22 54 l-12 53 52 76 c59 88 70 96 130 97 l44 0 -7 -86z
	m1893 66 c40 -10 78 -23 83 -28 5 -5 8 -47 6 -95 l-3 -85 -66 40 c-63 40 -66
	44 -92 115 -17 49 -22 73 -14 73 7 0 45 -9 86 -20z m-2035 -12 c-25 -43 -77
	-118 -80 -115 -9 9 18 74 43 99 27 29 50 38 37 16z m2246 -33 c19 -12 100
	-157 99 -178 -1 -38 -26 -92 -40 -89 -8 2 -46 22 -85 45 -69 40 -72 43 -78 86
	-3 24 -6 69 -6 99 l0 55 50 -6 c28 -3 55 -9 60 -12z m105 -97 c4 -16 5 -32 2
	-34 -5 -6 -77 108 -77 122 0 19 70 -62 75 -88z m-2021 28 c-53 -60 -68 -66
	-49 -19 9 20 17 38 18 39 12 9 63 31 66 28 2 -2 -14 -23 -35 -48z m-458 33 c3
	-6 -6 -24 -22 -40 -29 -30 -46 -38 -39 -16 20 56 26 67 39 67 8 0 18 -5 22
	-11z m2119 -79 c28 -53 15 -56 -30 -5 -25 27 -45 53 -45 57 0 18 61 -24 75
	-52z m-2115 -21 c-24 -66 -75 -149 -91 -149 -13 0 -3 92 13 125 17 34 82 95
	90 87 5 -5 0 -33 -12 -63z m390 57 c0 -36 -108 -196 -132 -196 -12 0 1 121 15
	138 17 22 117 71 117 58z m2186 -41 c20 -48 18 -62 -7 -39 -27 24 -42 52 -34
	64 12 19 26 10 41 -25z m-376 -30 l57 -35 6 -67 c3 -38 3 -70 0 -73 -9 -10
	-75 77 -104 137 -41 89 -42 88 41 38z m355 -12 c45 -56 54 -74 56 -118 1 -37
	2 -38 8 -10 l6 30 23 -32 c28 -39 28 -63 2 -63 -12 0 -20 7 -20 17 0 15 -2 15
	-14 -2 -13 -17 -15 -16 -39 21 -42 63 -82 194 -59 194 4 0 21 -17 37 -37z
	m-2495 -50 c0 -16 -10 -25 -46 -37 -45 -15 -45 -15 -38 7 8 28 33 78 48 96 8
	11 13 8 23 -15 7 -16 12 -39 13 -51z m190 45 c0 -7 -5 -42 -10 -77 -8 -59 -13
	-69 -62 -118 -29 -29 -55 -53 -59 -53 -6 0 -33 136 -34 168 0 13 129 90 153
	91 6 1 12 -5 12 -11z m2271 -79 c11 -22 19 -49 17 -59 -3 -17 -5 -17 -40 -2
	-41 18 -45 30 -27 80 13 38 22 34 50 -19z m-2640 -42 c-10 -10 -41 -3 -41 10
	0 4 10 24 23 43 l22 35 3 -39 c2 -21 -1 -43 -7 -49z m2471 47 c93 -54 88 -45
	66 -132 -10 -42 -21 -82 -23 -89 -2 -7 -28 12 -58 45 -54 57 -54 57 -60 135
	-3 42 -2 77 3 77 5 0 37 -16 72 -36z m-2272 -61 c7 -32 15 -74 20 -95 7 -35 5
	-38 -59 -102 -37 -36 -71 -66 -76 -66 -6 0 -23 21 -38 46 l-28 46 31 94 c30
	90 33 95 73 113 23 11 47 20 54 20 6 1 17 -24 23 -56z m207 0 c-42 -89 -46
	-94 -47 -46 0 35 5 45 33 67 17 14 33 26 34 26 1 0 -8 -21 -20 -47z m-367 -67
	c-26 -79 -46 -98 -38 -38 6 40 45 118 55 108 3 -3 -5 -34 -17 -70z m2360 -41
	c0 -19 -2 -35 -5 -35 -7 0 -35 57 -51 104 l-14 41 35 -37 c26 -28 35 -46 35
	-73z m235 82 c38 -21 41 -27 63 -111 26 -98 24 -117 -12 -161 l-25 -30 -70 71
	-70 70 20 80 c26 103 26 104 41 104 7 0 31 -11 53 -23z m-2299 -73 c-7 -59
	-39 -146 -61 -164 -14 -11 -15 -8 -30 84 -6 36 -3 42 41 87 27 27 50 49 53 49
	2 0 1 -25 -3 -56z m2387 7 c15 -26 26 -133 11 -119 -9 10 -42 148 -35 148 4 0
	14 -13 24 -29z m-228 -160 c-7 -34 -15 -65 -18 -68 -14 -13 -58 102 -63 165
	l-6 67 50 -51 50 -51 -13 -62z m-2542 133 c3 -4 -4 -25 -16 -48 l-22 -41 -3
	33 c-2 19 -1 40 2 48 6 14 28 19 39 8z m32 -34 c3 -5 1 -43 -4 -82 -23 -156
	-49 -191 -64 -82 -7 53 -5 65 20 117 26 57 36 66 48 47z m248 -32 c3 -13 8
	-48 11 -78 6 -49 3 -61 -26 -114 -18 -33 -37 -59 -43 -59 -5 0 -28 35 -49 76
	l-39 77 64 59 c35 33 67 60 70 61 4 0 9 -10 12 -22z m2607 -50 c0 -39 -17 -35
	-37 8 -15 31 -15 36 -3 44 20 13 40 -14 40 -52z m-2792 -7 l22 -39 -37 -33
	-38 -33 -3 31 c-4 36 15 113 27 113 4 0 17 -18 29 -39z m2777 -121 c-10 -70
	-17 -91 -28 -87 -25 8 -51 220 -30 241 5 4 21 -19 36 -51 23 -47 27 -66 22
	-103z m-175 19 c0 -11 -81 -148 -91 -154 -4 -3 -22 25 -39 62 -33 71 -34 93
	-9 187 l11 39 64 -64 c35 -35 64 -67 64 -70z m-2350 15 c-13 -70 -18 -73 -30
	-22 -5 25 -2 43 14 71 26 49 31 33 16 -49z m2444 19 c8 -51 8 -93 -1 -93 -4 0
	-22 14 -39 31 l-33 32 22 33 c29 44 43 43 51 -3z m-279 -92 c-9 -58 -20 -39
	-30 49 l-6 65 21 -34 c18 -28 21 -43 15 -80z m-2555 50 c6 -31 4 -41 -8 -46
	-27 -10 -36 11 -23 56 14 47 21 45 31 -10z m218 -38 l43 -81 -52 -87 -51 -87
	-43 42 -43 42 5 97 c5 96 5 96 41 128 21 18 41 31 47 30 5 -2 29 -40 53 -84z
	m137 -14 c8 -59 -2 -176 -16 -185 -5 -3 -22 23 -38 57 l-28 63 31 58 c17 32
	34 58 38 58 3 0 9 -23 13 -51z m2450 2 l38 -40 -6 -96 c-6 -92 -8 -97 -38
	-123 -57 -49 -55 -50 -103 46 l-45 89 36 59 c53 90 63 104 71 104 4 0 25 -18
	47 -39z m143 -41 c-5 -41 -34 -32 -30 10 1 19 5 42 8 50 8 21 26 -26 22 -60z
	m-2888 -27 c-1 -86 -10 -96 -24 -26 -7 28 8 113 19 113 3 0 5 -39 5 -87z
	m2550 5 l28 -63 -29 -57 c-16 -32 -33 -58 -38 -58 -13 0 -24 112 -16 162 8 53
	15 78 21 78 3 0 18 -28 34 -62z m265 -41 c5 -29 2 -54 -8 -78 -15 -34 -15 -34
	-16 49 -1 88 13 104 24 29z m-2549 -110 c6 -30 -13 -154 -25 -162 -4 -2 -36
	25 -71 60 l-63 63 48 82 48 82 28 -49 c16 -26 31 -61 35 -76z m-331 44 c-9
	-46 -15 -56 -26 -40 -10 16 -12 73 -3 82 3 3 13 3 21 0 11 -4 13 -15 8 -42z
	m54 -38 c13 -67 15 -170 2 -177 -5 -3 -21 21 -35 54 -25 55 -26 64 -17 117 6
	31 11 58 11 60 0 2 6 3 14 3 8 0 17 -21 25 -57z m2646 -31 l38 -73 -54 -55
	c-85 -86 -85 -86 -99 5 l-12 79 37 67 c21 36 41 63 45 58 4 -4 24 -41 45 -81z
	m-2310 12 c4 -36 5 -67 2 -70 -2 -2 -12 11 -22 29 -13 25 -16 44 -11 70 10 56
	23 44 31 -29z m-267 3 l32 -33 -26 -38 c-21 -31 -28 -36 -35 -24 -13 24 -23
	128 -12 128 5 0 23 -15 41 -33z m2825 -13 c-4 -53 -20 -65 -28 -20 -8 42 0 70
	18 63 7 -2 11 -19 10 -43z m-393 -24 c0 -19 -9 -48 -21 -65 l-21 -30 5 35 c18
	115 19 122 28 109 5 -8 9 -30 9 -49z m354 -19 c6 -50 3 -67 -18 -115 -26 -58
	-56 -76 -56 -33 1 40 28 174 39 196 18 32 28 18 35 -48z m-74 -15 c0 -37 -18
	-96 -29 -96 -4 0 -17 17 -29 39 l-22 39 33 25 c42 34 47 33 47 -7z m-2597 -44
	l67 -67 -22 -93 c-25 -103 -28 -106 -93 -69 -38 21 -41 26 -64 117 l-24 95 29
	42 c16 23 31 42 34 43 3 0 36 -30 73 -68z m142 17 c18 -34 28 -75 32 -121 l6
	-70 -48 51 c-48 51 -48 51 -41 105 6 53 14 86 22 86 2 0 15 -23 29 -51z m-349
	-86 c-15 -39 -50 24 -39 68 6 20 8 18 25 -15 11 -21 17 -45 14 -53z m2548 10
	l7 -62 -42 -46 c-23 -25 -46 -45 -51 -45 -7 0 -8 21 -3 57 8 62 61 181 75 167
	4 -5 11 -37 14 -71z m200 21 l29 -47 -31 -96 -32 -97 -50 -18 c-28 -10 -53
	-16 -56 -14 -2 3 -12 47 -21 98 l-17 94 69 63 c38 35 72 63 75 63 3 0 18 -21
	34 -46z m-2664 -83 c10 -39 15 -71 11 -71 -17 0 -41 62 -41 106 0 61 7 53 30
	-35z m2789 -17 c-9 -11 -15 -11 -25 -3 -11 9 -9 18 9 52 l22 42 3 -38 c2 -21
	-2 -45 -9 -53z m-2478 -101 c4 -26 8 -65 8 -86 l1 -38 -67 37 c-103 56 -100
	50 -79 141 10 43 21 82 24 87 2 4 27 -14 55 -42 41 -41 51 -59 58 -99z m2396
	87 c-5 -43 -42 -118 -53 -108 -3 3 24 99 41 146 11 29 17 8 12 -38z m-2342
	-61 c8 -21 12 -39 10 -39 -2 0 -16 12 -30 27 -18 21 -25 38 -25 68 l1 40 15
	-28 c9 -16 22 -46 29 -68z m2130 -20 c9 -49 15 -92 14 -93 -2 -2 -42 -22 -87
	-45 l-84 -42 6 40 c3 23 9 60 12 83 5 32 18 54 57 95 27 29 53 53 57 53 4 0
	15 -41 25 -91z m-140 24 c-6 -34 -52 -99 -63 -89 -7 7 50 126 60 126 6 0 7
	-15 3 -37z m-2391 -24 c8 -43 8 -59 -3 -59 -13 0 -43 68 -36 80 12 20 33 9 39
	-21z m73 -50 c33 -64 53 -149 36 -149 -5 0 -26 21 -47 46 -34 40 -39 54 -44
	111 -6 84 10 82 55 -8z m93 -9 c0 -32 -19 -72 -31 -64 -14 8 -48 84 -49 107 0
	16 3 16 40 -3 26 -13 40 -27 40 -40z m248 8 c40 -52 89 -158 74 -158 -12 0
	-106 61 -114 74 -8 11 -11 136 -4 136 2 0 22 -24 44 -52z m2360 13 c11 -7 9
	-17 -9 -52 -23 -44 -24 -44 -27 -15 -4 33 5 76 16 76 4 0 13 -4 20 -9z m-48
	-28 c-1 -55 -19 -104 -55 -148 -67 -82 -83 -50 -30 60 54 111 85 143 85 88z
	m-355 -57 l-7 -65 -62 -35 c-33 -19 -62 -31 -64 -27 -6 18 44 109 86 153 25
	27 47 46 49 44 3 -2 2 -34 -2 -70z m-2090 22 c83 -48 85 -52 85 -175 0 -66 -2
	-74 -17 -69 -10 2 -36 7 -58 11 -37 6 -43 11 -88 88 -50 84 -52 96 -28 160 6
	15 15 27 21 27 6 0 44 -19 85 -42z m2370 10 c-10 -33 -47 -98 -56 -98 -11 0
	-15 10 -23 53 -7 35 -5 38 26 52 48 21 61 19 53 -7z m-86 -62 c16 -66 16 -67
	-44 -154 l-55 -80 -51 -4 c-28 -1 -53 0 -55 4 -6 9 7 174 15 186 6 9 159 90
	172 92 4 0 12 -20 18 -44z m-2485 -37 c27 -31 27 -49 0 -49 -12 0 -44 54 -44
	75 0 14 21 2 44 -26z m478 -31 c17 -21 28 -41 25 -44 -11 -11 -66 30 -71 52
	-3 12 -9 30 -13 41 -6 16 -5 16 11 4 9 -8 31 -32 48 -53z m-105 13 c47 -30 64
	-48 78 -82 27 -68 35 -99 24 -99 -24 0 -155 33 -166 42 -15 12 -19 178 -5 178
	5 0 36 -17 69 -39z m-262 -42 c40 -65 40 -92 -1 -44 -27 32 -44 68 -44 91 0
	24 7 16 45 -47z m2030 2 c-14 -28 -71 -68 -81 -58 -3 2 17 28 43 57 49 54 66
	55 38 1z m129 -56 c-6 -75 -10 -88 -28 -94 -26 -10 -157 -33 -161 -29 -2 2 10
	35 26 73 28 68 32 72 96 107 37 20 69 35 71 33 2 -1 0 -42 -4 -90z m341 63
	c-12 -41 -34 -68 -50 -62 -22 9 -19 24 12 56 32 34 47 36 38 6z m-112 -42 c-6
	-28 -70 -102 -80 -92 -6 5 34 71 66 109 18 22 21 19 14 -17z m-1977 -20 c50
	-34 114 -103 114 -124 0 -13 -110 15 -126 31 -16 16 -56 127 -46 127 4 0 30
	-15 58 -34z m1584 -15 c0 -5 -11 -34 -25 -64 l-26 -56 -67 -15 c-36 -8 -68
	-14 -69 -12 -9 9 76 95 121 123 54 34 66 39 66 24z m-1994 -56 c7 -19 14 -39
	14 -45 0 -18 -34 6 -50 35 -12 23 -12 28 0 35 21 13 19 14 36 -25z m78 -20
	c56 -61 100 -131 88 -139 -5 -3 -32 11 -61 30 -41 28 -58 48 -77 90 -41 94
	-24 100 50 19z m94 31 c2 -2 2 -25 0 -52 l-3 -48 -26 25 c-29 28 -59 69 -59
	83 0 8 79 0 88 -8z m136 -29 l79 -22 30 -88 c16 -49 26 -91 23 -94 -4 -4 -28
	-9 -55 -13 l-49 -6 -76 69 c-74 67 -76 70 -76 116 0 71 1 71 124 38z m284 -33
	c30 -20 51 -38 49 -41 -11 -10 -79 17 -97 39 -41 49 -22 50 48 2z m1662 15 c0
	-5 -20 -31 -45 -57 l-45 -47 0 52 c0 49 2 52 28 56 51 8 62 7 62 -4z m80 6 c0
	-2 -12 -29 -26 -60 -20 -42 -37 -61 -75 -85 -78 -48 -91 -36 -38 34 54 70 139
	139 139 111z m47 -11 c6 -17 -42 -73 -53 -61 -10 9 22 77 36 77 6 0 13 -7 17
	-16z m-577 -24 c-26 -36 -27 -37 -80 -49 -36 -8 -41 -7 -29 4 12 12 118 74
	127 75 2 0 -6 -13 -18 -30z m-1305 -6 c36 -9 59 -24 84 -51 40 -46 65 -82 60
	-87 -2 -3 -44 -6 -93 -8 l-89 -3 -22 67 c-41 119 -40 111 -13 102 12 -4 46
	-13 73 -20z m1645 -29 l0 -55 -72 -60 -73 -61 -55 7 c-30 3 -57 8 -59 10 -6 6
	61 174 72 181 15 9 118 30 155 32 l32 1 0 -55z m-230 -35 c-11 -27 -26 -66
	-35 -86 l-15 -37 -62 7 c-33 3 -74 6 -89 6 -16 0 -29 4 -29 9 0 5 20 34 45 64
	40 48 53 57 103 70 31 8 67 15 79 16 l23 1 -20 -50z m-1247 15 c50 -15 137
	-69 137 -85 0 -6 -30 -10 -67 -10 l-68 0 -30 42 c-56 78 -56 79 28 53z m1071
	-17 c-4 -7 -24 -32 -43 -55 l-35 -43 -74 0 c-66 0 -73 2 -62 16 22 26 92 62
	150 78 69 19 73 19 64 4z m-1581 -54 c-8 -22 -39 -16 -57 11 -26 40 -19 48 23
	24 24 -13 37 -27 34 -35z m102 1 c64 -58 64 -69 2 -32 -36 20 -89 87 -70 87 4
	0 35 -25 68 -55z m607 9 c61 -17 68 -34 15 -34 -19 0 -44 10 -62 25 -36 29
	-30 30 47 9z m653 -19 c-22 -18 -42 -25 -74 -25 -27 0 -41 4 -35 9 7 7 113 38
	134 40 3 0 -8 -11 -25 -24z m605 -15 c-20 -29 -97 -77 -106 -67 -3 2 23 27 58
	55 35 28 65 49 67 47 2 -2 -7 -18 -19 -35z m111 -2 c-22 -36 -61 -50 -61 -24
	0 15 54 56 73 56 5 0 0 -15 -12 -32z m-1520 -80 c28 -39 52 -78 53 -86 1 -9
	-19 -23 -46 -35 l-48 -19 -88 42 -89 42 -15 54 c-18 63 -20 61 87 67 33 2 68
	4 77 5 10 1 36 -25 69 -70z m191 26 c33 -26 56 -50 51 -54 -4 -4 -35 -16 -68
	-28 -33 -11 -67 -23 -76 -26 -12 -5 -30 12 -67 64 -29 39 -52 75 -52 80 0 6
	33 10 76 10 75 0 76 -1 136 -46z m156 25 c34 -11 60 -24 57 -28 -2 -4 -31 -16
	-64 -26 -56 -17 -62 -17 -83 -1 -13 9 -38 26 -55 39 -18 12 -33 25 -33 30 0
	15 118 6 178 -14z m142 13 l45 -7 -43 -13 c-33 -10 -51 -11 -78 -2 -72 24 -27
	37 76 22z m209 -8 l31 -7 -32 -24 c-71 -53 -80 -55 -147 -31 -34 12 -61 25
	-61 29 0 9 106 37 146 38 17 1 46 -2 63 -5z m-948 -44 c7 -22 9 -43 6 -47 -4
	-3 -32 11 -63 32 -60 42 -58 55 8 55 35 0 38 -3 49 -40z m1165 27 c3 -3 -19
	-37 -51 -76 l-56 -69 -69 28 c-114 47 -112 42 -39 89 63 41 66 42 137 38 40
	-2 75 -7 78 -10z m173 -7 c48 0 54 -11 38 -66 l-14 -49 -89 -38 c-83 -36 -91
	-38 -127 -26 -77 25 -77 28 -11 114 l59 77 59 -6 c32 -3 71 -6 85 -6z m-1440
	-31 c67 -36 135 -94 127 -107 -4 -6 -26 -4 -58 5 -42 11 -63 25 -100 66 -72
	76 -63 87 31 36z m-82 4 c7 -10 18 -26 24 -35 14 -26 -11 -24 -45 3 -21 17
	-24 24 -15 35 15 18 19 18 36 -3z m1669 7 c27 0 13 -21 -33 -50 -64 -41 -74
	-40 -61 8 14 52 17 55 50 48 17 -3 37 -6 44 -6z m-720 -20 c32 -11 62 -24 67
	-29 6 -6 -123 -111 -138 -111 -9 0 -145 113 -141 117 6 7 119 41 137 42 9 1
	42 -8 75 -19z m814 -8 c0 -4 -22 -29 -48 -55 -37 -36 -62 -52 -103 -62 -30 -8
	-55 -15 -56 -15 -2 0 -3 7 -3 14 0 18 48 55 121 96 53 29 89 38 89 22z m31
	-46 c-7 -8 -26 -19 -42 -25 -32 -11 -32 -9 5 42 18 24 22 26 35 13 11 -12 12
	-18 2 -30z m-1011 -31 c38 -30 71 -58 74 -63 2 -4 -14 -22 -36 -41 -37 -32
	-43 -33 -94 -27 -29 3 -76 11 -103 17 -44 9 -51 15 -75 58 l-26 49 82 30 c46
	16 89 30 96 31 7 0 44 -24 82 -54z m365 10 c44 -18 79 -39 77 -45 -1 -6 -14
	-28 -27 -49 l-25 -37 -102 -12 -102 -12 -38 37 c-20 20 -35 40 -32 45 9 14
	146 108 158 108 6 -1 47 -16 91 -35z m-830 -33 c43 -23 47 -27 27 -30 -32 -5
	-75 14 -104 45 l-23 25 25 -7 c14 -4 48 -19 75 -33z m-144 -4 c39 -11 51 -34
	24 -44 -15 -6 -75 31 -75 47 0 12 5 11 51 -3z m358 -24 c12 -19 21 -38 21 -41
	0 -8 -75 5 -105 19 -34 15 -32 23 13 41 50 21 47 21 71 -19z m971 6 c-19 -16
	-44 -30 -55 -30 -11 0 -31 -2 -45 -5 -14 -3 7 10 45 30 86 42 101 44 55 5z
	m-210 -6 c22 -9 40 -20 40 -25 0 -4 -23 -15 -52 -24 -55 -16 -78 -19 -78 -9 0
	9 40 74 46 74 2 0 22 -7 44 -16z m315 -30 c-32 -26 -60 -28 -60 -4 0 14 74 43
	85 33 3 -3 -8 -16 -25 -29z m-1120 -26 c112 -37 135 -69 47 -67 -63 1 -82 8
	-137 47 -79 56 -43 64 90 20z m439 -41 c-18 -10 -100 -4 -112 8 -4 4 9 20 28
	36 l34 29 33 -32 c29 -28 31 -33 17 -41z m-544 13 l35 -29 -35 6 c-50 8 -70
	21 -64 38 9 22 26 18 64 -15z m1020 25 c0 -2 -24 -20 -52 -40 -47 -31 -60 -35
	-120 -35 -40 0 -68 4 -68 10 0 13 81 49 135 60 46 9 105 12 105 5z m-724 -26
	c77 -14 93 -29 31 -29 -42 0 -107 22 -107 35 0 7 9 6 76 -6z m751 -5 c8 -21
	-5 -30 -52 -38 l-40 -6 35 30 c39 34 48 36 57 14z m-282 -3 c-10 -18 -76 -33
	-112 -26 -47 9 -38 14 38 24 35 5 68 9 72 10 5 0 6 -3 2 -8z m-160 -43 c13
	-12 -8 -24 -68 -39 -40 -9 -57 -8 -107 7 -33 10 -59 23 -57 28 7 22 210 25
	232 4z m-387 -15 c-5 -22 -54 -21 -77 2 -14 13 -10 15 33 15 40 0 47 -3 44
	-17z m621 0 l23 -6 -23 -13 c-29 -16 -65 -18 -74 -4 -16 26 21 37 74 23z
	m-438 -19 c45 -19 38 -34 -18 -34 -31 0 -44 14 -35 38 5 15 3 15 53 -4z m237
	-17 c3 -14 -4 -17 -47 -17 -28 0 -51 2 -51 5 0 9 64 35 80 32 8 -1 16 -10 18
	-20z"/>
	<path d="M1730 1565 c0 -429 3 -645 10 -645 7 0 10 216 10 645 0 411 -4 645
	-10 645 -6 0 -10 -234 -10 -645z"/>
	<path d="M812 2038 c-42 -86 -62 -248 -31 -248 5 0 9 -81 9 -180 0 -113 -4
	-180 -10 -180 -5 0 -10 -9 -10 -20 0 -16 -7 -20 -30 -20 -27 0 -30 -3 -30 -30
	l0 -30 415 0 415 0 0 30 c0 30 -1 30 -55 30 -53 0 -55 1 -63 33 -8 30 -12 32
	-54 35 -45 3 -46 2 -58 -32 -11 -35 -13 -36 -61 -36 -36 0 -49 4 -49 15 0 16
	-44 211 -66 290 -25 91 -6 -17 27 -154 16 -68 28 -130 25 -138 -4 -8 -23 -13
	-56 -13 l-50 0 0 35 c0 35 7 42 26 28 5 -5 1 0 -9 9 -18 17 -18 25 -7 158 8
	85 17 137 22 133 7 -3 8 10 3 36 -4 22 -5 41 -3 41 6 0 170 -59 193 -70 11 -5
	30 -12 43 -15 12 -4 27 -15 32 -26 13 -23 33 -25 50 -4 18 21 -4 46 -39 43
	-14 -1 -53 8 -86 19 -89 31 -419 154 -427 159 -4 2 5 30 18 61 33 73 27 103
	-20 103 -31 0 -35 -4 -64 -62z m95 37 c3 -9 -7 -44 -22 -78 -94 -213 -105
	-228 -105 -147 0 55 17 139 31 155 5 5 9 15 9 22 0 8 7 25 16 38 18 28 61 34
	71 10z m73 -195 c52 -18 98 -36 102 -39 4 -3 1 -38 -7 -76 -18 -83 -18 -88 -5
	-80 6 4 10 -17 10 -56 0 -45 -5 -68 -17 -82 -10 -11 -13 -17 -6 -14 8 5 11
	-14 12 -68 l1 -75 -34 0 -34 0 13 58 c6 33 15 64 19 70 4 7 3 12 -2 12 -6 0
	-15 -24 -22 -52 -6 -29 -14 -61 -17 -70 -4 -15 -17 -18 -84 -18 -64 0 -79 3
	-79 15 0 9 -7 18 -15 21 -13 5 -15 36 -15 190 0 101 3 184 8 184 4 0 18 27 31
	60 14 34 29 59 35 57 6 -2 54 -19 106 -37z m440 -145 c0 -8 -4 -15 -9 -15 -13
	0 -22 16 -14 24 11 11 23 6 23 -9z m-10 -321 c0 -22 -4 -24 -45 -24 -44 0 -54
	10 -37 36 8 13 50 22 70 16 6 -2 12 -15 12 -28z m-592 -11 c2 -8 -5 -13 -17
	-13 -12 0 -21 6 -21 16 0 18 31 15 38 -3z m702 -48 c0 -13 -51 -15 -395 -15
	-344 0 -395 2 -395 15 0 13 51 15 395 15 344 0 395 -2 395 -15z"/>
	<path d="M1042 1615 c-7 -32 -10 -60 -8 -62 6 -6 28 95 24 109 -3 7 -10 -14
	-16 -47z"/>
	<path d="M2288 1854 c22 -15 22 -18 22 -252 0 -130 -4 -242 -8 -248 -4 -6 -20
	-14 -37 -19 -49 -12 -16 -15 70 -6 44 4 70 9 58 10 -12 0 -27 10 -33 20 -6 12
	-10 109 -10 245 0 213 1 227 20 246 l20 20 -62 0 c-59 0 -61 -1 -40 -16z"/>
	<path d="M2525 1827 c43 -43 56 -89 43 -154 -10 -49 -47 -103 -70 -103 -6 0
	-9 -3 -6 -6 4 -3 19 1 35 9 103 54 123 205 34 264 -19 13 -42 23 -51 23 -14 0
	-11 -7 15 -33z"/>
	<path d="M1384 1636 c-3 -8 -4 -31 -2 -52 3 -36 4 -35 8 14 5 53 4 63 -6 38z"/>
	<path d="M4175 1840 c0 -73 3 -100 13 -100 9 0 12 27 12 100 0 73 -3 100 -12
	100 -10 0 -13 -27 -13 -100z"/>
	<path d="M4338 1840 c2 -55 8 -100 13 -100 5 0 9 45 9 100 0 73 -3 100 -12
	100 -10 0 -12 -25 -10 -100z"/>
	<path d="M4418 1924 c24 -17 29 -43 10 -62 -7 -7 -8 -12 -2 -12 17 0 34 23 34
	45 0 14 -10 26 -25 33 -36 17 -44 15 -17 -4z"/>
	<path d="M4620 1927 c47 -23 75 -111 50 -158 -6 -10 -8 -19 -6 -19 11 0 36 60
	36 85 0 38 -24 79 -55 93 -35 16 -57 15 -25 -1z"/>
	<path d="M4740 1840 c0 -82 3 -100 15 -100 12 0 15 18 15 100 0 82 -3 100 -15
	100 -12 0 -15 -18 -15 -100z"/>
	<path d="M4840 1936 c0 -2 7 -6 15 -10 8 -3 15 -1 15 4 0 6 -7 10 -15 10 -8 0
	-15 -2 -15 -4z"/>
	<path d="M4908 1840 c2 -55 7 -100 12 -100 5 0 10 45 12 100 2 84 1 100 -12
	100 -13 0 -14 -16 -12 -100z"/>
	<path d="M5162 1925 c37 -20 66 -97 51 -136 -16 -42 -5 -36 13 7 9 21 13 48 9
	65 -7 32 -57 79 -83 79 -12 -1 -8 -5 10 -15z"/>
	<path d="M5247 1928 c6 -7 25 -53 43 -101 18 -49 37 -84 42 -79 4 4 -7 47 -26
	95 -18 47 -31 88 -28 91 3 4 -5 6 -18 6 -16 0 -20 -3 -13 -12z"/>
	<path d="M5332 1923 c9 -10 19 -28 23 -41 16 -52 63 -144 68 -135 6 10 -6 45
	-49 140 -8 17 -14 36 -14 42 0 6 -10 11 -22 11 -19 0 -20 -1 -6 -17z"/>
	<path d="M5400 1929 c0 -5 5 -7 10 -4 6 3 10 8 10 11 0 2 -4 4 -10 4 -5 0 -10
	-5 -10 -11z"/>
	<path d="M5480 1929 c0 -5 5 -7 10 -4 6 3 10 8 10 11 0 2 -4 4 -10 4 -5 0 -10
	-5 -10 -11z"/>
	<path d="M5595 1840 c0 -73 3 -100 13 -100 9 0 12 27 12 100 0 73 -3 100 -12
	100 -10 0 -13 -27 -13 -100z"/>
	<path d="M5796 1889 c27 -41 34 -61 34 -100 0 -34 4 -49 13 -49 10 0 12 13 7
	53 -8 65 -48 147 -71 147 -15 0 -11 -9 17 -51z"/>
	<path d="M5900 1929 c0 -5 5 -7 10 -4 6 3 10 8 10 11 0 2 -4 4 -10 4 -5 0 -10
	-5 -10 -11z"/>
	<path d="M5946 1928 c28 -46 149 -189 152 -180 5 15 -129 191 -146 192 -8 0
	-10 -5 -6 -12z"/>
	<path d="M6085 1930 c4 -6 11 -8 16 -5 14 9 11 15 -7 15 -8 0 -12 -5 -9 -10z"/>
	<path d="M6206 1932 c-5 -9 59 -169 75 -186 23 -25 15 9 -21 94 -44 102 -45
	105 -54 92z"/>
	<path d="M6332 1933 c16 -36 93 -143 96 -135 5 16 -71 142 -86 142 -8 0 -12
	-3 -10 -7z"/>
	<path d="M6507 1933 c-11 -11 -8 -193 3 -193 6 0 10 36 10 88 0 55 4 92 12
	100 9 9 9 12 -3 12 -9 0 -19 -3 -22 -7z"/>
	<path d="M6580 1840 c0 -73 3 -100 13 -100 9 0 12 27 12 100 0 73 -3 100 -12
	100 -10 0 -13 -27 -13 -100z"/>
	<path d="M6800 1925 c14 -7 27 -11 30 -9 6 7 -22 24 -40 23 -9 0 -5 -6 10 -14z"/>
	<path d="M6965 1928 c11 -6 23 -16 27 -22 5 -7 8 -5 8 5 0 16 -20 29 -43 29
	-7 0 -3 -6 8 -12z"/>
	<path d="M4270 1911 c14 -28 12 -57 -6 -75 -8 -9 -11 -16 -6 -16 32 0 55 73
	30 98 -19 19 -30 14 -18 -7z"/>
	<path d="M5696 1922 c42 -29 57 -109 28 -150 -20 -28 -11 -28 16 0 30 32 28
	101 -5 133 -13 14 -30 25 -37 25 -9 0 -9 -3 -2 -8z"/>
	<path d="M5044 1883 c-28 -67 3 -133 71 -148 30 -7 30 -6 5 7 -55 30 -85 111
	-60 159 6 10 8 19 5 19 -3 0 -13 -16 -21 -37z"/>
	<path d="M6671 1894 c-25 -32 -27 -74 -6 -114 9 -17 17 -30 19 -30 3 0 12 -3
	22 -7 16 -6 15 -3 -3 21 -31 39 -39 88 -20 125 19 38 15 39 -12 5z"/>
	<path d="M6876 1908 c-14 -30 -2 -53 40 -73 57 -28 76 -46 71 -67 -3 -10 -1
	-16 4 -12 5 3 9 18 9 34 0 25 -7 32 -54 54 -44 21 -55 31 -58 53 -3 23 -6 25
	-12 11z"/>
	<path d="M4510 1891 c-19 -37 -12 -100 15 -126 36 -37 50 -30 20 10 -23 29
	-26 43 -23 85 1 27 2 50 1 50 -1 0 -7 -9 -13 -19z"/>
	<path d="M4835 1851 c-3 -5 -1 -12 5 -16 5 -3 10 1 10 9 0 18 -6 21 -15 7z"/>
	<path d="M4432 1793 c12 -29 28 -55 35 -57 18 -7 -11 62 -38 89 -18 19 -18 17
	3 -32z"/>
	<path d="M6822 1760 c-7 -11 -8 -20 -3 -20 9 0 24 30 18 36 -1 2 -8 -6 -15
	-16z"/>
	<path d="M6870 1762 c0 -12 19 -26 26 -19 2 2 -2 10 -11 17 -9 8 -15 8 -15 2z"/>
	<path d="M3975 1590 c-269 -3 451 -5 1600 -6 1150 0 2041 2 1980 3 -220 6
	-3103 8 -3580 3z"/>
	<path d="M3826 1399 c30 -15 54 -62 54 -104 0 -21 4 -34 10 -30 6 3 10 24 10
	45 0 44 -30 85 -70 94 -23 6 -23 5 -4 -5z"/>
	<path d="M3940 1315 c0 -69 3 -95 13 -95 9 0 11 24 9 95 -2 52 -8 95 -13 95
	-5 0 -9 -43 -9 -95z"/>
	<path d="M4075 1400 c-3 -6 1 -7 9 -4 18 7 21 14 7 14 -6 0 -13 -4 -16 -10z"/>
	<path d="M4130 1315 c0 -69 3 -95 13 -95 9 0 11 24 9 95 -2 52 -8 95 -13 95
	-5 0 -9 -43 -9 -95z"/>
	<path d="M4195 1400 c3 -5 8 -10 11 -10 2 0 4 5 4 10 0 6 -5 10 -11 10 -5 0
	-7 -4 -4 -10z"/>
	<path d="M4240 1315 c0 -69 3 -95 13 -95 9 0 12 26 12 95 0 69 -3 95 -12 95
	-10 0 -13 -26 -13 -95z"/>
	<path d="M4310 1395 c0 -8 3 -15 8 -15 4 0 20 -23 35 -50 16 -28 32 -50 38
	-50 13 0 12 3 -27 69 -36 60 -54 76 -54 46z"/>
	<path d="M4467 1403 c-4 -3 -7 -46 -7 -95 0 -64 3 -88 13 -88 9 0 12 26 12 95
	0 90 -3 104 -18 88z"/>
	<path d="M4540 1315 c0 -57 4 -95 10 -95 6 0 10 38 10 95 0 57 -4 95 -10 95
	-6 0 -10 -38 -10 -95z"/>
	<path d="M4600 1400 c0 -5 7 -7 15 -4 8 4 15 8 15 10 0 2 -7 4 -15 4 -8 0 -15
	-4 -15 -10z"/>
	<path d="M4650 1319 c-29 -49 -49 -93 -46 -96 8 -8 6 -10 53 72 59 103 65 115
	54 115 -5 0 -33 -41 -61 -91z"/>
	<path d="M4755 1315 c0 -57 4 -95 10 -95 6 0 9 23 8 53 0 28 -2 71 -2 95 -1
	23 -4 42 -8 42 -5 0 -8 -43 -8 -95z"/>
	<path d="M4846 1403 c5 -5 12 -12 16 -18 4 -6 8 -2 8 8 0 9 -7 17 -17 17 -9 0
	-12 -3 -7 -7z"/>
	<path d="M4981 1358 c19 -35 29 -68 29 -95 0 -24 5 -43 10 -43 6 0 10 19 10
	42 0 46 -46 148 -67 148 -6 0 1 -23 18 -52z"/>
	<path d="M5320 1346 c0 -71 11 -110 33 -119 13 -5 13 -2 0 24 -10 20 -14 51
	-11 94 2 47 0 65 -9 65 -9 0 -13 -20 -13 -64z"/>
	<path d="M5455 1400 c3 -5 8 -10 11 -10 2 0 4 5 4 10 0 6 -5 10 -11 10 -5 0
	-7 -4 -4 -10z"/>
	<path d="M5510 1315 c0 -57 4 -95 10 -95 6 0 10 38 10 95 0 57 -4 95 -10 95
	-6 0 -10 -38 -10 -95z"/>
	<path d="M5735 1315 c0 -61 4 -95 11 -95 6 0 9 17 8 43 -2 23 -3 66 -3 95 -1
	28 -4 52 -8 52 -5 0 -8 -43 -8 -95z"/>
	<path d="M5885 1315 c0 -58 4 -95 10 -95 6 0 9 22 8 53 -1 28 -2 71 -3 95 0
	23 -3 42 -7 42 -5 0 -8 -43 -8 -95z"/>
	<path d="M6258 1315 c-2 -71 0 -95 10 -95 9 0 12 26 12 95 0 52 -4 95 -9 95
	-5 0 -11 -43 -13 -95z"/>
	<path d="M6450 1346 c0 -73 11 -110 35 -120 15 -5 15 -4 0 16 -10 15 -15 46
	-15 95 0 42 -4 73 -10 73 -6 0 -10 -28 -10 -64z"/>
	<path d="M6880 1315 c0 -57 4 -95 10 -95 6 0 10 38 10 95 0 57 -4 95 -10 95
	-6 0 -10 -38 -10 -95z"/>
	<path d="M6945 1400 c3 -5 8 -10 11 -10 2 0 4 5 4 10 0 6 -5 10 -11 10 -5 0
	-7 -4 -4 -10z"/>
	<path d="M6990 1315 c0 -69 3 -95 13 -95 9 0 12 26 12 95 0 69 -3 95 -12 95
	-10 0 -13 -26 -13 -95z"/>
	<path d="M7270 1407 c0 -2 32 -46 70 -97 39 -51 70 -86 70 -76 0 19 -117 176
	-131 176 -5 0 -9 -1 -9 -3z"/>
	<path d="M4016 1392 c19 -12 26 -50 14 -74 l-11 -23 20 24 c12 13 21 29 21 36
	0 17 -27 45 -43 45 -9 0 -9 -2 -1 -8z"/>
	<path d="M5239 1373 c12 -14 24 -44 28 -66 5 -33 8 -37 14 -21 10 28 0 69 -22
	93 -29 30 -44 26 -20 -6z"/>
	<path d="M5589 1386 c8 -10 11 -26 6 -43 -6 -24 -4 -25 10 -13 22 18 16 64
	-10 69 -17 3 -18 1 -6 -13z"/>
	<path d="M5823 1370 c9 -23 9 -35 -1 -50 -10 -16 -9 -18 3 -14 32 13 30 81 -3
	92 -8 2 -7 -5 1 -28z"/>
	<path d="M5970 1380 c8 -14 8 -26 0 -42 -11 -23 -11 -23 9 0 16 19 18 28 11
	43 -6 10 -15 19 -21 19 -6 0 -6 -7 1 -20z"/>
	<path d="M6176 1363 c19 -28 25 -48 22 -75 -4 -44 9 -40 17 6 9 48 -24 106
	-61 106 -2 0 8 -17 22 -37z"/>
	<path d="M6367 1374 c22 -22 25 -32 21 -79 -4 -46 -3 -52 8 -37 31 40 1 142
	-41 142 -9 0 -5 -10 12 -26z"/>
	<path d="M6780 1385 c7 -9 15 -13 17 -11 7 7 -7 26 -19 26 -6 0 -6 -6 2 -15z"/>
	<path d="M7201 1365 c15 -25 20 -48 17 -80 -3 -39 -1 -43 9 -28 20 26 16 87
	-8 117 -30 38 -42 32 -18 -9z"/>
	<path d="M3724 1359 c-21 -41 -11 -92 23 -119 36 -28 47 -25 18 6 -30 32 -42
	87 -26 120 16 35 4 29 -15 -7z"/>
	<path d="M5112 1368 c-7 -7 -12 -32 -12 -55 0 -47 33 -93 66 -93 13 0 10 5 -9
	21 -33 25 -53 90 -37 119 12 23 9 25 -8 8z"/>
	<path d="M6040 1361 c-19 -36 -12 -86 16 -115 15 -14 34 -26 43 -26 12 0 11 3
	-5 15 -29 20 -47 67 -42 110 5 40 3 43 -12 16z"/>
	<path d="M6640 1350 c-16 -39 -5 -95 23 -115 35 -25 41 -17 12 17 -24 28 -27
	38 -22 80 4 26 5 48 3 48 -2 0 -9 -13 -16 -30z"/>
	<path d="M7059 1344 c-12 -34 4 -88 34 -109 36 -25 43 -17 12 15 -22 23 -28
	39 -29 75 -1 25 -2 45 -4 45 -1 0 -7 -12 -13 -26z"/>
	<path d="M5567 1313 c7 -2 22 -24 32 -49 24 -53 47 -60 24 -7 -15 37 -39 63
	-58 62 -5 0 -4 -3 2 -6z"/>
	<path d="M5951 1303 c9 -10 21 -33 29 -50 10 -28 30 -45 30 -28 0 18 -42 84
	-57 89 -15 6 -15 5 -2 -11z"/>
	<path d="M6780 1235 c-11 -13 -10 -14 4 -9 9 3 16 10 16 15 0 13 -6 11 -20 -6z"/>
	<path d="M4310 1230 c0 -5 5 -10 11 -10 5 0 7 5 4 10 -3 6 -8 10 -11 10 -2 0
	-4 -4 -4 -10z"/>
	<path d="M4705 1230 c-3 -5 -1 -10 4 -10 6 0 11 5 11 10 0 6 -2 10 -4 10 -3 0
	-8 -4 -11 -10z"/>
	<path d="M4860 1230 c-13 -8 -12 -10 3 -10 9 0 17 5 17 10 0 12 -1 12 -20 0z"/>
</g>
</svg>
