<?xml version="1.0" encoding="utf-8"?>
<!-- Generator: Adobe Illustrator 17.0.0, SVG Export Plug-In . SVG Version: 6.00 Build 0)  -->
<!DOCTYPE svg PUBLIC "-//W3C//DTD SVG 1.1//EN" "http://www.w3.org/Graphics/SVG/1.1/DTD/svg11.dtd">
<svg version="1.1" id="Warstwa_1" xmlns="http://www.w3.org/2000/svg" xmlns:xlink="http://www.w3.org/1999/xlink" x="0px" y="0px"
	 width="1565.000000pt" height="427.000000pt" viewBox="0 0 1565.000000 427.000000" style="enable-background:new 0 0 707.1 200;" xml:space="preserve">
<g transform="translate(0.000000,427.000000) scale(0.100000,-0.100000)"
fill="#000000" stroke="none">
<path d="M4165 3311 c-112 -29 -190 -93 -242 -198 -36 -72 -38 -81 -37 -172 0
-75 5 -108 23 -153 29 -76 99 -151 175 -191 58 -30 66 -32 176 -32 105 0 120
3 172 28 151 74 228 233 199 410 -31 186 -168 307 -356 313 -44 2 -93 0 -110
-5z m160 -41 c165 -73 272 -343 210 -530 -32 -95 -126 -160 -231 -160 -98 0
-223 90 -278 198 -92 181 -68 401 51 479 66 43 168 49 248 13z"/>
<path d="M6089 3307 c-151 -43 -252 -171 -266 -338 -14 -161 64 -303 207 -376
51 -26 64 -28 170 -28 107 0 119 2 173 29 64 33 134 102 166 163 48 96 47 263
-4 364 -59 116 -177 189 -318 195 -49 2 -100 -1 -128 -9z m178 -37 c87 -38
177 -158 207 -276 21 -80 20 -197 0 -259 -24 -68 -79 -120 -150 -141 -213 -62
-415 146 -414 426 1 85 15 134 54 185 68 89 188 114 303 65z"/>
<path d="M10079 3303 c-35 -13 -37 -16 -32 -51 4 -30 -13 -81 -92 -277 -131
-322 -147 -358 -181 -383 l-29 -21 64 -1 c61 0 63 1 48 18 -24 26 -22 41 24
158 l41 105 150 -3 150 -3 50 -120 c39 -95 47 -124 39 -137 -10 -17 -5 -18 71
-18 l82 0 -26 28 c-35 36 -37 42 -183 392 -70 168 -130 310 -133 316 -5 9 -17
8 -43 -3z m64 -265 c37 -90 67 -166 67 -170 0 -5 -60 -8 -134 -8 -74 0 -137 3
-139 8 -6 9 123 332 132 332 4 0 37 -73 74 -162z"/>
<path d="M11995 3311 c-207 -45 -342 -226 -321 -430 17 -162 118 -276 277
-311 112 -25 344 1 385 43 7 7 14 41 18 77 5 54 4 62 -7 46 -76 -117 -139
-156 -251 -156 -215 0 -366 211 -327 458 20 133 90 216 206 247 136 37 272
-12 347 -125 17 -25 17 -24 17 36 1 38 -4 65 -11 72 -45 36 -244 62 -333 43z"/>
<path d="M12655 3313 c-83 -18 -142 -58 -172 -116 -23 -45 -20 -129 7 -172 25
-41 71 -70 201 -126 154 -66 204 -117 196 -197 -9 -88 -102 -142 -209 -122
-83 16 -152 72 -201 164 l-22 41 -3 -60 c-5 -90 0 -99 70 -130 117 -53 286
-44 359 18 54 46 74 87 74 153 0 103 -43 140 -276 242 -96 42 -140 85 -146
144 -17 151 218 204 334 74 21 -23 43 -51 49 -62 17 -28 20 -16 16 49 -3 50
-7 59 -30 71 -56 29 -183 44 -247 29z"/>
<path d="M2709 3285 c20 -27 21 -36 21 -348 0 -316 0 -321 -22 -344 l-21 -23
88 0 88 0 -19 21 c-16 18 -20 40 -22 145 l-4 124 54 0 c180 0 291 67 319 191
22 98 -24 189 -118 232 -42 19 -69 22 -217 25 l-169 4 22 -27z m271 -12 c47
-19 79 -50 101 -98 21 -45 25 -138 8 -182 -27 -72 -100 -112 -201 -113 l-68 0
0 204 c0 154 3 206 13 210 19 8 108 -4 147 -21z"/>
<path d="M3298 3287 c23 -25 25 -61 22 -614 0 -51 -4 -66 -22 -83 l-22 -20 89
0 88 0 -19 21 c-17 19 -19 41 -22 190 l-4 169 57 0 c69 0 113 -19 141 -63 12
-17 42 -84 68 -148 63 -154 77 -171 148 -177 35 -3 58 0 62 7 4 7 -1 11 -13
11 -29 0 -63 51 -110 165 -57 137 -80 169 -136 190 l-45 18 50 17 c96 32 147
107 137 198 -4 37 -12 53 -40 79 -55 50 -117 63 -296 63 l-154 0 21 -23z m288
-17 c57 -24 87 -70 92 -139 3 -46 0 -62 -20 -91 -35 -52 -79 -70 -170 -70
l-78 0 0 159 c0 143 2 160 18 164 29 9 115 -4 158 -23z"/>
<path d="M4750 3304 c0 -4 8 -13 18 -20 16 -11 17 -40 17 -342 0 -310 -1 -331
-19 -351 l-19 -21 88 0 89 0 -22 20 c-21 20 -22 28 -22 200 l0 180 73 -1 c123
-1 167 -12 199 -50 l28 -33 0 83 0 84 -24 -26 c-32 -34 -83 -47 -188 -47 l-88
0 0 160 0 160 125 -5 c139 -5 178 -17 218 -65 15 -18 30 -31 32 -28 3 2 2 28
-2 56 l-6 52 -248 0 c-137 0 -249 -3 -249 -6z"/>
<path d="M5350 3300 c0 -5 4 -10 10 -10 24 0 31 -90 28 -374 -3 -259 -5 -295
-21 -319 l-17 -27 243 0 244 0 7 46 c10 77 8 79 -36 31 -52 -54 -91 -67 -209
-67 -134 0 -124 -29 -124 353 l0 325 24 26 24 26 -86 0 c-51 0 -87 -4 -87 -10z"/>
<path d="M6570 3302 c0 -4 8 -12 18 -19 11 -6 28 -31 39 -55 16 -32 222 -570
248 -645 2 -7 12 -13 22 -13 14 0 33 37 82 160 74 184 78 190 89 172 5 -7 37
-84 73 -172 46 -116 69 -160 80 -160 9 0 20 8 24 18 4 9 56 153 115 319 122
338 128 353 167 382 l28 20 -69 1 -70 0 23 -21 c33 -31 40 -8 -151 -529 l-31
-84 -20 44 c-52 123 -120 295 -120 304 0 6 17 58 38 115 27 73 48 113 72 137
l34 34 -62 0 c-60 0 -61 -1 -46 -18 10 -10 17 -28 17 -39 0 -35 -62 -195 -72
-185 -19 19 -87 207 -77 217 20 20 6 25 -72 25 l-81 0 34 -39 c21 -24 56 -94
91 -180 l57 -141 -52 -128 c-28 -70 -54 -131 -58 -135 -4 -4 -24 36 -45 90
-173 451 -186 488 -176 505 6 10 11 20 11 23 0 3 -36 5 -80 5 -44 0 -80 -3
-80 -8z"/>
<path d="M7820 3304 c0 -4 8 -13 18 -20 16 -11 17 -40 17 -342 0 -314 -1 -331
-20 -352 l-20 -22 200 4 c191 3 203 4 255 29 247 116 285 485 66 636 -85 58
-155 73 -347 73 -93 0 -169 -3 -169 -6z m315 -25 c107 -28 191 -114 226 -230
29 -94 24 -239 -10 -317 -44 -99 -117 -141 -258 -149 -75 -5 -97 -3 -118 11
l-25 16 0 347 0 346 73 -7 c39 -4 90 -11 112 -17z"/>
<path d="M8460 3307 c0 -2 19 -23 41 -48 23 -24 79 -113 125 -198 l84 -154 0
-148 c0 -140 -1 -149 -22 -169 l-22 -20 89 0 88 0 -19 21 c-16 18 -19 40 -22
163 l-4 142 89 159 c56 101 105 177 135 207 l47 48 -67 0 c-58 -1 -65 -2 -49
-14 9 -7 17 -23 17 -36 0 -23 -159 -320 -172 -320 -4 0 -40 60 -81 133 -110
196 -111 198 -98 219 10 17 6 18 -74 18 -47 0 -85 -1 -85 -3z"/>
<path d="M9124 3279 l27 -31 -3 -318 c-3 -296 -4 -319 -22 -339 l-19 -21 68 0
67 0 -30 28 c-17 16 -33 43 -37 63 -3 19 -5 148 -3 287 l3 253 245 -320 c135
-176 248 -320 253 -321 4 0 7 145 7 323 0 333 5 389 37 412 16 13 9 14 -57 15
l-74 0 32 -27 c28 -24 34 -38 42 -93 12 -84 13 -473 1 -468 -5 2 -78 93 -163
203 -84 110 -185 241 -224 290 l-70 90 -53 3 -54 3 27 -32z"/>
<path d="M10503 3287 c39 -32 47 -92 47 -371 0 -251 -7 -312 -36 -333 -15 -11
-7 -13 55 -13 l73 0 -31 26 c-17 14 -33 39 -36 57 -3 18 -5 149 -3 291 l3 260
130 -217 c72 -119 136 -216 142 -217 7 0 72 100 145 223 l133 222 3 -85 c2
-47 2 -182 0 -301 -3 -197 -5 -219 -22 -238 l-19 -21 89 0 c82 1 87 2 69 16
-19 14 -20 27 -20 339 l0 324 29 30 30 31 -62 0 -62 0 -132 -225 c-73 -123
-135 -225 -138 -225 -5 0 -208 329 -254 412 l-21 38 -70 0 -70 0 28 -23z"/>
<path d="M11406 3289 c18 -20 19 -41 19 -349 0 -308 -1 -329 -19 -349 l-19
-21 87 0 87 0 -20 26 c-20 26 -21 38 -21 344 0 306 1 318 21 344 l20 26 -87 0
-87 0 19 -21z"/>
<path d="M243 2054 c-3 -8 -1 -20 4 -25 5 -5 2888 -8 7544 -7 7526 3 7534 3
7534 23 0 20 -8 20 -7538 23 -6837 2 -7538 1 -7544 -14z"/>
<path d="M1314 1386 c-178 -43 -284 -211 -254 -401 6 -37 21 -88 34 -114 70
-135 239 -207 393 -168 157 41 248 149 260 311 14 188 -95 337 -275 375 -65
13 -92 13 -158 -3z m151 -40 c54 -25 124 -96 156 -158 27 -53 49 -152 49 -224
0 -152 -84 -243 -226 -244 -141 0 -257 113 -299 292 -36 155 5 281 109 333 66
33 142 34 211 1z"/>
<path d="M6331 1390 c-107 -23 -187 -83 -233 -178 -31 -63 -33 -73 -33 -172 0
-96 2 -110 30 -164 59 -116 167 -179 310 -179 143 0 255 65 312 181 25 51 28
67 28 162 0 92 -3 112 -26 161 -15 31 -43 73 -64 94 -76 76 -217 117 -324 95z
m138 -42 c95 -46 169 -156 197 -292 31 -145 -12 -266 -109 -312 -160 -74 -327
21 -397 227 -27 77 -31 205 -8 259 22 52 67 101 113 121 57 26 147 25 204 -3z"/>
<path d="M9685 1387 c-184 -48 -289 -217 -255 -408 16 -88 32 -121 85 -177 68
-74 147 -106 256 -107 79 0 91 3 161 38 83 41 124 82 159 162 43 98 32 253
-25 343 -75 119 -243 184 -381 149z m150 -41 c120 -55 205 -215 205 -385 0
-150 -85 -240 -226 -241 -147 0 -271 129 -305 320 -25 141 18 257 113 304 68
34 143 35 213 2z"/>
<path d="M11918 1389 c-125 -18 -228 -91 -280 -197 -31 -62 -33 -74 -33 -167
0 -85 4 -107 24 -149 48 -97 137 -157 267 -178 80 -14 211 1 278 30 42 19 43
21 50 77 3 32 4 60 2 62 -2 3 -12 -10 -21 -29 -43 -83 -108 -121 -210 -122
-120 -1 -220 61 -271 169 -71 151 -51 332 48 421 56 50 101 67 184 68 60 0 80
-4 130 -29 36 -19 71 -47 91 -73 l33 -44 0 60 0 60 -42 16 c-40 15 -160 37
-183 35 -5 -1 -36 -5 -67 -10z"/>
<path d="M13404 1390 c-103 -21 -194 -93 -242 -189 -24 -50 -27 -67 -27 -156
0 -82 4 -109 22 -148 38 -83 78 -123 161 -164 70 -35 83 -38 161 -38 73 0 95
5 146 28 73 34 128 85 163 152 34 65 43 203 18 287 -38 131 -153 219 -303 232
-32 3 -77 1 -99 -4z m143 -46 c93 -45 153 -133 189 -274 33 -130 0 -255 -83
-314 -59 -41 -157 -48 -231 -16 -132 57 -221 228 -210 405 7 107 55 180 138
214 50 20 142 13 197 -15z"/>
<path d="M1850 1381 c0 -6 4 -11 10 -11 22 0 30 -87 30 -325 0 -238 -8 -325
-30 -325 -6 0 -10 -4 -10 -10 0 -6 34 -10 81 -10 l80 0 -20 26 c-18 23 -21 41
-21 140 l0 114 88 0 c100 0 148 18 199 71 41 43 54 81 54 147 0 75 -34 125
-109 160 -52 24 -71 27 -204 30 -104 3 -148 1 -148 -7z m265 -30 c79 -35 123
-120 111 -210 -14 -99 -79 -150 -193 -151 l-63 0 0 190 0 190 53 0 c29 0 70
-9 92 -19z"/>
<path d="M2360 1335 l0 -54 39 41 c36 40 42 42 105 46 l66 4 0 -315 c0 -267
-2 -316 -15 -327 -28 -23 -15 -30 60 -30 75 0 88 7 60 30 -13 11 -15 60 -15
327 l0 315 67 -4 c64 -4 68 -6 105 -47 l38 -44 0 57 0 56 -255 0 -255 0 0 -55z"/>
<path d="M2940 1380 c0 -5 4 -10 10 -10 22 0 30 -87 30 -325 0 -238 -8 -325
-30 -325 -6 0 -10 -4 -10 -10 0 -6 34 -10 82 -10 l81 0 -21 23 c-22 23 -22 29
-22 322 0 293 0 299 22 322 l21 23 -81 0 c-48 0 -82 -4 -82 -10z"/>
<path d="M3186 1373 c42 -35 44 -51 44 -344 0 -276 0 -283 -22 -306 l-21 -23
66 0 c69 0 83 8 45 25 -42 18 -49 68 -46 328 l3 240 123 -202 c68 -111 129
-200 135 -198 7 2 62 89 124 193 62 104 117 196 122 204 7 10 10 -74 8 -268
-2 -257 -4 -285 -19 -296 -10 -7 -18 -16 -18 -20 0 -3 36 -6 80 -6 44 0 80 2
80 5 0 3 -9 14 -20 25 -20 20 -21 30 -18 311 l3 291 28 23 c15 13 27 27 27 30
0 3 -25 5 -55 5 l-54 0 -117 -197 c-64 -109 -122 -204 -128 -210 -9 -10 -41
36 -137 195 l-125 207 -64 3 c-63 2 -64 2 -44 -15z"/>
<path d="M4010 1384 c0 -4 8 -13 18 -20 16 -11 17 -39 17 -319 0 -280 -1 -308
-17 -319 -10 -7 -18 -16 -18 -20 0 -3 36 -6 80 -6 44 0 80 2 80 5 0 3 -9 14
-20 25 -19 19 -20 33 -20 314 0 282 1 294 21 320 l20 26 -80 0 c-45 0 -81 -3
-81 -6z"/>
<path d="M4266 1353 c-3 -21 -6 -54 -6 -73 l0 -35 23 39 c41 72 62 81 203 84
117 3 136 -1 115 -23 -16 -18 -361 -624 -361 -635 0 -6 78 -10 229 -10 l228 0
7 53 c12 101 9 107 -24 50 -41 -72 -78 -85 -231 -81 l-117 3 72 125 c40 69
125 216 189 327 64 112 117 205 117 208 0 3 -98 5 -219 5 l-218 0 -7 -37z"/>
<path d="M4790 1383 c0 -3 8 -15 18 -26 15 -17 17 -47 17 -312 0 -265 -2 -295
-17 -312 -10 -11 -18 -23 -18 -26 0 -4 107 -7 239 -7 l238 0 6 62 c5 59 0 89
-11 60 -11 -32 -66 -83 -100 -92 -21 -6 -84 -10 -142 -8 l-105 3 -3 168 -2
167 102 0 c85 0 109 -4 136 -20 17 -11 32 -24 32 -30 0 -5 5 -10 10 -10 6 0
10 30 10 70 0 39 -2 70 -5 70 -3 0 -17 -12 -30 -27 -22 -27 -27 -28 -139 -31
l-116 -4 0 146 0 146 105 0 c125 0 173 -18 208 -78 21 -35 22 -36 25 -13 2 13
1 44 -3 68 l-6 43 -225 0 c-123 0 -224 -3 -224 -7z"/>
<path d="M5510 1385 c0 -3 16 -19 35 -37 19 -18 73 -103 120 -189 l85 -156 0
-110 c0 -106 -12 -173 -31 -173 -5 0 -9 -4 -9 -10 0 -6 33 -10 80 -10 44 0 80
2 80 5 0 3 -9 14 -20 25 -18 18 -20 33 -20 152 l0 131 36 66 c99 179 139 244
170 271 19 16 34 32 34 35 0 3 -25 5 -55 5 -53 0 -72 -11 -39 -24 11 -4 14
-13 11 -27 -10 -38 -160 -300 -168 -292 -4 4 -44 74 -89 155 -59 106 -80 152
-75 167 6 20 3 21 -69 21 -42 0 -76 -2 -76 -5z"/>
<path d="M6840 1380 c0 -5 4 -10 9 -10 23 0 31 -73 31 -270 0 -241 8 -278 72
-336 59 -53 101 -68 193 -68 67 -1 89 3 130 25 62 31 102 86 115 158 5 29 10
145 10 257 0 191 1 205 20 224 11 11 20 22 20 25 0 3 -27 5 -60 5 -33 0 -60
-2 -60 -5 0 -3 12 -17 28 -30 l27 -23 0 -239 0 -240 -30 -48 c-40 -64 -90 -90
-170 -89 -65 1 -124 24 -162 66 -46 49 -53 94 -53 333 0 210 1 224 21 249 l20
26 -80 0 c-47 0 -81 -4 -81 -10z"/>
<path d="M7520 1381 c0 -6 4 -11 10 -11 22 0 30 -87 30 -325 0 -238 -8 -325
-30 -325 -6 0 -10 -4 -10 -10 0 -6 34 -10 82 -10 l81 0 -21 23 c-21 22 -22 33
-22 180 l0 157 34 0 c98 0 138 -31 180 -141 39 -100 80 -181 102 -201 20 -17
47 -23 99 -19 l30 2 -31 13 c-33 15 -53 49 -114 198 -33 80 -70 122 -116 134
-36 9 -29 18 22 32 56 15 98 55 114 109 25 81 -14 154 -96 182 -51 18 -344 28
-344 12z m277 -31 c55 -24 83 -70 83 -133 0 -97 -46 -137 -167 -145 l-73 -5 0
152 0 151 58 0 c34 0 74 -8 99 -20z"/>
<path d="M8330 1381 c0 -6 4 -11 10 -11 24 0 31 -90 28 -350 -3 -238 -5 -270
-20 -287 -10 -11 -18 -23 -18 -26 0 -4 37 -7 82 -7 l81 0 -22 24 c-20 21 -21
31 -19 137 l3 114 95 6 c108 6 140 19 193 78 40 44 52 87 45 160 -6 66 -39
108 -107 139 -51 24 -70 27 -203 30 -104 3 -148 1 -148 -7z m265 -30 c142 -64
154 -273 19 -341 -26 -14 -58 -20 -101 -20 l-63 0 0 190 0 190 53 0 c29 0 70
-9 92 -19z"/>
<path d="M8870 1384 c0 -4 8 -13 18 -20 16 -11 17 -39 17 -319 0 -280 -1 -308
-17 -319 -10 -7 -18 -16 -18 -20 0 -3 36 -6 80 -6 44 0 80 2 80 5 0 3 -9 14
-20 25 -18 18 -20 33 -20 176 l0 157 60 -6 c99 -9 110 -21 195 -231 46 -113
89 -147 161 -127 l29 8 -27 6 c-30 8 -51 42 -108 181 -38 91 -79 142 -124 155
-30 9 -30 10 -8 17 48 14 107 50 125 76 11 14 22 49 25 76 8 87 -38 138 -146
161 -56 12 -302 15 -302 5z m280 -36 c63 -33 84 -67 84 -133 0 -95 -47 -135
-171 -143 l-73 -5 0 152 0 151 58 0 c40 0 71 -7 102 -22z"/>
<path d="M10220 1381 c0 -5 5 -11 11 -13 21 -7 29 -90 29 -323 0 -233 -8 -316
-29 -323 -6 -2 -11 -8 -11 -14 0 -7 58 -9 173 -6 164 4 175 5 235 32 79 37
153 114 178 188 28 82 25 199 -7 268 -14 30 -38 69 -52 86 -35 42 -129 90
-201 103 -72 13 -326 15 -326 2z m343 -45 c114 -55 170 -158 171 -316 1 -158
-48 -249 -152 -284 -55 -19 -212 -22 -230 -4 -9 9 -12 95 -12 326 l0 315 84
-5 c64 -3 96 -10 139 -32z"/>
<path d="M10920 1381 c0 -5 5 -11 11 -13 20 -7 29 -87 29 -288 1 -233 6 -257
77 -321 53 -48 101 -64 193 -64 128 0 200 52 235 168 11 38 15 104 15 262 0
200 1 214 21 239 l20 26 -60 0 c-34 0 -61 -2 -61 -5 0 -3 12 -17 28 -30 l27
-23 0 -234 c0 -224 -1 -235 -23 -281 -40 -81 -127 -118 -229 -97 -46 10 -66
21 -99 54 -25 24 -46 58 -53 81 -6 24 -11 130 -11 261 0 178 3 224 15 240 8
10 15 22 15 27 0 4 -34 7 -75 7 -41 0 -75 -4 -75 -9z"/>
<path d="M12297 1383 c-4 -3 -7 -29 -7 -57 l0 -51 26 33 c36 45 74 62 139 62
l56 0 -3 -316 c-3 -287 -5 -317 -20 -328 -10 -7 -18 -16 -18 -20 0 -3 36 -6
80 -6 44 0 80 2 80 5 0 3 -9 14 -20 25 -19 19 -20 33 -20 330 l0 310 53 0 c62
0 109 -22 137 -65 l20 -30 0 58 0 57 -248 0 c-137 0 -252 -3 -255 -7z"/>
<path d="M12870 1384 c0 -4 8 -13 18 -20 16 -11 17 -39 17 -319 0 -280 -1
-308 -17 -319 -10 -7 -18 -16 -18 -20 0 -3 36 -6 80 -6 44 0 80 3 80 6 0 4 -8
13 -17 20 -17 11 -18 39 -18 319 0 280 1 308 18 319 9 7 17 16 17 20 0 3 -36
6 -80 6 -44 0 -80 -3 -80 -6z"/>
<path d="M13900 1386 c0 -4 9 -15 20 -26 19 -19 20 -33 20 -319 0 -253 -2
-300 -15 -311 -27 -22 -16 -30 45 -30 64 0 76 10 36 28 -40 18 -47 67 -44 327
l3 236 230 -300 c126 -164 233 -297 237 -295 5 3 8 151 8 328 0 275 2 325 15
336 27 23 16 30 -46 30 l-61 0 30 -28 c40 -37 44 -69 40 -320 l-3 -203 -211
273 -211 273 -46 3 c-26 2 -47 1 -47 -2z"/>
</g>
</svg>

