<?xml version="1.0" encoding="utf-8"?>
<!-- Generator: Adobe Illustrator 17.0.0, SVG Export Plug-In . SVG Version: 6.00 Build 0)  -->
<!DOCTYPE svg PUBLIC "-//W3C//DTD SVG 1.1//EN" "http://www.w3.org/Graphics/SVG/1.1/DTD/svg11.dtd">
<svg version="1.1" id="Warstwa_1" xmlns="http://www.w3.org/2000/svg" xmlns:xlink="http://www.w3.org/1999/xlink" x="0px" y="0px"
	 width="1164.000000pt" height="1164.000000pt" viewBox="0 0 1164.000000 1164.000000" enable-background="new 0 0 173.2 200" xml:space="preserve">
<g transform="translate(0.000000,1164.000000) scale(0.100000,-0.100000)"
fill="#000000" stroke="none">
<path d="M5496 11325 c-59 -21 -96 -61 -96 -105 0 -21 5 -52 11 -69 15 -43 5
-51 -93 -81 -69 -21 -86 -22 -165 -14 l-88 9 -1 45 c-3 137 -66 174 -232 135
-74 -18 -297 -117 -328 -146 -18 -17 -35 -21 -81 -20 -75 1 -254 -16 -318 -30
-107 -24 -195 -91 -195 -146 0 -15 13 -50 29 -78 l29 -52 -45 -38 c-25 -21
-64 -47 -87 -58 -45 -22 -186 -58 -198 -51 -4 3 -13 25 -19 50 -13 52 -54 100
-93 110 -34 8 -119 -23 -189 -71 -29 -19 -104 -81 -168 -137 -114 -100 -119
-104 -235 -147 -253 -93 -364 -172 -364 -258 0 -26 10 -45 46 -83 31 -33 44
-55 40 -66 -16 -41 -105 -135 -156 -164 -30 -17 -68 -39 -84 -48 -22 -13 -30
-14 -33 -4 -3 7 -25 37 -49 67 -34 41 -52 55 -71 55 -31 0 -107 -42 -144 -79
-39 -39 -132 -172 -194 -276 -39 -67 -65 -99 -92 -116 -62 -37 -205 -154 -256
-208 -51 -55 -86 -120 -87 -161 0 -33 38 -76 86 -96 21 -9 42 -21 45 -26 6 -9
-40 -126 -66 -169 -19 -31 -124 -139 -136 -139 -6 0 -31 18 -55 40 -52 47 -93
52 -144 18 -64 -44 -113 -154 -180 -401 -23 -90 -37 -120 -75 -162 -39 -45
-158 -223 -184 -278 -33 -68 -37 -124 -12 -164 16 -26 34 -36 91 -54 38 -11
70 -25 70 -29 0 -5 -5 -44 -11 -87 -10 -77 -55 -188 -97 -241 -18 -23 -18 -23
-43 -4 -35 28 -95 43 -125 32 -38 -15 -71 -60 -89 -121 -12 -44 -15 -99 -14
-235 0 -99 1 -190 1 -204 -1 -14 -13 -52 -28 -85 -14 -33 -44 -114 -66 -180
-45 -135 -53 -218 -24 -273 22 -42 43 -52 115 -52 38 0 65 -5 74 -14 18 -19
41 -158 32 -205 -3 -20 -13 -62 -22 -94 l-16 -59 -61 6 c-126 13 -164 -43
-145 -209 5 -51 29 -145 58 -235 48 -149 49 -153 39 -223 -5 -40 -8 -139 -6
-222 4 -178 21 -233 82 -261 32 -16 37 -16 83 0 83 30 83 30 130 -64 37 -73
44 -97 49 -172 l7 -86 -39 -11 c-21 -5 -51 -13 -67 -17 -15 -3 -41 -23 -58
-43 -26 -31 -30 -42 -25 -78 8 -64 56 -161 155 -311 94 -146 103 -165 122
-281 28 -181 100 -337 172 -376 37 -19 37 -19 73 0 20 10 46 29 57 42 12 12
29 23 38 23 19 0 120 -103 142 -146 15 -30 57 -143 57 -155 0 -3 -18 -14 -40
-24 -54 -25 -100 -77 -100 -116 0 -76 89 -185 273 -333 91 -74 101 -86 141
-165 121 -243 244 -374 329 -350 33 9 87 56 87 75 0 6 7 17 15 24 12 10 27 5
80 -25 37 -20 81 -50 100 -66 39 -35 95 -118 95 -143 0 -9 -16 -31 -36 -49
-42 -36 -63 -78 -57 -112 16 -79 169 -182 412 -275 55 -22 78 -40 170 -133
150 -153 264 -226 338 -214 47 8 78 39 95 94 7 25 18 47 24 50 19 7 167 -37
212 -63 91 -53 134 -109 101 -130 -20 -12 -51 -95 -45 -119 10 -39 67 -84 145
-114 69 -26 162 -43 368 -64 27 -3 68 -21 115 -50 137 -86 314 -157 389 -157
37 0 89 37 105 75 8 19 14 55 14 81 l0 47 111 -6 c110 -7 216 -34 239 -62 6
-7 6 -23 0 -46 -31 -108 3 -160 125 -188 57 -13 240 4 371 35 71 17 74 17 146
-4 183 -54 339 -72 420 -48 85 24 116 69 97 141 -24 91 -29 81 60 109 62 20
103 26 169 26 48 0 92 -4 98 -8 6 -4 14 -35 17 -70 8 -76 29 -108 81 -123 78
-21 207 15 404 115 l107 54 155 12 c222 16 298 36 368 94 40 35 43 81 7 151
-13 27 -21 54 -17 61 4 7 33 31 64 53 42 30 82 48 152 67 53 14 100 23 105 19
6 -3 17 -30 25 -60 28 -95 91 -118 193 -71 83 39 166 100 266 195 91 87 94 89
202 125 265 90 399 188 380 278 -4 17 -27 50 -51 75 -24 24 -44 46 -44 49 0 3
21 33 47 66 48 64 179 158 218 158 12 0 34 -18 55 -47 19 -26 47 -54 61 -62
24 -13 31 -13 72 3 78 30 165 130 280 324 47 79 73 112 107 135 200 137 340
284 340 359 0 36 -45 87 -97 110 -23 10 -44 22 -46 26 -11 19 74 166 133 229
35 37 68 70 73 72 5 2 26 -13 47 -34 30 -29 48 -38 85 -42 45 -6 47 -4 94 44
59 62 103 161 144 333 l30 125 93 125 c117 157 166 250 172 329 6 79 -19 108
-102 121 -32 5 -61 12 -64 14 -3 3 0 49 6 101 8 72 18 108 38 143 15 26 33 59
41 74 16 31 40 35 81 14 15 -8 44 -17 63 -21 48 -9 90 27 121 103 20 52 22 75
24 268 l2 212 36 92 c83 210 108 327 87 407 -17 64 -41 78 -128 78 -71 0 -76
1 -85 25 -15 38 -14 228 1 288 l14 54 69 -7 c55 -6 73 -4 94 10 78 51 70 226
-21 480 l-36 100 10 98 c24 219 9 374 -44 443 -26 34 -30 36 -75 32 -25 -3
-61 -12 -80 -21 -18 -10 -37 -17 -42 -17 -5 0 -27 38 -49 84 -35 72 -41 95
-46 173 -6 101 -11 94 70 109 55 9 107 61 107 106 0 83 -73 232 -191 391 -32
44 -59 88 -59 99 0 27 -45 218 -71 303 -25 82 -71 168 -102 190 -25 18 -80 20
-110 4 -12 -7 -38 -25 -58 -40 l-36 -28 -40 42 c-22 23 -52 58 -66 77 -25 34
-77 159 -77 186 0 7 24 25 53 39 93 47 108 93 60 184 -32 60 -154 186 -266
274 -69 55 -84 72 -129 157 -116 216 -194 316 -268 340 -54 18 -93 0 -138 -62
-40 -56 -37 -56 -135 9 -61 41 -146 134 -164 181 -3 7 13 29 36 48 23 20 48
49 56 64 13 25 12 32 -10 77 -14 27 -35 59 -48 71 -36 34 -185 116 -287 157
-109 44 -139 63 -189 119 -68 75 -172 170 -229 208 -135 90 -217 70 -261 -65
-7 -20 -16 -37 -20 -37 -4 0 -47 13 -95 29 -83 28 -123 50 -191 105 l-30 24
33 60 c37 69 39 86 13 129 -37 60 -172 116 -312 128 -184 16 -231 26 -275 56
-81 55 -287 151 -364 168 -53 12 -105 -2 -142 -39 -22 -23 -28 -38 -28 -72 0
-73 -12 -81 -126 -82 -90 -1 -104 2 -151 27 -29 15 -60 27 -69 27 -13 0 -15 6
-10 28 15 60 17 128 4 151 -7 14 -29 34 -48 45 -31 19 -50 21 -165 20 -90 -1
-161 -8 -230 -23 -119 -25 -147 -26 -211 -6 -64 20 -282 55 -336 55 -24 -1
-60 -7 -82 -15z m210 -65 c95 -17 107 -21 98 -30 -13 -12 -263 -90 -290 -90
-55 0 -64 98 -12 120 31 12 132 12 204 0z m782 -26 c13 -9 22 -26 22 -40 0
-26 -26 -84 -37 -84 -4 0 -66 21 -138 46 -71 25 -136 47 -144 50 -10 3 -11 8
-4 15 29 29 263 40 301 13z m-1504 -97 c0 -26 -5 -52 -11 -58 -13 -13 -335 -1
-327 13 7 11 57 33 159 69 56 21 95 28 130 27 l50 -3 -1 -48z m1233 -17 c106
-34 195 -66 198 -71 8 -12 -11 -45 -29 -52 -8 -3 -100 -11 -203 -18 -163 -10
-209 -10 -348 5 -205 21 -225 25 -253 42 -34 22 -23 45 28 62 135 46 349 101
380 98 19 -2 122 -31 227 -66z m868 19 c53 -14 160 -56 210 -82 l40 -22 -60
-6 c-96 -11 -255 -10 -276 1 -28 16 -27 84 3 104 27 19 31 19 83 5z m-2330
-129 c98 -6 184 -15 189 -20 5 -5 3 -18 -7 -33 -28 -42 -297 -142 -490 -181
-211 -43 -281 -51 -316 -36 -17 7 -31 15 -31 19 0 26 351 242 411 254 40 7 57
7 244 -3z m-439 -13 c-10 -7 -78 -52 -150 -100 l-131 -88 -32 37 c-18 21 -33
45 -33 54 0 51 158 100 345 108 19 1 19 0 1 -11z m1122 -44 c48 -9 91 -19 96
-24 4 -4 -23 -10 -60 -14 -62 -5 -273 -32 -429 -54 -33 -5 -61 -8 -63 -6 -7 6
50 34 128 64 47 18 89 37 95 42 15 14 139 10 233 -8z m2027 -16 c33 -9 101
-48 200 -115 184 -125 185 -125 185 -146 0 -34 -48 -39 -160 -16 -259 55 -286
64 -595 200 -65 28 -87 68 -45 81 45 13 362 10 415 -4z m-612 -55 c111 -51
156 -80 107 -69 -14 3 -63 11 -110 17 -115 15 -290 48 -315 59 -11 5 -41 12
-67 16 -80 10 -54 24 55 28 186 7 211 3 330 -51z m915 28 c128 -18 222 -62
222 -104 0 -20 -49 -76 -67 -76 -14 0 -237 162 -249 181 -7 11 14 11 94 -1z
m-1603 -44 c28 -6 50 -17 50 -23 0 -17 -216 -193 -237 -193 -27 0 -228 182
-228 207 0 6 15 14 33 16 71 9 335 4 382 -7z m-431 -103 c50 -49 108 -103 129
-121 20 -18 37 -39 37 -47 0 -14 -48 -55 -126 -111 -23 -16 -115 -81 -205
-145 -90 -64 -176 -124 -191 -133 -26 -17 -30 -16 -120 15 -195 66 -548 213
-548 228 0 4 41 70 91 146 50 76 93 144 96 151 8 22 56 32 273 59 312 37 359
42 419 44 l55 1 90 -87z m681 63 c22 -3 168 -26 325 -52 201 -33 290 -51 302
-63 30 -29 180 -284 181 -310 2 -28 13 -24 -373 -157 -157 -54 -253 -83 -268
-79 -34 8 -507 379 -525 411 -11 20 -8 24 116 127 158 130 168 138 186 133 9
-3 34 -7 56 -10z m-1608 -91 c-4 -8 -43 -69 -87 -135 -96 -143 -75 -138 -248
-52 -126 62 -143 76 -114 91 135 72 467 144 449 96z m-1277 -25 c14 -14 20
-33 20 -64 l0 -43 -72 -17 c-211 -47 -243 -54 -247 -51 -4 4 99 101 132 124
37 26 122 71 135 71 6 0 21 -9 32 -20z m3822 -49 c89 -23 260 -100 255 -115
-5 -16 -247 -125 -278 -125 -22 -1 -34 11 -76 82 -69 114 -103 174 -103 183 0
11 120 -4 202 -25z m-3227 -36 c-98 -47 -491 -215 -503 -215 -21 0 177 166
218 183 28 11 215 42 275 44 l40 2 -30 -14z m4410 -52 c64 -43 191 -167 163
-161 -12 3 -57 13 -98 22 -41 9 -102 25 -135 35 -57 18 -60 20 -63 53 -2 23 4
43 19 62 26 32 51 30 114 -11z m-4120 -74 c91 -44 165 -84 165 -87 0 -9 -131
-182 -290 -385 -75 -96 -124 -149 -140 -154 -31 -8 -468 28 -639 53 l-43 7 6
36 c3 19 27 103 53 185 l48 149 92 44 c147 71 536 232 560 233 12 0 97 -36
188 -81z m1667 -41 c57 -45 155 -122 218 -171 148 -115 182 -145 176 -156 -11
-17 -465 -161 -508 -161 -27 0 -388 122 -470 159 -27 12 -48 25 -48 30 0 8 40
38 190 144 58 40 156 110 218 155 63 45 115 82 117 82 2 0 50 -37 107 -82z
m1922 62 c49 -11 106 -30 127 -42 44 -27 205 -181 192 -185 -4 -2 -109 46
-231 107 -123 60 -227 110 -231 110 -5 0 -14 7 -21 15 -11 13 -6 15 31 15 24
0 84 -9 133 -20z m-4464 0 c13 -8 12 -14 -5 -46 -11 -20 -29 -43 -40 -51 -11
-8 -74 -54 -140 -104 -210 -156 -555 -315 -555 -255 0 16 13 33 137 182 133
161 149 173 289 213 92 26 234 59 294 70 3 0 12 -4 20 -9z m4325 -85 c75 -36
138 -65 140 -65 12 0 332 -163 347 -177 9 -8 20 -29 23 -47 4 -17 24 -96 46
-175 23 -82 36 -148 31 -153 -7 -7 -80 -12 -530 -36 -72 -4 -143 -3 -156 1
-13 4 -41 33 -62 65 -21 31 -78 111 -125 178 -145 201 -220 317 -212 325 13
13 326 147 345 148 9 1 78 -28 153 -64z m713 -66 c53 -16 136 -43 185 -60 95
-34 100 -38 269 -244 80 -99 106 -144 86 -156 -30 -19 -79 -9 -136 29 -31 21
-66 42 -77 46 -49 18 -218 121 -267 164 -30 26 -93 78 -141 117 -59 48 -88 78
-92 97 -13 58 5 59 173 7z m-3813 -29 c299 -119 468 -189 478 -199 15 -15 14
-15 -236 -183 l-190 -128 -86 1 c-115 0 -450 24 -458 32 -11 12 12 49 87 142
40 50 122 154 182 233 95 124 113 142 131 136 12 -4 54 -19 92 -34z m-1847 -9
c-13 -15 -63 -76 -112 -135 l-89 -106 -31 19 c-17 11 -37 31 -45 44 -13 22
-13 28 3 51 24 37 106 87 201 124 101 38 101 38 73 3z m4453 -128 c45 -65 110
-156 143 -201 85 -117 146 -206 146 -213 0 -7 -434 -23 -513 -20 -39 2 -59 10
-105 45 -31 23 -128 96 -216 160 -131 98 -156 120 -145 131 8 8 114 48 237 90
122 42 248 87 280 100 31 13 64 24 73 24 10 1 49 -44 100 -116z m-3896 15
c-56 -186 -76 -245 -87 -261 -13 -17 -19 -17 -119 -2 -134 20 -204 37 -204 50
1 17 167 144 238 181 57 30 156 71 178 73 4 1 1 -18 -6 -41z m5615 -38 c83
-33 175 -96 196 -136 l19 -35 -33 -30 c-58 -52 -64 -49 -178 106 -94 127 -94
131 -4 95z m-492 -107 c80 -43 262 -184 262 -202 0 -5 -7 -12 -16 -15 -25 -10
-293 -39 -307 -33 -18 7 -92 289 -80 309 5 10 45 -6 141 -59z m-3126 -8 c57
-20 135 -46 173 -60 84 -28 162 -63 169 -74 3 -4 -27 -18 -67 -29 -354 -107
-368 -109 -612 -92 -184 13 -213 20 -174 40 13 7 99 62 191 121 137 90 181
116 215 128 1 1 48 -15 105 -34z m1183 -48 c39 -29 123 -90 188 -136 64 -46
120 -87 122 -92 10 -16 -63 -21 -261 -17 l-199 3 -202 70 c-112 38 -203 73
-203 76 0 4 14 12 31 19 58 24 404 128 429 129 15 0 52 -19 95 -52z m-3852
-128 c-74 -66 -361 -299 -368 -299 -28 0 86 171 154 232 46 42 223 127 264
128 12 0 -6 -21 -50 -61z m268 32 c52 -10 133 -24 181 -31 61 -8 88 -16 93
-27 9 -26 -211 -603 -243 -635 -17 -16 -151 -47 -387 -88 -66 -12 -153 -28
-194 -36 -120 -23 -111 -31 -110 99 0 61 4 151 7 198 l7 86 50 45 c76 69 493
408 500 408 2 0 45 -9 96 -19z m3007 -67 c148 -54 152 -56 146 -65 -6 -11
-190 -12 -403 -2 -112 4 -148 9 -135 16 31 18 248 86 272 87 13 0 67 -16 120
-36z m-3787 -29 c19 -35 22 -49 13 -62 -12 -20 -262 -158 -270 -150 -9 9 25
68 83 144 95 126 135 142 174 68z m1434 5 c105 -10 227 -22 273 -25 47 -4 82
-12 82 -18 0 -10 -91 -134 -126 -172 -11 -11 -48 -56 -84 -100 -129 -157 -111
-147 -315 -194 -346 -81 -362 -83 -357 -61 6 28 224 575 234 587 6 7 27 10 56
7 26 -2 133 -13 237 -24z m5422 -209 c109 -98 227 -205 263 -238 l65 -61 -1
-191 c-1 -114 -5 -196 -11 -202 -11 -11 -115 11 -448 91 -236 57 -233 55 -251
98 -25 59 -204 598 -204 615 0 18 4 19 180 42 63 8 126 16 140 18 14 3 35 5
47 6 16 1 80 -51 220 -178z m41 132 c120 -59 180 -116 227 -215 53 -110 48
-122 -24 -55 -26 23 -96 87 -156 142 -131 120 -175 163 -175 170 0 14 40 1
128 -42z m-4768 26 c102 -5 200 -12 218 -15 33 -5 34 -6 16 -26 -29 -31 -272
-188 -339 -218 -50 -23 -403 -120 -436 -120 -19 0 14 45 158 218 121 143 149
172 171 172 15 0 110 -5 212 -11z m582 -33 c64 -6 120 -15 124 -18 3 -4 -11
-9 -32 -13 -22 -3 -55 -10 -74 -16 -153 -45 -318 -89 -335 -89 -11 -1 -38 -7
-60 -15 -52 -19 -55 -12 -8 19 21 15 76 53 122 86 94 67 84 65 263 46z m3531
-143 c24 -76 72 -216 105 -312 l61 -174 -42 6 c-72 10 -450 118 -487 139 -19
11 -56 47 -82 81 -89 116 -229 302 -245 325 -13 19 -14 25 -3 32 7 4 92 11
189 15 97 4 219 11 271 15 52 4 116 8 142 9 l46 1 45 -137z m-2328 108 l330
-8 85 -32 c95 -36 487 -163 655 -211 273 -79 266 -76 570 -284 154 -106 345
-235 425 -286 183 -118 222 -149 279 -224 84 -108 372 -457 546 -660 89 -103
104 -130 179 -314 113 -279 151 -365 281 -652 64 -143 74 -180 85 -318 11
-129 43 -420 61 -547 14 -100 40 -301 45 -360 4 -35 -10 -132 -45 -320 -27
-148 -66 -382 -86 -519 -20 -136 -43 -268 -51 -292 -8 -24 -70 -155 -139 -292
-68 -137 -147 -300 -175 -362 -66 -144 -155 -325 -174 -351 -7 -11 -88 -100
-178 -197 -210 -225 -249 -268 -338 -372 -188 -220 -245 -267 -520 -425 -137
-78 -287 -170 -423 -259 -195 -127 -208 -132 -697 -260 -135 -35 -324 -85
-420 -111 l-175 -48 -365 12 c-201 6 -443 11 -538 11 -201 0 -223 4 -507 100
-197 66 -377 123 -555 175 -190 56 -206 65 -585 329 -66 46 -182 124 -258 173
-186 118 -276 185 -312 232 -16 21 -104 130 -194 242 -155 192 -207 255 -374
453 -90 107 -103 129 -193 346 -42 102 -122 289 -177 415 -155 357 -166 390
-177 513 -5 58 -19 190 -30 292 -19 173 -26 228 -65 503 -21 151 -19 181 20
383 34 178 66 361 84 484 34 232 54 341 68 385 14 45 100 224 195 405 43 82
148 305 202 430 58 132 87 172 282 381 177 191 378 414 475 528 62 73 56 68
419 285 140 84 328 198 416 254 184 116 181 114 323 147 287 68 813 209 871
234 17 8 102 9 275 5 138 -3 399 -9 580 -13z m880 -11 c32 -12 199 -138 214
-161 8 -15 6 -16 -17 -8 -15 5 -97 29 -182 54 -85 24 -193 58 -240 74 -70 23
-80 30 -60 35 71 16 247 20 285 6z m638 1 c16 -6 74 -77 240 -296 82 -107 82
-108 -26 -78 -51 14 -110 29 -132 35 -75 18 -209 69 -260 99 -89 54 -309 214
-307 224 1 6 18 13 39 16 54 9 424 9 446 0z m2011 -53 c43 -40 136 -187 136
-216 0 -17 -34 1 -167 86 -57 36 -103 71 -103 79 0 35 44 93 71 93 9 0 38 -19
63 -42z m-7400 16 c12 -33 5 -64 -22 -96 -16 -18 -67 -85 -115 -149 -125 -168
-373 -399 -429 -399 -41 0 -37 23 35 190 94 219 103 231 215 305 124 80 272
164 293 164 9 1 20 -6 23 -15z m7460 -278 c77 -52 151 -105 163 -118 12 -12
47 -81 78 -153 154 -352 130 -381 -115 -137 -122 121 -164 171 -241 287 -100
150 -123 199 -108 227 9 17 13 17 45 3 20 -8 100 -57 178 -109z m-7444 -120
c0 -148 -6 -192 -26 -200 -24 -9 -304 -30 -310 -23 -10 10 80 138 146 210 70
76 169 159 181 152 5 -4 9 -66 9 -139z m1636 49 c-132 -95 -374 -241 -383
-231 -7 6 100 149 145 194 34 34 47 39 162 63 69 15 131 27 139 28 8 0 -21
-24 -63 -54z m-2206 3 c-4 -18 -23 -67 -42 -108 -19 -41 -43 -96 -53 -122 -9
-26 -24 -49 -32 -52 -20 -8 -102 29 -109 49 -15 39 66 142 168 215 40 27 73
50 74 50 1 0 -2 -15 -6 -32z m1850 -60 c-1 -19 -125 -169 -222 -269 -68 -70
-107 -100 -218 -165 -148 -87 -225 -126 -233 -117 -13 12 180 441 205 454 22
12 404 102 456 108 6 0 12 -5 12 -11z m4308 -8 c35 -6 92 -20 125 -31 57 -17
66 -25 114 -87 53 -71 99 -149 91 -157 -6 -6 -163 96 -296 193 -59 43 -116 84
-127 91 -19 12 -19 12 5 7 14 -2 54 -10 88 -16z m1743 -127 c99 -101 195 -250
175 -270 -8 -8 -285 36 -310 49 -18 10 -19 19 -13 157 3 80 9 154 12 163 7 17
9 17 34 -1 14 -11 60 -54 102 -98z m-1269 -2 c29 -10 111 -33 181 -51 101 -26
132 -39 144 -56 18 -29 151 -372 159 -413 5 -24 3 -31 -9 -31 -16 0 -224 128
-312 192 -82 60 -315 344 -315 384 0 10 92 -4 152 -25z m-5352 3 c0 -8 -61
-154 -93 -224 -19 -41 -51 -116 -72 -167 -20 -50 -47 -101 -59 -112 -28 -26
-428 -249 -462 -257 l-27 -7 6 74 c27 331 50 575 56 581 3 4 92 23 196 43 105
19 242 45 305 58 100 20 150 24 150 11z m7093 -13 c88 -60 177 -174 177 -225
0 -17 -26 -33 -71 -46 -36 -11 -51 3 -75 67 -9 27 -32 87 -51 135 -18 48 -33
90 -33 93 0 10 12 5 53 -24z m-7823 -195 c0 -124 -49 -587 -64 -611 -14 -21
-582 -315 -608 -315 -17 0 -27 30 -83 238 -24 91 -32 138 -26 150 16 29 345
516 373 552 l27 34 148 17 c81 9 167 17 191 18 l42 1 0 -84z m6655 47 c50 -13
164 -40 255 -59 91 -20 179 -42 196 -49 31 -13 32 -15 38 -92 3 -43 8 -192 12
-331 l6 -254 -33 18 c-91 46 -427 262 -447 286 -6 8 -25 51 -41 94 -16 43 -53
144 -84 224 -50 131 -62 171 -58 192 1 9 39 2 156 -29z m-7266 -215 c-72 -106
-146 -215 -166 -243 l-35 -50 7 45 c14 81 55 203 83 245 48 73 192 192 234
195 4 0 -51 -87 -123 -192z m7979 61 c70 -11 151 -25 181 -32 l54 -12 62 -100
c158 -255 284 -462 295 -486 10 -22 5 -45 -35 -170 -67 -207 -69 -211 -82
-216 -16 -6 -150 65 -400 212 -184 108 -203 122 -208 150 -12 73 -25 338 -25
499 0 152 2 176 15 176 9 0 73 -9 143 -21z m442 -151 c51 -45 102 -100 115
-123 23 -41 80 -246 73 -267 -4 -11 -80 104 -220 332 -39 63 -72 121 -75 128
-12 29 22 7 107 -70z m-6991 48 c-2 -3 -20 -24 -39 -47 -85 -104 -240 -277
-276 -308 -31 -27 -40 -31 -42 -19 -6 29 76 223 106 250 28 27 216 126 241
127 8 1 12 -1 10 -3z m-1823 -50 c19 -19 34 -40 34 -47 0 -20 -199 -229 -217
-229 -44 0 50 253 109 295 31 21 35 20 74 -19z m7558 -167 c32 -19 67 -45 78
-59 21 -30 111 -280 100 -280 -15 0 -342 397 -342 414 0 7 97 -37 164 -75z
m-7476 29 c21 -21 13 -73 -32 -199 -60 -168 -99 -251 -191 -404 -81 -136 -115
-175 -152 -175 -19 0 -23 5 -23 33 0 68 52 373 70 415 20 45 122 165 236 280
67 66 73 69 92 50z m1358 -55 c-20 -56 -114 -259 -149 -322 -17 -31 -63 -92
-102 -136 -38 -44 -81 -93 -95 -110 -37 -45 -131 -135 -140 -135 -11 0 -4 76
26 305 14 104 29 194 35 201 5 6 76 49 157 94 81 46 170 96 197 112 28 15 58
28 67 28 15 0 16 -4 4 -37z m7858 -35 c34 -46 53 -97 71 -190 8 -44 15 -85 15
-90 0 -17 -26 9 -128 130 l-96 114 37 34 c46 42 69 43 101 2z m-1444 -131 c41
-23 130 -78 197 -120 144 -92 135 -72 152 -317 13 -192 14 -260 3 -260 -11 0
-95 88 -191 200 -89 103 -133 184 -215 392 -67 170 -65 173 54 105z m1328 -29
c64 -68 156 -178 210 -249 36 -48 44 -67 52 -130 13 -95 27 -225 34 -311 l5
-68 -29 0 c-44 0 -77 42 -162 206 -56 109 -93 199 -137 334 -34 102 -61 193
-61 202 0 22 21 68 31 68 4 0 29 -24 57 -52z m-8990 -60 c11 -35 30 -105 43
-155 21 -82 22 -94 9 -107 -29 -27 -287 -132 -298 -121 -10 10 60 200 105 287
46 87 97 158 113 158 5 0 18 -28 28 -62z m737 -50 c-6 -56 -52 -418 -61 -478
-5 -29 -36 -65 -182 -213 -180 -182 -208 -205 -223 -190 -4 4 -20 69 -34 143
-14 74 -41 215 -61 313 -20 98 -33 181 -29 185 15 15 562 291 578 291 15 1 17
-6 12 -51z m8164 -199 c64 -115 111 -238 118 -306 l6 -52 -29 8 c-16 5 -83 35
-149 68 -140 70 -134 54 -84 218 36 116 54 155 73 155 8 0 37 -41 65 -91z
m-9446 74 c13 -23 -30 -289 -49 -308 -17 -17 -70 -10 -96 13 -37 31 -11 110
76 235 45 64 60 76 69 60z m8657 -17 c14 -7 111 -63 217 -124 105 -61 213
-122 240 -136 27 -13 55 -31 61 -39 11 -13 -26 -180 -129 -587 -17 -65 -26
-69 -62 -29 -18 20 -93 102 -167 183 -74 81 -144 158 -155 172 -16 21 -21 52
-31 197 -6 95 -15 218 -19 275 -8 111 -6 116 45 88z m-8020 -173 c5 -21 19
-83 30 -138 73 -377 90 -467 90 -494 0 -35 8 -27 -240 -262 -258 -244 -257
-244 -276 -228 -8 7 -46 65 -84 128 -38 64 -78 130 -89 146 -28 40 -26 65 8
176 142 454 172 544 187 559 5 5 54 28 109 51 55 23 129 54 165 70 36 15 70
28 77 28 7 1 17 -16 23 -36z m846 -30 c-4 -16 -20 -55 -35 -88 -125 -263 -186
-385 -193 -385 -22 0 1 249 28 301 11 22 191 198 203 199 2 0 0 -12 -3 -27z
m8489 -133 c84 -138 74 -199 -32 -200 -27 0 -33 5 -41 33 -6 17 -13 88 -17
155 -3 68 -9 131 -12 140 -9 31 56 -52 102 -128z m-9810 -27 c-12 -68 -127
-417 -154 -468 l-26 -50 -3 75 c-4 97 14 223 40 275 37 72 131 205 146 205 2
0 1 -17 -3 -37z m8418 -184 c19 -29 36 -325 17 -299 -37 51 -138 276 -190 425
-9 28 -21 58 -25 68 -9 21 176 -160 198 -194z m870 116 l157 -76 20 -70 c51
-177 60 -208 74 -264 8 -33 31 -120 50 -192 20 -73 36 -145 36 -161 0 -17 -19
-53 -51 -97 -28 -39 -76 -107 -106 -152 -30 -46 -57 -83 -60 -83 -9 0 -162
151 -324 322 -130 136 -159 172 -159 195 0 44 123 567 150 638 13 35 19 34
213 -60z m-8283 -253 c-11 -81 -30 -182 -41 -225 -20 -80 -140 -334 -187 -396
l-25 -34 -10 24 c-12 32 -58 326 -64 410 -5 66 -5 66 33 106 138 143 220 226
262 264 44 42 47 43 50 21 2 -13 -6 -89 -18 -170z m8614 17 c63 -102 78 -145
84 -239 4 -80 -11 -200 -26 -200 -12 0 -152 530 -144 544 7 12 36 -24 86 -105z
m-1011 -101 c203 -222 226 -249 232 -267 3 -11 -10 -100 -30 -198 -42 -206
-62 -283 -74 -283 -13 0 -39 48 -112 210 -79 173 -85 196 -104 393 -17 177
-19 237 -6 237 5 0 48 -42 94 -92z m-9013 17 c56 -29 55 -39 -17 -175 -81
-154 -85 -160 -94 -129 -12 43 -9 203 5 242 16 44 43 77 63 77 8 0 27 -7 43
-15z m133 -136 c15 -28 17 -48 12 -119 -27 -375 -113 -720 -180 -720 -20 0
-32 48 -55 225 -32 246 -34 230 49 401 94 193 130 256 145 251 6 -2 19 -19 29
-38z m891 -66 c11 -52 54 -328 67 -424 l12 -96 -98 -189 c-54 -104 -114 -214
-133 -244 l-35 -55 -20 27 c-11 14 -80 144 -154 289 -95 186 -132 269 -128
283 3 12 32 43 63 70 31 27 122 111 202 186 211 201 214 202 224 153z m9391
-70 c20 -47 30 -163 21 -237 -7 -49 -10 -55 -22 -45 -19 16 -124 236 -124 261
0 21 55 58 87 58 17 0 27 -10 38 -37z m-10093 -124 c83 -134 118 -194 118
-204 0 -13 -156 -149 -220 -192 -59 -40 -60 -37 -49 108 12 161 67 373 94 363
8 -3 33 -37 57 -75z m9948 -22 c37 -72 135 -302 143 -334 9 -38 -48 -376 -75
-445 -6 -16 -14 -28 -19 -28 -15 0 -58 54 -63 80 -3 14 -21 99 -40 190 -30
144 -36 190 -41 364 -6 194 -6 199 15 221 12 13 28 21 35 18 8 -2 28 -32 45
-66z m-834 -66 c49 -52 142 -146 206 -209 65 -63 120 -123 124 -134 4 -13 -18
-59 -72 -151 -43 -73 -105 -181 -139 -242 -69 -125 -107 -185 -116 -185 -14 0
-32 33 -134 250 -75 160 -105 235 -105 261 0 44 83 450 105 517 7 19 26 3 131
-107z m-8131 -107 c-36 -258 -70 -423 -86 -407 -10 10 -49 212 -49 255 0 16
14 57 31 91 39 77 110 189 116 184 2 -3 -3 -58 -12 -123z m8765 7 c22 -41 41
-172 47 -313 5 -128 4 -148 -9 -148 -29 0 -238 193 -238 220 0 8 34 67 77 130
92 139 102 148 123 111z m-1020 -172 c87 -161 86 -152 49 -301 -18 -70 -35
-128 -39 -128 -11 0 -39 173 -55 345 -9 88 -18 166 -20 173 -2 6 -1 12 3 12 5
0 33 -46 62 -101z m-9190 -71 c28 -163 27 -186 -7 -194 -44 -12 -84 -8 -94 7
-24 35 4 211 49 308 14 30 17 32 24 15 4 -10 17 -72 28 -136z m703 2 c43 -80
115 -218 159 -307 l81 -161 -43 -79 c-126 -229 -304 -523 -318 -523 -8 0 -272
236 -285 254 -12 16 2 685 15 718 6 16 51 59 107 102 53 41 114 91 136 110 22
20 47 35 55 33 8 -1 50 -67 93 -147z m560 -52 c3 -13 15 -81 27 -153 32 -187
31 -327 -3 -490 -42 -203 -52 -231 -74 -202 -27 33 -193 404 -193 429 0 16 17
59 38 96 21 37 66 123 101 192 82 162 93 175 104 128z m8811 -110 c56 -51 120
-107 142 -124 l39 -31 -2 -364 -3 -364 -32 -27 c-122 -103 -272 -218 -283
-218 -16 0 -40 42 -200 354 -148 288 -143 245 -44 414 223 383 265 452 276
452 2 0 51 -42 107 -92z m550 28 c21 -51 46 -181 46 -242 0 -42 -5 -58 -22
-74 -12 -11 -26 -20 -31 -20 -23 0 -77 34 -77 49 1 43 57 321 66 321 2 0 10
-15 18 -34z m-10394 -321 c0 -243 -2 -285 -15 -285 -14 0 -40 73 -64 180 -15
66 -13 161 4 211 9 24 20 64 26 89 9 42 33 90 44 90 3 0 5 -128 5 -285z m9152
118 c126 -268 148 -316 148 -336 0 -11 -25 -68 -56 -126 -31 -58 -77 -144
-102 -191 -66 -125 -74 -132 -91 -77 -14 45 -51 333 -51 402 0 58 50 345 70
403 7 17 16 32 21 32 5 0 32 -48 61 -107z m1000 -208 c34 -119 33 -153 -2
-296 -34 -135 -53 -162 -66 -93 -7 40 4 478 13 509 5 17 8 15 21 -15 8 -19 23
-66 34 -105z m-9289 -245 c79 -162 117 -250 117 -273 0 -38 -72 -401 -96 -485
-8 -29 -19 -52 -25 -50 -5 2 -109 106 -230 232 -163 170 -219 235 -216 248 3
10 48 92 100 181 52 89 123 213 157 275 35 61 66 112 70 112 4 0 59 -108 123
-240z m-1108 98 c30 -14 30 -18 4 -147 -29 -143 -53 -195 -74 -161 -9 15 -45
207 -45 243 0 67 50 95 115 65z m133 -75 c22 -19 40 -75 71 -223 31 -145 41
-249 41 -425 0 -129 -3 -165 -16 -183 -24 -35 -40 -26 -70 36 -86 182 -116
248 -136 306 -25 72 -24 82 28 346 30 154 32 160 49 160 7 0 22 -8 33 -17z
m9614 -284 c81 -156 148 -288 148 -292 0 -5 -46 -52 -102 -105 -57 -53 -162
-154 -234 -224 -72 -71 -136 -128 -142 -128 -17 0 -24 33 -62 300 -17 115 -30
223 -30 240 0 29 49 130 152 313 21 38 38 71 38 73 0 16 65 114 73 111 6 -2
78 -131 159 -288z m-8364 209 c11 -41 34 -235 47 -398 l7 -75 -43 69 c-23 39
-55 99 -71 134 -27 60 -28 66 -18 125 17 96 46 187 60 187 4 0 12 -19 18 -42z
m-1019 -108 c65 -48 191 -171 191 -188 0 -17 -38 -79 -118 -195 -63 -91 -69
-91 -100 16 -33 111 -49 397 -22 397 4 0 26 -14 49 -30z m10285 7 c34 -25 19
-201 -26 -289 -21 -43 -35 -48 -43 -15 -4 19 -32 220 -38 271 -1 13 8 23 33
32 46 16 53 17 74 1z m-1424 -122 c13 -49 23 -115 24 -145 1 -49 -5 -64 -51
-140 -28 -47 -60 -96 -71 -110 l-19 -24 4 54 c3 30 20 147 39 260 19 113 34
210 34 215 1 24 19 -27 40 -110z m1255 55 c11 -19 57 -394 52 -435 -4 -42
-116 -286 -169 -367 -18 -29 -37 -48 -49 -48 -37 0 -41 31 -29 233 11 169 18
213 56 370 44 180 54 207 82 240 17 19 47 23 57 7z m-225 -220 c0 -38 -5 -93
-10 -122 -6 -29 -15 -78 -21 -108 -19 -100 -49 -181 -67 -178 -8 2 -51 63 -95
135 -78 131 -79 133 -63 158 24 37 214 185 237 185 17 0 19 -7 19 -70z m-9411
-187 c121 -126 228 -239 237 -252 21 -30 16 -64 -67 -396 -68 -277 -77 -305
-91 -305 -10 0 -267 117 -318 145 -36 19 -43 38 -104 265 -83 316 -108 419
-104 445 3 24 206 324 220 325 3 0 106 -102 227 -227z m543 17 c36 -80 71
-161 77 -180 22 -73 59 -470 44 -470 -5 0 -70 68 -144 152 -74 83 -144 163
-157 176 -12 14 -25 35 -28 48 -6 22 69 420 87 463 l10 24 23 -34 c13 -19 52
-99 88 -179z m-1316 -116 c35 -75 64 -144 64 -155 0 -20 -31 -43 -70 -52 -57
-13 -74 27 -77 185 -3 116 1 158 14 158 2 0 33 -61 69 -136z m9239 -69 c14
-99 30 -202 34 -228 7 -43 5 -52 -19 -85 -15 -20 -95 -102 -176 -182 l-149
-145 -3 46 c-2 26 9 122 23 215 l25 169 89 180 c96 194 129 246 142 224 4 -8
19 -95 34 -194z m663 109 c18 -27 64 -99 102 -159 l69 -110 -48 -155 c-134
-430 -163 -516 -181 -531 -11 -9 -66 -35 -122 -57 -57 -22 -130 -52 -162 -67
-65 -29 -81 -28 -88 7 -17 76 -108 534 -117 591 l-12 69 153 147 c204 197 347
323 361 318 7 -2 27 -26 45 -53z m-9614 -161 c4 -21 34 -141 67 -267 32 -126
56 -232 53 -235 -10 -10 -57 54 -109 146 l-49 87 -3 127 c-3 121 5 179 26 179
5 0 12 -17 15 -37z m10184 -115 c-8 -180 -39 -241 -109 -216 -15 5 -34 17 -43
27 -16 17 -13 26 43 137 55 111 95 174 108 174 3 0 3 -55 1 -122z m-9302 -101
c145 -152 271 -293 283 -315 11 -21 25 -154 46 -464 7 -91 6 -98 -11 -98 -10
0 -79 36 -154 79 -74 44 -191 111 -260 150 -69 38 -131 74 -139 79 -14 8 -11
22 131 605 5 20 15 37 22 37 7 0 44 -33 82 -73z m8970 -11 c3 -19 3 -40 -1
-45 -3 -6 -8 -39 -11 -74 -11 -164 -7 -155 -132 -359 -23 -37 -47 -54 -56 -39
-3 5 6 44 20 87 15 43 44 137 65 208 22 71 45 139 52 150 7 12 19 40 25 64 15
51 29 54 38 8z m-8616 -7 c0 -6 23 -58 51 -117 47 -96 152 -372 145 -379 -4
-4 -162 157 -182 185 -25 35 -47 341 -24 327 6 -3 10 -11 10 -16z m7778 -126
c5 -21 33 -159 62 -308 29 -148 55 -279 57 -291 4 -18 -9 -27 -84 -63 -48 -23
-182 -92 -297 -152 -114 -61 -211 -107 -214 -104 -5 4 30 308 57 492 4 31 18
68 34 89 30 43 357 374 368 374 5 0 12 -17 17 -37z m-448 -226 c-10 -80 -17
-103 -39 -130 -42 -51 -191 -192 -191 -180 0 29 154 360 203 438 l32 50 3 -40
c2 -22 -2 -84 -8 -138z m-8646 26 c8 -28 29 -290 24 -305 -14 -42 -148 195
-148 263 0 45 17 57 82 58 27 1 38 -4 42 -16z m135 -28 c27 -23 119 -183 192
-335 39 -80 110 -313 116 -379 7 -72 -9 -91 -49 -58 -28 23 -229 255 -255 294
-8 13 -19 40 -24 60 -16 63 -39 283 -39 366 0 87 8 94 59 52z m1263 -122 c119
-124 221 -259 268 -358 55 -116 130 -306 130 -330 0 -24 -28 -12 -139 59 -53
34 -135 86 -183 115 -48 29 -92 59 -98 66 -6 8 -17 98 -25 202 -8 103 -17 212
-20 241 -8 67 5 68 67 5z m-909 -23 c67 -34 127 -66 134 -73 10 -9 6 -33 -16
-110 -35 -119 -70 -207 -82 -207 -11 0 -66 84 -103 159 -27 53 -96 253 -96
278 0 25 40 13 163 -47z m9561 -62 c25 -14 17 -68 -23 -150 -31 -63 -104 -158
-122 -158 -13 0 -11 50 10 188 11 78 23 127 32 133 15 10 73 3 103 -13z m-184
-47 c0 -21 -6 -76 -14 -122 -8 -46 -17 -109 -21 -139 -12 -100 -35 -166 -77
-216 -62 -75 -230 -249 -259 -268 -23 -15 -27 -15 -39 -1 -20 24 -6 85 55 250
61 161 77 194 192 383 77 126 101 152 140 152 20 0 23 -5 23 -39z m-1260 -3
c0 -7 -9 -80 -20 -163 -12 -82 -25 -186 -31 -230 -6 -52 -16 -86 -27 -96 -9
-9 -109 -67 -221 -128 l-203 -110 7 36 c3 19 18 61 32 92 14 31 42 95 63 142
52 121 99 185 246 337 121 124 154 150 154 120z m-7745 -86 c203 -112 392
-224 422 -248 26 -21 27 -26 34 -160 4 -77 10 -229 14 -340 7 -175 6 -202 -8
-207 -8 -3 -84 5 -168 19 -85 13 -166 24 -181 24 -18 0 -33 9 -46 28 -36 51
-344 574 -349 592 -3 10 16 78 40 151 25 74 51 153 57 177 7 29 16 42 28 42
10 0 80 -35 157 -78z m8731 -12 c-8 -66 -70 -205 -136 -307 -54 -85 -72 -97
-89 -65 -16 30 -71 245 -71 278 0 34 4 36 180 108 118 49 124 48 116 -14z
m-347 -147 c5 -21 13 -51 17 -68 4 -16 22 -83 40 -148 33 -114 33 -119 17
-150 -14 -28 -74 -118 -301 -452 -88 -129 -73 -120 -230 -134 -75 -7 -159 -17
-186 -22 -30 -6 -53 -6 -59 0 -10 10 13 327 39 551 11 92 22 141 33 154 18 20
583 306 606 306 8 0 18 -16 24 -37z m-8983 -215 c38 -40 83 -90 99 -111 l28
-38 -33 -34 c-19 -19 -44 -35 -56 -35 -26 0 -62 40 -86 95 -22 54 -58 174 -58
197 0 28 24 11 106 -74z m1756 -138 c62 -76 138 -183 134 -187 -5 -6 -98 38
-166 78 -36 21 -73 51 -82 66 -25 43 -87 225 -88 256 0 11 144 -141 202 -213z
m-605 179 c35 -13 400 -236 430 -262 33 -29 222 -521 205 -531 -7 -4 -92 14
-282 59 -63 15 -152 35 -197 45 -152 35 -163 39 -164 63 0 12 -2 29 -3 37 -2
8 -6 125 -10 260 -4 135 -9 266 -13 293 -6 52 -6 52 34 36z m-774 -187 c175
-279 211 -341 203 -350 -12 -12 -60 25 -144 112 -86 90 -88 92 -115 187 -15
52 -27 105 -27 116 0 12 -4 25 -10 28 -5 3 -10 16 -10 28 1 21 2 20 26 -8 13
-16 48 -67 77 -113z m7437 16 c-34 -104 -74 -183 -108 -215 -25 -23 -170 -101
-230 -124 -24 -9 -25 -9 -11 8 9 10 51 61 94 113 77 94 264 296 276 299 4 0
-6 -36 -21 -81z m451 -23 c-2 -17 -15 -163 -30 -325 l-26 -295 -135 -26 c-298
-59 -508 -99 -514 -99 -11 0 -1 28 81 225 103 246 124 286 170 317 54 37 274
159 393 220 49 24 66 20 61 -17z m1209 -54 c-6 -25 -29 -83 -51 -128 -54 -114
-86 -129 -150 -75 -35 30 -22 54 93 172 119 123 132 127 108 31z m-385 -85
c-65 -202 -81 -231 -182 -319 -64 -56 -143 -106 -143 -91 0 4 23 41 52 83 28
42 78 117 111 166 145 216 196 267 162 161z m-7322 -52 c91 -47 317 -206 358
-251 102 -114 239 -306 227 -318 -2 -2 -37 5 -78 16 -41 11 -141 37 -221 58
-80 21 -154 43 -165 49 -11 6 -26 30 -33 54 -7 24 -38 106 -68 183 -70 179
-83 214 -83 220 0 10 32 4 63 -11z m5897 -129 c0 -4 -44 -104 -155 -354 -18
-40 -37 -77 -43 -83 -16 -16 -479 -124 -489 -114 -9 9 193 254 267 323 35 33
290 191 352 218 33 14 68 19 68 10z m-7127 -119 c18 -7 95 -78 173 -157 208
-213 384 -483 335 -514 -23 -13 -59 5 -217 110 -142 95 -214 154 -214 177 0 4
-10 31 -23 60 -53 120 -104 257 -112 301 -8 42 3 47 58 23z m-100 -93 c45
-111 73 -201 64 -209 -9 -9 -44 16 -106 76 -62 61 -111 134 -111 166 0 30 36
54 81 54 36 0 36 0 72 -87z m500 53 c65 -12 122 -27 128 -33 13 -13 22 -187
12 -258 -6 -44 -12 -61 -25 -63 -41 -8 -298 303 -298 360 0 24 36 23 183 -6z
m586 -130 c151 -36 284 -72 296 -80 14 -10 32 -43 48 -88 106 -308 187 -550
187 -562 0 -16 -64 -31 -175 -41 -38 -3 -102 -11 -142 -17 l-72 -11 -39 34
c-86 74 -312 279 -401 364 l-94 90 7 175 c3 96 6 184 6 194 0 17 6 18 53 13
28 -3 175 -35 326 -71z m879 -2 c80 -44 307 -202 342 -239 l24 -26 -44 6 c-64
9 -187 43 -220 60 -15 8 -41 31 -58 52 -31 40 -122 173 -122 179 0 8 13 3 78
-32z m6470 -22 c17 -12 2 -51 -97 -255 -72 -148 -87 -171 -127 -200 -81 -59
-352 -209 -365 -202 -57 36 118 286 356 509 164 153 194 172 233 148z m-268
-24 c0 -7 -29 -51 -63 -98 -63 -85 -236 -255 -260 -255 -15 0 -23 313 -8 328
10 10 198 34 279 36 35 1 52 -3 52 -11z m418 1 c78 -27 42 -109 -102 -230 -39
-33 -73 -59 -78 -59 -15 0 -8 28 33 126 77 185 79 187 147 163z m-2070 -127
c-80 -109 -112 -134 -198 -151 -150 -29 -214 -40 -218 -36 -2 2 10 11 27 19
16 9 58 36 93 59 108 75 357 217 366 211 2 -2 -29 -48 -70 -102z m1250 -110
l-3 -198 -35 -31 c-19 -17 -65 -55 -102 -84 -36 -30 -132 -108 -213 -174 -81
-66 -160 -131 -175 -143 l-29 -24 -158 27 c-87 14 -175 31 -195 36 l-37 10 35
102 c40 114 203 528 213 539 7 8 136 40 256 63 50 10 124 24 165 32 41 8 107
20 145 28 39 7 85 14 103 14 l33 1 -3 -198z m-6040 113 c330 -90 288 -66 425
-245 149 -194 200 -271 188 -283 -10 -10 -323 -28 -530 -30 l-124 -2 -13 40
c-102 301 -184 551 -184 561 0 22 22 18 238 -41z m5259 -88 c-61 -161 -232
-584 -238 -591 -5 -6 -53 -4 -121 3 -62 7 -204 21 -316 31 -112 10 -206 21
-209 24 -3 3 6 24 20 45 34 50 264 327 304 363 24 24 61 36 239 77 286 67 331
74 321 48z m-4732 -66 c44 -11 137 -38 208 -61 116 -37 139 -49 262 -133 243
-166 235 -159 193 -171 -39 -11 -453 -20 -470 -10 -9 5 -45 48 -80 95 -35 47
-95 128 -134 180 -86 115 -89 119 -72 119 7 0 49 -9 93 -19z m4055 -78 c-1
-19 -288 -359 -317 -376 -8 -5 -109 -4 -226 2 -117 6 -224 11 -240 11 -52 0
-27 28 106 116 212 141 279 169 552 228 130 29 125 28 125 19z m-5510 -90 c84
-68 323 -289 328 -303 11 -30 -206 68 -269 123 -43 36 -159 218 -159 248 0 13
-4 16 100 -68z m-405 28 c119 -66 185 -107 190 -120 8 -19 -34 -87 -60 -99
-20 -9 -30 -5 -71 31 -45 39 -125 153 -145 204 -8 22 -7 24 13 18 13 -4 46
-19 73 -34z m2618 -92 c197 -60 222 -67 280 -87 106 -36 95 -42 -81 -49 l-140
-6 -64 54 c-35 30 -78 65 -96 79 -63 49 -40 52 101 9z m2586 -32 c-46 -36
-218 -151 -234 -157 -12 -5 -67 -4 -121 0 -54 5 -114 9 -131 10 -18 0 -33 4
-33 10 0 15 209 76 455 133 53 12 77 14 64 4z m2150 -20 c-22 -41 -127 -182
-156 -208 -42 -38 -108 -73 -196 -103 -92 -32 -111 -30 -65 4 18 13 98 78 178
145 212 176 234 193 243 188 4 -2 2 -14 -4 -26z m401 -10 c0 -20 -111 -167
-154 -204 -55 -49 -91 -42 -125 25 -7 14 -8 28 -3 38 9 17 247 152 270 153 6
1 12 -5 12 -12z m-5064 -157 c15 -6 48 -28 73 -49 25 -20 96 -73 156 -116 138
-99 185 -137 185 -152 0 -13 -33 -26 -251 -102 -79 -27 -190 -66 -246 -85 -55
-20 -107 -34 -115 -31 -7 3 -30 32 -51 64 -20 32 -103 150 -183 262 l-145 204
28 6 c48 11 520 10 549 -1z m776 -59 c103 -34 194 -69 204 -75 14 -11 7 -16
-56 -40 -101 -37 -369 -116 -395 -116 -12 0 -69 35 -127 78 -58 42 -144 105
-192 140 -48 34 -84 67 -80 73 4 7 85 9 233 7 l226 -3 187 -64z m452 54 l208
-7 -128 -45 c-71 -25 -143 -48 -161 -50 -34 -5 -91 14 -213 70 l-75 35 40 4
c22 2 58 2 80 1 22 -1 134 -5 249 -8z m-1825 -85 c108 -144 276 -383 304 -431
32 -55 32 -55 -73 -97 -41 -17 -111 -47 -155 -67 -60 -27 -89 -35 -115 -32
-19 3 -93 33 -165 67 -316 151 -451 219 -466 237 -9 10 -26 61 -38 113 -11 52
-31 130 -43 173 -11 42 -19 80 -15 83 17 18 365 42 572 40 l130 -1 64 -85z
m2681 54 l65 -6 -39 -34 c-21 -18 -113 -81 -203 -140 -145 -93 -169 -105 -197
-100 -35 7 -310 104 -387 137 -27 12 -47 25 -44 29 6 10 207 74 330 105 81 21
107 23 250 19 88 -3 189 -7 225 -10z m-3506 -51 c24 -74 66 -236 66 -255 0
-10 -7 -18 -15 -18 -18 0 -135 58 -197 97 -53 34 -208 163 -208 174 0 16 173
46 277 48 l61 1 16 -47z m4021 26 c207 -12 235 -16 235 -33 0 -6 -24 -41 -53
-77 -75 -91 -257 -326 -292 -377 -17 -23 -39 -45 -50 -47 -12 -4 -124 36 -284
100 -299 120 -324 132 -318 148 4 12 375 263 432 292 22 12 47 14 95 10 36 -3
142 -10 235 -16z m640 -49 c256 -23 377 -39 387 -49 4 -3 -8 -56 -27 -116 -19
-61 -44 -142 -55 -181 -20 -71 -21 -72 -73 -97 -92 -43 -571 -244 -599 -251
-21 -5 -62 11 -190 75 -90 45 -165 83 -167 85 -11 11 89 148 307 423 l114 143
41 -6 c23 -3 141 -15 262 -26z m-5086 -71 c171 -90 238 -132 317 -196 198
-161 222 -185 226 -225 4 -34 -39 -35 -148 -3 -49 15 -116 35 -149 45 -114 33
-159 58 -212 118 -66 76 -208 262 -216 285 -21 57 43 49 182 -24z m-263 13
c13 -8 163 -206 182 -240 15 -27 16 -27 -55 -1 -73 27 -186 100 -208 133 -23
35 -12 72 28 96 36 22 38 23 53 12z m5999 -18 c61 -9 119 -21 130 -27 18 -9
15 -13 -30 -54 -72 -63 -172 -128 -257 -167 -111 -50 -118 -52 -118 -24 0 24
50 192 78 262 14 36 17 38 51 32 20 -3 86 -13 146 -22z m-2562 -65 c210 -73
293 -107 307 -124 8 -9 -25 -37 -137 -118 -82 -57 -197 -141 -257 -186 -59
-45 -114 -81 -121 -81 -8 0 -44 25 -82 56 -37 30 -135 109 -218 174 -227 181
-214 168 -190 186 18 13 93 38 380 127 44 14 95 25 113 26 18 1 111 -26 205
-60z m2967 -46 c0 -16 -71 -102 -207 -250 -61 -66 -86 -86 -130 -103 -69 -26
-404 -112 -411 -106 -2 3 -2 20 2 39 8 40 35 67 186 180 119 88 400 239 478
255 48 10 82 4 82 -15z m120 -40 c16 -9 33 -27 39 -40 10 -21 6 -29 -29 -67
-38 -41 -157 -105 -222 -120 l-28 -6 18 29 c35 58 167 220 180 220 8 1 27 -6
42 -16z m-3844 -81 c138 -99 439 -343 466 -377 18 -23 18 -23 -50 -78 -37 -30
-101 -85 -142 -121 l-75 -67 -63 7 c-57 5 -121 15 -387 60 -49 8 -126 21 -170
28 -44 8 -87 17 -96 20 -10 4 -32 35 -50 69 -18 34 -59 106 -91 159 -32 54
-58 102 -58 107 0 5 46 28 103 50 147 57 518 181 542 181 11 -1 43 -18 71 -38z
m1367 -58 c225 -86 439 -178 444 -190 4 -11 -23 -59 -120 -210 -29 -45 -57
-90 -62 -99 -12 -20 -103 -36 -325 -60 -80 -8 -194 -22 -253 -30 -175 -24
-154 -32 -306 114 -95 91 -132 134 -128 145 8 21 249 197 502 368 51 35 66 32
248 -38z m-3014 -105 c80 -39 182 -89 226 -110 44 -22 91 -47 104 -58 24 -18
23 -18 -55 -14 -96 5 -194 32 -255 71 -89 57 -208 182 -173 182 3 0 72 -32
153 -71z m-398 -74 c150 -46 174 -57 177 -88 4 -31 -44 -87 -75 -87 -47 0
-243 153 -243 189 0 18 52 13 141 -14z m1317 -67 c62 -98 102 -170 102 -188 0
-5 -11 -10 -23 -10 -42 0 -245 49 -299 72 -137 58 -163 83 -111 108 41 20 257
109 264 110 4 0 34 -42 67 -92z m3631 76 c-18 -21 -164 -135 -209 -162 -20
-11 -56 -23 -80 -26 -25 -3 -87 -10 -138 -17 -51 -6 -96 -8 -99 -5 -3 3 11 13
33 21 21 9 50 22 64 29 14 8 97 44 185 80 88 37 174 73 190 81 17 7 38 14 49
14 16 1 17 -1 5 -15z m-947 -78 c87 -32 228 -104 228 -116 0 -25 -191 -97
-306 -115 -51 -7 -108 -17 -128 -20 -27 -6 -36 -4 -36 6 0 23 161 269 176 269
2 0 32 -11 66 -24z m1328 -38 c0 -19 -97 -105 -153 -136 -92 -51 -115 -57
-137 -37 -27 24 -37 82 -18 101 12 12 183 61 268 77 14 2 28 5 33 6 4 0 7 -4
7 -11z m-4368 -134 c315 -69 631 -215 579 -267 -12 -12 -346 -13 -428 -1 -55
8 -270 142 -378 237 l-39 34 29 16 c42 23 56 21 237 -19z m1679 -1 c65 -54
151 -135 172 -160 17 -22 17 -22 -20 -33 -95 -27 -204 -32 -311 -14 -56 10
-110 23 -120 31 -15 12 -12 18 43 70 60 57 171 143 184 143 4 0 27 -17 52 -37z
m-1973 -60 c42 -27 163 -118 202 -152 l35 -30 -42 -1 c-62 0 -186 26 -232 49
-66 34 -74 69 -30 125 24 31 31 32 67 9z m3786 -6 c19 -14 14 -37 -12 -54
-140 -90 -306 -190 -342 -206 -41 -18 -59 -19 -225 -14 -229 9 -257 13 -253
41 6 38 92 81 333 161 101 34 351 82 436 84 25 1 53 -5 63 -12z m-2695 -88
c279 -51 375 -70 380 -74 2 -3 -1 -11 -8 -18 -8 -8 -57 -12 -164 -12 l-152 0
-106 51 c-164 80 -154 90 50 53z m2803 -6 c50 -58 44 -94 -20 -121 -49 -20
-292 -58 -292 -45 0 1 15 13 34 25 18 13 78 53 132 91 54 37 106 67 115 67 9
0 23 -8 31 -17z m-991 -36 c-22 -22 -260 -107 -298 -107 -39 1 -249 55 -237
62 5 3 50 9 99 12 50 4 162 17 250 30 161 22 206 23 186 3z m-861 -102 c244
-25 283 -34 301 -67 14 -26 -1 -41 -56 -56 -22 -6 -96 -27 -165 -47 -190 -56
-232 -54 -450 18 -96 32 -184 65 -195 73 -20 15 -20 15 3 35 35 28 81 37 247
47 83 5 155 10 160 10 6 1 75 -5 155 -13z m-1127 -82 c5 -17 6 -44 3 -59 -7
-26 -7 -27 -85 -22 -65 4 -88 10 -137 37 -33 18 -70 43 -82 55 l-24 21 54 5
c29 3 100 3 158 0 l104 -5 9 -32z m2252 -27 l80 -13 -88 -43 c-70 -34 -101
-44 -157 -48 -88 -6 -105 5 -96 62 4 21 9 43 12 48 8 12 156 9 249 -6z m-1619
-62 c103 -33 168 -64 158 -74 -17 -15 -140 -40 -198 -40 -101 0 -141 39 -116
115 12 35 14 36 46 30 19 -3 69 -17 110 -31z m872 -9 c7 -14 12 -42 12 -61 0
-42 -24 -54 -110 -54 -54 0 -182 16 -220 27 -23 7 10 23 145 69 145 51 158 52
173 19z"/>
<path d="M6056 7998 c-14 -20 -16 -259 -16 -2339 0 -1275 3 -2324 6 -2333 9
-23 61 -21 74 3 7 14 10 750 10 2310 l0 2291 -22 1 c-22 1 -22 1 2 8 19 6 24
13 22 31 -6 51 -49 67 -76 28z"/>
<path d="M2918 7616 c-50 -15 -95 -60 -124 -123 -13 -28 -29 -55 -34 -58 -15
-9 -46 -75 -55 -115 -4 -19 -19 -53 -33 -75 -26 -41 -35 -77 -51 -198 -5 -37
-15 -76 -24 -85 -8 -9 -18 -38 -21 -64 -9 -58 -9 -405 -1 -418 3 -6 19 -10 36
-10 l29 0 0 -359 c0 -198 5 -451 11 -563 6 -112 12 -241 13 -288 1 -85 1 -85
-25 -88 -40 -5 -57 -31 -61 -92 l-3 -55 -105 -5 -105 -5 -3 -104 c-2 -67 1
-108 9 -117 10 -12 239 -14 1505 -14 l1493 0 6 33 c3 17 5 70 3 117 l-3 85
-187 3 -188 2 -13 28 c-8 15 -17 52 -21 82 -4 30 -14 76 -23 103 l-17 47 -72
0 -73 0 6 108 c3 59 12 119 19 133 7 14 15 54 19 90 4 35 15 108 26 161 10 53
19 136 19 185 0 116 17 173 56 187 50 19 62 30 76 71 17 49 9 92 -23 126 -51
55 -92 62 -157 24 -46 -26 -40 -27 -147 19 -53 23 -89 34 -127 41 -21 3 -38
10 -38 14 0 4 -39 21 -87 36 -49 15 -92 32 -97 36 -6 5 -17 9 -25 9 -8 0 -64
20 -125 44 -61 24 -131 49 -156 56 -25 8 -49 17 -55 21 -18 13 -141 59 -158
59 -8 0 -51 14 -94 31 -43 17 -112 44 -153 61 -41 16 -88 33 -105 38 -16 4
-52 17 -78 29 -27 11 -59 21 -72 21 -13 0 -26 4 -30 9 -3 5 -19 13 -36 16 -40
9 -116 43 -124 55 -3 6 -19 10 -34 10 -15 0 -36 7 -47 15 -10 8 -27 15 -36 15
-28 0 -22 36 21 125 22 44 43 94 47 110 4 17 11 36 17 43 20 25 57 127 63 174
5 37 2 54 -14 80 -32 52 -64 76 -107 80 -22 3 -47 7 -55 10 -8 3 -32 1 -52 -6z
m131 -79 c14 -7 28 -24 32 -38 11 -41 -10 -129 -42 -182 -16 -26 -29 -51 -29
-56 0 -5 -7 -14 -15 -21 -8 -7 -15 -28 -15 -46 0 -19 -4 -34 -10 -34 -5 0 -14
-19 -20 -42 -7 -22 -17 -51 -24 -62 -7 -12 -24 -50 -37 -86 -13 -36 -35 -83
-50 -105 -15 -22 -30 -56 -34 -75 -4 -19 -14 -49 -23 -66 -35 -65 -70 -140
-76 -161 -7 -23 -53 -40 -68 -25 -6 6 -8 87 -6 198 3 154 7 195 21 219 9 17
17 44 17 62 0 18 9 55 20 83 11 28 20 59 20 68 0 10 20 58 45 106 25 49 45 97
45 107 0 23 76 134 109 161 21 16 34 18 71 13 25 -4 56 -12 69 -18z m-77 -609
c14 -14 91 -42 145 -53 18 -3 58 -20 90 -36 32 -16 68 -31 82 -34 13 -2 29 -9
35 -15 5 -5 21 -10 34 -10 23 0 86 -23 168 -61 23 -10 50 -19 61 -19 37 0 108
-31 125 -54 16 -22 16 -31 -8 -167 -25 -140 -41 -212 -69 -294 -8 -22 -23 -96
-35 -165 -12 -69 -26 -136 -32 -150 -12 -31 -35 -142 -48 -235 -14 -100 -42
-208 -56 -220 -7 -5 -15 -30 -17 -55 -12 -112 -31 -210 -51 -270 l-21 -65
-287 -3 -288 -2 0 69 c0 74 -5 81 -59 81 l-28 0 -7 647 c-7 621 -7 648 11 660
43 31 51 44 68 99 9 33 37 98 61 145 24 48 44 94 44 104 0 16 56 115 65 115 2
0 10 -6 17 -12z m963 -355 c49 -20 99 -42 110 -50 11 -7 31 -13 45 -13 14 -1
43 -9 65 -20 22 -11 47 -19 55 -20 9 0 25 -6 36 -14 11 -8 48 -22 83 -31 71
-18 172 -61 182 -76 3 -6 26 -13 50 -16 24 -3 56 -12 71 -19 15 -8 34 -11 42
-8 9 3 16 2 16 -2 0 -5 18 -18 40 -28 29 -14 40 -25 40 -42 0 -27 45 -84 67
-84 12 0 14 -10 8 -62 -4 -35 -14 -85 -22 -113 -18 -64 -19 -66 -38 -280 -9
-99 -20 -205 -26 -235 -22 -126 -30 -164 -35 -172 -3 -4 -33 -8 -68 -8 -49 0
-67 -4 -80 -19 -23 -25 -53 -114 -61 -183 l-7 -58 -161 0 c-197 0 -197 0 -197
105 0 52 -4 76 -15 85 -8 7 -15 29 -15 49 0 21 -9 71 -20 112 -11 41 -20 89
-20 107 0 18 -4 40 -9 50 -10 20 -28 86 -43 157 -6 28 -16 68 -24 90 -7 22
-16 60 -19 85 -9 72 -35 188 -60 275 -13 44 -29 112 -35 150 -18 108 -40 218
-51 243 -11 27 -12 82 -2 82 4 0 48 -16 98 -37z m-120 -233 c17 -32 49 -172
66 -285 6 -38 17 -89 25 -113 22 -67 19 -128 -9 -146 -12 -9 -44 -36 -71 -61
-27 -25 -55 -45 -62 -45 -19 0 -18 86 1 255 8 72 17 196 21 278 4 81 8 147 10
147 2 0 10 -13 19 -30z m1115 -44 c6 -8 10 -25 8 -38 -3 -20 -9 -23 -43 -23
-38 0 -40 1 -38 29 3 44 47 63 73 32z m-1224 -293 c-3 -49 -9 -152 -13 -231
-6 -137 -7 -144 -31 -160 -13 -9 -32 -25 -43 -34 -10 -10 -29 -20 -43 -24 -23
-5 -24 -4 -16 28 4 18 17 61 29 95 11 34 21 81 21 104 0 22 6 55 14 72 8 18
20 65 26 106 10 72 35 131 54 131 5 0 6 -35 2 -87z m244 -225 c1 -14 31 -172
39 -203 5 -22 18 -80 29 -130 12 -49 25 -108 31 -130 6 -22 11 -54 11 -71 0
-17 7 -37 15 -44 17 -14 22 -130 5 -130 -8 0 -110 76 -210 157 -14 11 -28 22
-115 84 l-30 22 2 106 c5 179 11 210 38 217 13 3 26 12 29 20 3 8 12 14 20 14
8 0 16 3 18 8 13 29 117 99 118 80z m-274 -300 c-4 -45 -9 -84 -12 -87 -6 -7
-63 24 -99 54 l-30 25 28 22 c15 13 40 33 55 45 15 12 36 23 46 23 18 0 18 -6
12 -82z m-61 -95 l55 -38 -7 -140 c-8 -196 -1 -185 -123 -185 -113 0 -115 2
-80 75 11 22 19 59 20 83 0 23 7 59 16 80 8 20 18 65 21 100 7 76 19 79 98 25z
m148 -122 c15 -8 27 -18 27 -23 0 -4 6 -8 13 -8 7 0 35 -18 62 -41 27 -22 58
-45 69 -51 48 -25 126 -90 126 -103 0 -13 -28 -15 -175 -15 l-175 0 0 123 c0
114 4 143 19 134 3 -1 18 -9 34 -16z m1124 -130 c7 -41 11 -76 9 -78 -2 -2
-71 -2 -153 -1 l-150 3 15 65 c8 36 16 71 18 78 3 10 33 12 126 10 l122 -3 13
-74z m-2139 -58 l3 -53 -60 0 -61 0 0 48 c0 27 3 52 7 56 4 4 30 6 58 4 l50
-3 3 -52z m2558 -137 c3 -13 4 -37 2 -52 l-3 -29 -1430 0 -1430 0 -3 39 c-2
21 -1 44 2 52 5 12 221 14 1430 14 l1426 0 6 -24z"/>
<path d="M8425 6760 c-71 -5 -219 -6 -327 -3 -130 4 -198 2 -198 -4 0 -6 24
-13 53 -16 28 -3 68 -13 87 -23 19 -9 42 -20 50 -24 8 -4 23 -21 32 -40 9 -18
22 -38 27 -43 14 -14 14 -1540 1 -1607 -18 -92 -23 -106 -45 -127 -16 -16 -52
-28 -117 -41 -69 -14 -94 -23 -96 -36 -3 -15 30 -16 392 -16 217 0 397 4 400
8 11 19 -14 30 -84 36 -177 14 -228 36 -266 113 -18 36 -19 74 -19 843 0 930
-5 875 88 926 71 39 207 46 300 17 34 -11 81 -26 105 -33 23 -7 42 -16 42 -19
0 -3 19 -19 43 -35 62 -43 121 -123 157 -213 18 -43 39 -93 47 -112 32 -72 -1
-276 -70 -435 -12 -27 -49 -76 -82 -110 -85 -86 -197 -135 -350 -152 l-110
-12 132 -1 c142 -1 194 10 306 65 27 13 54 24 61 24 19 0 121 92 172 154 24
30 50 73 59 97 9 24 26 71 38 104 19 52 22 78 20 198 l-1 139 -42 86 c-31 64
-57 102 -101 144 -33 32 -65 58 -72 58 -7 0 -18 5 -24 11 -18 18 -110 46 -208
63 -120 21 -243 26 -400 16z"/>
</g>
</svg>
