<?xml version="1.0" encoding="utf-8"?>
<!-- Generator: Adobe Illustrator 17.0.0, SVG Export Plug-In . SVG Version: 6.00 Build 0)  -->
<!DOCTYPE svg PUBLIC "-//W3C//DTD SVG 1.1//EN" "http://www.w3.org/Graphics/SVG/1.1/DTD/svg11.dtd">
<svg version="1.1" id="Warstwa_1" xmlns="http://www.w3.org/2000/svg" xmlns:xlink="http://www.w3.org/1999/xlink" x="0px" y="0px"
	 width="173.2px" height="200px" viewBox="0 0 173.2 200" enable-background="new 0 0 173.2 200" xml:space="preserve">
	<g transform="translate(0.000000,411.000000) scale(0.100000,-0.100000)"
	fill="#000000" stroke="none">
	<path d="M2112 4028 c-7 -7 -12 -27 -12 -44 0 -31 -2 -33 -44 -39 -64 -10 -80
	-4 -86 30 -4 26 -10 30 -43 33 -26 2 -59 -6 -105 -27 -40 -17 -92 -32 -130
	-35 -61 -6 -114 -25 -128 -47 -3 -6 0 -22 7 -36 12 -22 11 -26 -11 -43 -14
	-10 -42 -23 -63 -28 -35 -9 -38 -8 -43 14 -13 52 -70 39 -154 -33 -25 -21 -75
	-51 -111 -67 -71 -29 -116 -67 -105 -88 3 -7 11 -21 18 -30 14 -19 -3 -43 -55
	-80 l-28 -20 -24 26 c-19 21 -29 25 -42 17 -26 -14 -65 -59 -98 -112 -15 -25
	-43 -56 -61 -69 -38 -25 -104 -95 -104 -109 0 -12 25 -38 42 -44 10 -3 6 -17
	-12 -52 -31 -61 -52 -75 -75 -52 -9 9 -23 17 -30 17 -23 0 -55 -50 -77 -124
	-11 -39 -32 -84 -45 -100 -32 -39 -63 -100 -63 -126 0 -15 10 -25 31 -33 29
	-11 30 -14 25 -51 -9 -55 -35 -101 -49 -87 -6 6 -22 11 -35 11 -34 0 -53 -53
	-52 -143 1 -51 -5 -88 -19 -127 -12 -30 -21 -72 -21 -92 0 -33 3 -38 27 -44
	52 -11 53 -12 53 -59 0 -59 -13 -85 -40 -78 -28 7 -50 -14 -50 -47 0 -15 10
	-59 21 -96 16 -53 20 -84 16 -130 -7 -70 6 -129 29 -138 9 -3 26 -3 39 0 19 5
	27 0 39 -25 9 -16 16 -45 16 -64 0 -30 -4 -35 -29 -40 -51 -11 -45 -59 20
	-153 18 -27 39 -78 50 -122 26 -103 52 -129 99 -100 23 15 50 -6 75 -59 17
	-35 17 -36 -10 -58 -40 -31 -28 -62 45 -127 34 -29 75 -78 92 -108 16 -30 40
	-65 51 -78 25 -27 63 -29 77 -2 14 27 20 26 68 -16 45 -38 51 -56 27 -80 -34
	-35 -5 -70 95 -116 38 -17 87 -51 116 -80 39 -38 59 -50 85 -51 26 -2 36 3 44
	20 12 28 27 28 81 4 50 -23 58 -34 44 -61 -26 -48 10 -75 119 -90 42 -6 91
	-22 135 -44 94 -49 136 -46 136 11 0 21 5 23 46 23 64 0 84 -13 84 -55 0 -53
	54 -69 155 -45 29 7 63 5 124 -7 75 -15 86 -15 110 -2 20 12 25 22 24 44 -3
	37 10 45 75 45 45 0 52 -3 52 -19 0 -11 8 -27 17 -36 22 -22 64 -15 145 24 47
	23 77 31 118 31 32 0 69 7 90 18 32 16 35 20 32 59 -2 40 0 42 41 62 57 27 75
	27 83 -4 13 -52 65 -39 154 40 28 25 56 45 63 45 26 0 136 60 147 80 10 18 8
	26 -11 46 l-23 24 34 35 c46 47 66 52 96 24 23 -22 27 -23 52 -8 15 8 47 45
	72 82 25 36 69 85 98 108 29 23 59 54 67 70 14 26 14 30 -5 49 -11 11 -24 20
	-29 20 -17 0 9 56 38 84 25 24 32 26 51 16 51 -27 85 14 118 141 5 19 28 59
	50 89 42 55 59 100 47 120 -4 6 -18 16 -32 21 -23 9 -25 14 -20 50 3 22 12 51
	21 64 14 22 19 23 42 13 23 -11 29 -10 45 11 15 18 19 40 19 103 0 61 6 98 25
	150 37 103 31 141 -22 144 -23 1 -29 6 -35 36 -4 19 -4 48 1 64 6 23 14 30 40
	32 48 5 55 34 31 128 -12 48 -20 110 -20 163 0 104 -15 136 -56 121 -14 -6
	-27 -10 -29 -10 -12 0 -35 63 -35 93 0 29 5 37 31 47 28 12 31 17 26 47 -3 19
	-24 61 -46 93 -24 37 -44 83 -52 118 -14 65 -31 103 -54 122 -14 11 -21 11
	-45 -4 l-29 -17 -31 42 c-37 51 -38 72 -5 93 14 9 25 24 25 33 0 10 -32 48
	-70 86 -39 38 -79 86 -90 108 -26 49 -78 109 -96 109 -8 0 -23 -9 -35 -21 -19
	-19 -24 -20 -46 -8 -14 8 -37 29 -51 47 l-26 34 24 18 c39 29 16 60 -81 109
	-46 23 -89 51 -96 61 -21 29 -87 78 -116 85 -23 6 -29 2 -44 -23 -17 -29 -17
	-29 -57 -15 -23 7 -50 20 -61 29 -16 12 -18 18 -7 34 6 11 12 27 12 35 0 25
	-58 53 -124 60 -39 4 -84 18 -126 39 -91 46 -115 51 -140 26 -11 -11 -20 -26
	-20 -34 0 -22 -51 -29 -91 -12 -29 12 -34 19 -34 47 0 52 -35 65 -135 48 -59
	-9 -88 -9 -123 -1 -59 15 -130 15 -145 0z m121 -17 c14 -5 5 -11 -38 -25 -60
	-19 -83 -12 -72 18 7 17 75 21 110 7z m264 -17 c1 -5 -1 -15 -6 -23 -7 -12
	-17 -11 -60 5 -28 10 -51 21 -51 25 0 20 110 13 117 -7z m-549 -22 c3 -21 0
	-22 -65 -22 -73 1 -71 8 7 37 43 15 54 12 58 -15z m448 -4 c70 -24 81 -42 33
	-52 -66 -13 -257 -1 -276 17 -10 11 2 18 59 38 71 24 108 23 184 -3z m367 -15
	c15 -7 27 -16 27 -18 0 -3 -27 -5 -60 -5 -46 0 -62 4 -67 16 -13 35 38 38 100
	7z m-1053 -26 c0 -9 -90 -67 -103 -67 -8 0 -18 8 -21 17 -8 21 15 36 69 44 22
	3 43 7 48 7 4 1 7 1 7 -1z m214 -3 c22 -9 12 -21 -38 -43 -85 -37 -236 -66
	-246 -46 -3 6 24 29 58 53 61 40 67 42 137 42 40 0 80 -3 89 -6z m213 -23 c7
	-4 -30 -13 -83 -20 -98 -13 -129 -9 -78 9 16 5 36 14 44 20 15 10 94 4 117 -9z
	m781 -41 c62 -43 71 -53 52 -65 -25 -15 -264 59 -282 88 -14 23 7 29 86 25 76
	-4 85 -7 144 -48z m-287 19 c23 -11 39 -22 37 -25 -6 -6 -157 22 -188 34 -21
	9 -14 11 43 11 50 1 79 -4 108 -20z m353 7 c43 -18 52 -34 33 -54 -15 -14 -20
	-12 -61 22 -26 21 -46 39 -46 42 0 9 42 3 74 -10z m-598 -21 c2 -5 -16 -24
	-40 -42 l-44 -32 -41 35 c-22 20 -41 40 -41 45 0 13 163 7 166 -6z m-154 -41
	c26 -25 45 -50 42 -55 -3 -5 -48 -39 -101 -75 l-95 -67 -52 18 c-69 25 -176
	74 -176 82 0 5 68 112 73 114 9 4 191 27 222 28 35 1 46 -5 87 -45z m341 21
	c54 -9 104 -18 111 -21 6 -2 26 -31 44 -64 l33 -59 -34 -15 c-19 -8 -73 -26
	-119 -42 l-85 -27 -35 24 c-62 43 -157 124 -157 134 0 19 103 94 124 90 11 -2
	64 -11 118 -20z m-704 -48 c-49 -70 -46 -69 -100 -41 -27 13 -49 29 -49 34 0
	15 143 52 163 42 4 -2 -2 -18 -14 -35z m-439 4 c0 -25 -8 -30 -67 -37 l-48 -6
	35 31 c41 35 80 41 80 12z m1423 -17 c21 -10 37 -21 37 -25 0 -9 -101 -50
	-110 -44 -12 7 -59 93 -54 98 8 8 90 -11 127 -29z m-1223 -1 c-8 -3 -48 -21
	-89 -40 -80 -36 -101 -37 -56 -1 48 39 69 47 115 47 25 0 38 -3 30 -6z m1628
	-39 l37 -35 -39 6 c-56 9 -86 23 -86 38 0 40 42 35 88 -9z m-1511 -1 c29 -16
	53 -31 53 -35 0 -8 -80 -114 -122 -160 l-33 -37 -117 13 c-65 7 -120 15 -123
	18 -3 3 4 34 15 70 l20 65 102 46 c57 24 114 45 128 46 14 1 48 -11 77 -26z
	m647 -52 c48 -39 87 -73 86 -78 -1 -15 -164 -64 -195 -58 -55 10 -166 57 -162
	68 3 11 166 135 178 136 4 1 46 -30 93 -68z m657 58 c33 -11 99 -65 99 -81 0
	-4 -40 13 -90 38 -49 24 -90 47 -90 49 0 9 47 5 81 -6z m-1621 -8 c0 -29 -209
	-161 -255 -161 -16 0 -15 3 2 29 39 62 93 110 136 121 23 6 47 13 52 15 21 7
	65 5 65 -4z m1620 -49 l114 -57 17 -68 c9 -37 14 -69 10 -71 -4 -3 -61 -8
	-127 -12 l-120 -7 -60 84 c-81 114 -87 126 -72 136 14 9 110 51 118 51 3 0 57
	-25 120 -56z m229 -4 c55 -20 71 -31 112 -83 55 -67 58 -75 29 -75 -45 0 -250
	140 -250 171 0 15 42 10 109 -13z m-1343 -28 c54 -21 100 -43 102 -49 2 -5
	-32 -33 -75 -61 l-78 -52 -94 6 c-52 3 -96 8 -99 11 -6 5 129 185 139 185 4 0
	51 -18 105 -40z m-744 3 c-32 -44 -60 -66 -77 -59 -27 10 -13 39 30 63 56 31
	71 30 47 -4z m1647 -67 c89 -123 91 -116 -29 -116 l-103 0 -79 57 c-43 31 -75
	60 -71 64 9 9 189 76 209 78 7 0 39 -37 73 -83z m-1444 6 c-9 -28 -20 -54 -25
	-57 -6 -4 -35 -1 -66 5 -54 11 -55 12 -38 31 17 19 134 82 141 76 1 -2 -4 -27
	-12 -55z m2056 16 c43 -24 55 -44 38 -64 -18 -21 -26 -17 -59 28 -46 63 -41
	71 21 36z m-167 -50 c31 -23 56 -45 56 -49 0 -13 -42 -21 -86 -17 -38 3 -39 4
	-50 56 -11 47 -10 52 6 52 10 0 43 -19 74 -42z m-1117 7 c38 -15 72 -30 76
	-34 5 -5 -27 -18 -70 -30 -77 -20 -159 -25 -216 -12 -27 6 -26 8 45 53 40 26
	79 48 85 48 7 0 43 -11 80 -25z m420 -29 c91 -67 90 -69 -23 -64 -72 3 -115
	10 -157 27 -32 13 -55 26 -52 29 10 10 127 50 150 51 12 1 48 -19 82 -43z
	m-1407 -4 c0 -4 -34 -36 -75 -70 -41 -34 -75 -60 -75 -57 0 14 30 62 52 82 13
	12 39 29 58 37 42 18 40 18 40 8z m130 -13 c47 -10 51 -13 46 -34 -10 -41 -66
	-182 -79 -199 -12 -16 -65 -30 -224 -59 l-33 -6 0 73 0 74 98 80 c54 45 107
	81 119 81 12 1 45 -4 73 -10z m1032 -17 c26 -10 50 -21 54 -25 4 -4 -38 -7
	-94 -7 -56 0 -102 4 -102 9 0 7 53 30 90 40 3 0 26 -7 52 -17z m-1364 -4 c21
	-21 13 -32 -38 -60 -59 -33 -65 -21 -19 35 33 40 39 43 57 25z m628 -15 c8 -3
	14 -8 14 -12 0 -3 -27 -38 -59 -77 l-59 -71 -97 -23 c-53 -12 -97 -21 -99 -19
	-2 2 15 53 38 112 l41 109 104 -7 c57 -4 109 -9 117 -12z m208 -13 l31 0 -25
	-20 c-53 -42 -128 -79 -193 -96 -37 -9 -70 -14 -74 -11 -3 4 20 36 52 73 l59
	66 59 -6 c33 -3 74 -6 91 -6z m1617 -37 c30 -26 74 -67 98 -90 l43 -43 -7 -68
	c-4 -37 -8 -68 -9 -69 -4 -5 -238 55 -246 63 -15 16 -80 228 -73 235 5 4 24 9
	43 12 90 10 96 9 151 -40z m37 28 c20 -10 45 -27 54 -37 19 -22 41 -74 30 -74
	-13 1 -147 130 -134 130 7 0 29 -9 50 -19z m-1471 -5 c1 -1 -41 -14 -94 -29
	-53 -15 -98 -25 -100 -24 -1 2 16 18 40 35 39 29 46 31 97 26 30 -4 56 -7 57
	-8z m643 -53 c228 -71 237 -76 391 -180 186 -126 180 -121 274 -236 44 -54 99
	-122 123 -150 23 -29 47 -68 53 -87 7 -19 39 -96 72 -170 42 -94 63 -153 67
	-195 4 -33 15 -128 25 -211 18 -151 18 -152 -3 -265 -12 -63 -26 -149 -32
	-192 -10 -66 -25 -106 -99 -257 -81 -165 -95 -187 -177 -277 -175 -192 -193
	-209 -271 -253 -43 -24 -107 -63 -143 -86 -92 -60 -114 -68 -310 -120 l-175
	-46 -206 5 -206 5 -164 52 c-218 68 -193 56 -374 178 l-160 108 -131 160
	c-118 144 -134 169 -173 264 -24 58 -57 134 -74 170 -24 53 -34 97 -53 245
	-13 99 -24 199 -24 223 0 24 14 125 30 225 l31 182 90 185 c78 158 100 194
	153 250 35 36 93 100 130 143 65 73 104 101 264 192 10 6 47 29 83 52 53 34
	89 48 211 78 81 19 164 42 185 50 30 11 81 13 243 9 l205 -5 145 -46z m588 0
	c48 -139 56 -163 51 -167 -7 -7 -178 41 -195 55 -16 13 -114 144 -114 152 0 7
	64 13 166 15 l71 2 21 -57z m-482 16 c51 -40 53 -42 29 -36 -110 30 -175 51
	-175 58 0 5 24 9 54 9 44 0 60 -5 92 -31z m243 -39 c30 -39 52 -72 50 -75 -7
	-6 -119 24 -152 42 -45 23 -127 84 -127 94 0 5 40 9 88 9 l88 0 53 -70z
	m-1989 44 c0 -36 -174 -224 -209 -224 -17 0 -14 16 18 83 31 69 51 89 119 128
	55 32 72 35 72 13z m2662 -1 c18 -21 51 -83 43 -83 -2 0 -27 14 -55 31 -43 26
	-48 33 -40 50 13 24 32 24 52 2z m36 -103 c29 -21 52 -49 67 -83 56 -122 40
	-139 -46 -49 -84 87 -136 163 -124 182 7 12 42 -5 103 -50z m-2710 -101 c-18
	-12 -108 -11 -108 0 0 5 26 35 58 68 l57 58 3 -59 c2 -41 -1 -62 -10 -67z
	m595 83 c-39 -33 -133 -86 -133 -75 1 4 15 25 33 46 29 34 56 46 127 55 3 1
	-9 -11 -27 -26z m-808 -51 c-23 -46 -28 -50 -45 -41 -11 6 -20 17 -20 24 0 18
	83 92 87 79 3 -7 -7 -34 -22 -62z m685 32 c0 -5 -23 -34 -51 -65 -47 -53 -172
	-138 -185 -125 -3 3 9 39 26 81 29 69 35 77 68 86 114 31 142 36 142 23z
	m1583 -4 c26 -7 45 -22 64 -50 14 -22 24 -42 21 -44 -2 -3 -40 20 -84 50 -79
	55 -79 66 -1 44z m644 -102 c8 -16 12 -31 9 -34 -3 -3 -29 -2 -58 3 -53 9 -53
	9 -56 48 -2 22 -1 50 3 64 l6 25 40 -39 c23 -21 47 -52 56 -67z m-469 54 c41
	-11 76 -21 78 -24 2 -2 18 -41 34 -85 35 -96 30 -100 -53 -42 -58 40 -107 90
	-140 141 -23 35 -19 36 81 10z m-1994 -73 c-20 -46 -38 -87 -40 -93 -5 -10
	-104 -69 -157 -93 l-29 -13 6 88 c10 137 14 152 39 158 55 13 164 33 189 34
	l27 1 -35 -82z m2613 50 c27 -26 45 -68 29 -68 -2 0 -11 -3 -20 -6 -12 -5 -21
	6 -36 37 -34 76 -25 88 27 37z m-2848 -138 c-6 -66 -17 -121 -24 -130 -16 -18
	-212 -116 -219 -109 -2 2 -12 33 -22 70 l-17 65 71 106 c78 117 62 106 182
	121 14 2 28 0 32 -3 5 -3 3 -57 -3 -120z m2430 105 c31 -7 74 -18 96 -22 33
	-7 41 -14 46 -38 9 -43 10 -215 2 -215 -8 0 -110 62 -151 91 -19 14 -82 159
	-82 189 0 14 24 12 89 -5z m-2606 -17 c-23 -39 -96 -138 -104 -143 -34 -22 19
	94 60 128 34 28 58 36 44 15z m2913 -49 c12 -10 119 -184 128 -209 7 -20 -28
	-133 -43 -138 -11 -4 -206 102 -214 116 -3 4 -8 63 -12 131 l-7 124 68 -7 c38
	-4 73 -11 80 -17z m86 -46 c35 -37 64 -101 55 -126 -2 -6 -15 6 -29 28 -86
	138 -94 169 -26 98z m-2571 -32 c-28 -32 -58 -64 -67 -72 -16 -13 -17 -11 -10
	16 11 45 32 73 74 94 57 31 58 26 3 -38z m-602 35 c10 -12 5 -23 -25 -55 -44
	-50 -58 -52 -48 -9 14 66 48 95 73 64z m2689 -41 c15 -8 33 -18 40 -23 15 -10
	55 -112 44 -112 -5 0 -31 28 -59 63 -74 92 -77 101 -25 72z m-2672 -67 c-29
	-83 -105 -218 -123 -218 -13 0 -15 10 -9 73 8 79 18 98 84 170 57 60 74 51 48
	-25z m494 42 c0 -44 -156 -267 -174 -249 -3 3 -1 44 5 92 l12 87 66 39 c68 41
	91 48 91 31z m2834 -22 c17 -28 29 -88 17 -88 -5 0 -25 20 -45 44 -33 41 -35
	46 -19 55 26 15 31 14 47 -11z m-482 -60 c37 -24 70 -50 72 -58 11 -37 18
	-170 9 -170 -17 0 -104 110 -128 162 -28 61 -40 108 -30 108 5 0 39 -19 77
	-42z m511 -78 c9 -14 19 -60 23 -109 7 -81 6 -83 -13 -73 -40 22 -133 242
	-118 280 5 14 14 9 49 -28 23 -25 50 -56 59 -70z m-3303 40 c7 -28 10 -56 7
	-63 -5 -14 -95 -52 -103 -44 -6 6 30 101 51 133 23 35 32 30 45 -26z m260 18
	c0 -7 -6 -53 -14 -101 l-13 -88 -69 -70 c-38 -38 -71 -69 -74 -69 -9 0 -52
	234 -43 238 4 1 49 24 98 51 95 52 115 59 115 39z m-466 -100 c-4 -29 -10 -57
	-15 -62 -12 -13 -39 1 -39 20 0 20 41 94 52 94 5 0 6 -24 2 -52z m3269 -45
	c20 -13 37 -25 37 -27 0 -16 -53 -213 -59 -219 -5 -5 -38 25 -74 65 l-65 73
	-7 104 -8 104 69 -38 c38 -21 86 -49 107 -62z m142 45 c31 -68 40 -108 26
	-108 -6 0 -31 10 -57 22 -45 22 -46 23 -40 62 8 45 22 76 37 76 6 0 21 -24 34
	-52z m-3162 -104 c9 -49 20 -103 23 -121 6 -29 1 -37 -81 -115 -48 -46 -92
	-83 -98 -83 -9 0 -53 61 -73 103 -7 14 50 213 70 245 12 20 113 68 131 63 6
	-1 18 -43 28 -92z m285 67 c-20 -53 -75 -161 -82 -161 -5 0 -6 23 -2 53 5 40
	14 59 39 84 31 31 52 42 45 24z m3058 -42 c19 -37 18 -65 -3 -73 -24 -9 -30 2
	-37 68 -6 53 -5 58 9 46 9 -8 23 -26 31 -41z m-3531 -11 c-2 -7 -16 -51 -32
	-98 l-28 -85 -3 53 c-3 44 2 61 25 98 27 42 47 59 38 32z m3339 -21 l59 -32
	34 -124 34 -124 -38 -54 c-21 -30 -40 -56 -43 -58 -4 -2 -46 36 -95 85 l-89
	89 29 118 c15 65 30 121 32 126 7 11 14 9 77 -26z m-312 -42 c12 -16 10 -111
	-2 -99 -10 10 -70 149 -70 162 0 6 59 -45 72 -63z m-2671 -89 c-11 -61 -60
	-178 -80 -190 -12 -8 -16 9 -29 104 l-9 64 61 64 c70 73 76 69 57 -42z m3104
	41 c19 -33 25 -58 25 -102 0 -77 -13 -62 -39 47 -29 119 -27 124 14 55z m-285
	-146 c-1 -32 -26 -150 -34 -158 -3 -3 -19 23 -36 59 -31 65 -50 152 -50 218
	l1 35 59 -64 c43 -45 60 -71 60 -90z m-3310 103 c0 -22 -43 -103 -52 -98 -14
	9 -9 78 7 101 16 23 45 21 45 -3z m40 -72 c0 -107 -39 -267 -64 -259 -17 5
	-34 146 -22 182 15 49 67 135 77 129 5 -3 9 -26 9 -52z m333 -77 l14 -90 -40
	-80 c-22 -44 -44 -86 -50 -93 -8 -10 -23 12 -64 90 -29 57 -53 108 -53 113 0
	15 164 164 172 157 3 -4 13 -47 21 -97z m3365 9 l-3 -49 -27 52 c-26 48 -27
	53 -10 62 28 16 44 -9 40 -65z m-3617 -11 l30 -48 -42 -37 c-23 -21 -45 -38
	-50 -38 -5 0 -9 18 -9 41 0 50 19 129 31 129 5 0 23 -21 40 -47z m3379 -137
	c0 -5 -26 -53 -57 -107 -66 -114 -64 -114 -116 4 -37 85 -37 76 -6 226 l11 54
	84 -84 c46 -46 84 -88 84 -93z m202 113 c16 -31 27 -71 28 -95 0 -50 -20 -154
	-30 -154 -25 0 -38 51 -49 190 -12 139 2 155 51 59z m-3252 -76 c-7 -43 -15
	-82 -18 -88 -8 -13 -20 30 -21 75 -1 34 34 108 46 96 3 -3 0 -40 -7 -83z
	m3164 51 c12 -30 19 -164 10 -164 -6 0 -29 19 -52 43 l-42 42 33 47 c35 52 42
	56 51 32z m-3672 -105 c3 -39 1 -44 -19 -47 -20 -3 -23 1 -23 31 0 19 5 49 12
	67 10 30 12 32 19 13 4 -11 9 -40 11 -64z m283 -40 c25 -48 45 -95 45 -105 0
	-28 -109 -214 -125 -214 -5 1 -31 20 -57 45 l-48 43 0 130 0 130 58 46 c67 54
	58 59 127 -75z m3045 26 c0 -11 -5 -38 -12 -60 -11 -39 -11 -39 -18 -13 -4 14
	-11 59 -15 100 l-6 73 25 -40 c14 -22 25 -49 26 -60z m-2863 -76 c5 -76 -8
	-193 -23 -208 -9 -9 -30 24 -59 94 l-27 63 42 77 c26 47 46 73 52 67 5 -5 11
	-47 15 -93z m3220 -133 l-6 -129 -48 -43 c-26 -24 -54 -42 -62 -41 -7 1 -38
	50 -68 109 l-55 107 33 58 c18 32 48 82 66 111 l34 52 56 -47 55 -48 -5 -129z
	m147 138 c5 -30 3 -44 -8 -53 -26 -22 -39 -2 -33 51 10 85 28 86 41 2z m-3755
	-61 c-1 -106 -1 -107 -16 -73 -20 47 -11 180 13 180 2 0 4 -48 3 -107z m3314
	6 l37 -81 -41 -74 c-22 -41 -44 -74 -48 -74 -12 0 -21 63 -21 142 0 71 17 168
	29 168 4 0 24 -37 44 -81z m342 -54 c8 -59 -11 -149 -25 -124 -11 20 0 205 11
	187 5 -7 11 -36 14 -63z m-3339 -74 l42 -88 -20 -94 c-10 -51 -21 -96 -24 -98
	-8 -8 -164 152 -164 168 0 8 13 35 29 60 16 25 40 67 52 94 13 26 28 47 33 47
	6 0 30 -40 52 -89z m-396 27 c0 -34 -20 -98 -30 -98 -10 0 -24 95 -15 110 3 5
	15 10 26 10 13 0 19 -7 19 -22z m64 -73 c17 -68 22 -245 7 -245 -12 0 -33 34
	-59 98 -21 47 -22 58 -12 115 15 85 19 97 34 97 8 0 20 -26 30 -65z m3436 -40
	l54 -106 -81 -79 c-45 -44 -86 -80 -92 -80 -11 0 -16 22 -30 130 -9 65 -9 65
	37 153 26 48 49 87 52 87 3 0 30 -48 60 -105z m-2996 -25 l6 -75 -25 40 c-27
	44 -31 88 -14 132 l12 28 7 -25 c4 -14 10 -59 14 -100z m-347 37 c41 -38 41
	-60 -2 -112 -34 -41 -47 -24 -53 69 -5 88 1 92 55 43z m3671 3 c5 -30 -16
	-102 -27 -96 -10 7 -22 106 -15 118 11 17 39 3 42 -22z m-508 -62 c0 -28 -38
	-103 -48 -93 -3 2 1 44 8 92 13 84 14 86 26 58 7 -17 13 -42 14 -57z m455 -27
	c6 -72 5 -80 -26 -144 -48 -102 -65 -103 -61 -4 5 118 51 271 72 237 5 -7 11
	-48 15 -89z m-95 3 c0 -39 -19 -124 -30 -137 -4 -5 -22 15 -40 44 l-34 52 45
	38 c24 21 47 39 52 39 4 0 7 -16 7 -36z m-3405 -36 c28 -29 65 -69 83 -89 l33
	-36 -27 -110 c-14 -61 -30 -116 -34 -123 -5 -9 -21 -6 -61 11 -72 30 -76 34
	-88 82 -5 23 -19 79 -31 124 l-21 82 38 55 c21 31 43 55 48 56 6 0 33 -24 60
	-52z m215 -10 c27 -62 56 -196 48 -233 -2 -15 -17 -4 -66 54 -49 56 -62 78
	-58 95 3 11 12 49 18 84 7 34 16 62 21 62 4 0 21 -28 37 -62z m-465 -64 c15
	-39 15 -48 4 -55 -8 -5 -17 -9 -22 -9 -19 0 -37 97 -21 113 11 11 20 -1 39
	-49z m3309 29 c3 -16 8 -46 12 -68 3 -22 8 -48 10 -57 5 -17 -100 -138 -120
	-138 -5 0 -6 31 -2 72 5 54 16 92 42 145 20 40 40 73 44 73 5 0 11 -12 14 -27z
	m272 -40 l36 -56 -39 -125 -38 -125 -45 -19 c-99 -43 -94 -46 -121 92 l-23
	123 87 83 c48 46 92 84 97 84 5 0 26 -26 46 -57z m-3465 -89 c11 -43 23 -88
	26 -99 5 -18 4 -18 -11 -6 -42 35 -68 127 -50 176 9 23 12 17 35 -71z m3644
	20 c-9 -60 -14 -74 -29 -74 -32 0 -35 23 -9 71 32 63 47 64 38 3z m-3308 -65
	c32 -33 61 -68 64 -77 11 -30 22 -202 12 -202 -10 0 -182 97 -197 110 -5 5 1
	49 14 102 30 128 30 128 40 128 4 0 34 -27 67 -61z m3183 -22 c-5 -51 -53
	-147 -67 -134 -5 5 23 102 49 169 16 42 25 25 18 -35z m-3039 -76 l19 -56 -40
	40 c-37 36 -40 43 -40 95 l1 55 21 -39 c11 -22 29 -65 39 -95z m2760 -3 c10
	-51 21 -103 24 -115 4 -19 -7 -28 -105 -78 l-110 -55 1 27 c0 16 6 63 13 106
	13 78 13 79 81 147 38 38 71 68 73 65 2 -2 13 -46 23 -97z m-177 14 c-5 -41
	-14 -57 -45 -88 -22 -21 -39 -33 -39 -28 0 17 80 177 86 171 3 -2 2 -27 -2
	-55z m-3108 -6 c3 -7 4 -35 2 -62 l-3 -49 -22 36 c-30 47 -31 89 -3 89 11 0
	23 -6 26 -14z m79 -52 c45 -75 91 -212 75 -227 -9 -9 -21 -2 -52 33 -63 72
	-68 83 -75 170 -7 98 4 103 52 24z m113 -9 c31 -16 33 -20 27 -52 -8 -42 -25
	-83 -36 -83 -11 0 -57 99 -65 138 -6 31 -6 32 17 23 13 -5 39 -17 57 -26z
	m413 -130 c15 -33 31 -73 35 -89 l7 -30 -39 24 c-115 70 -121 75 -127 132 -4
	29 -7 71 -7 93 l1 40 51 -55 c28 -30 63 -81 79 -115z m3002 113 c16 -12 16
	-16 -4 -55 -11 -23 -27 -44 -36 -47 -13 -6 -15 1 -9 46 10 73 16 80 49 56z
	m-68 -65 c-4 -37 -11 -78 -17 -93 -10 -27 -106 -130 -121 -130 -27 0 50 196
	103 263 35 44 43 35 35 -40z m-3183 -9 c54 -30 102 -64 108 -74 11 -21 14
	-250 3 -249 -5 0 -37 6 -72 13 l-65 12 -43 69 c-86 139 -88 145 -68 206 9 30
	18 60 20 67 6 18 11 17 117 -44z m2731 9 c-17 -134 -11 -124 -93 -171 -89 -50
	-96 -43 -50 50 29 56 122 168 142 168 4 0 5 -21 1 -47z m355 -10 c-10 -38 -50
	-107 -67 -117 -6 -4 -15 12 -21 36 -6 24 -13 51 -16 61 -4 13 5 22 38 37 67
	30 78 28 66 -17z m-103 -91 l18 -62 -66 -99 c-37 -54 -73 -103 -80 -109 -6 -5
	-42 -13 -79 -17 l-68 -7 6 79 c3 43 9 101 13 128 l6 50 110 57 c61 31 113 53
	116 50 3 -4 14 -35 24 -70z m-3213 -55 c9 -18 -4 -47 -22 -47 -14 0 -38 46
	-46 86 l-7 39 33 -30 c17 -16 36 -38 42 -48z m574 19 c20 -25 46 -59 58 -77
	l20 -33 -44 25 c-32 17 -51 37 -67 69 -12 25 -22 48 -23 53 -1 18 22 3 56 -37z
	m-107 -14 l74 -47 35 -92 c20 -51 33 -95 30 -98 -3 -3 -57 7 -119 22 l-114 28
	-3 118 c-2 90 0 117 10 116 7 0 46 -21 87 -47z m-341 -59 c28 -47 50 -89 47
	-92 -8 -8 -76 61 -87 89 -16 38 -27 90 -19 90 3 0 30 -39 59 -87z m2642 25
	c-11 -29 -20 -54 -20 -55 0 -2 -18 -12 -41 -23 -72 -37 -65 -19 35 88 22 23
	41 42 43 42 2 0 -6 -24 -17 -52z m165 -45 c-11 -127 -17 -163 -26 -168 -4 -3
	-43 -12 -86 -20 -43 -7 -90 -16 -105 -20 -36 -9 -36 3 2 96 37 88 40 92 127
	140 95 52 96 52 88 -28z m431 13 c-23 -59 -42 -75 -64 -53 -15 16 -13 20 28
	62 24 24 46 43 48 40 3 -2 -3 -25 -12 -49z m-140 -39 c-16 -43 -90 -126 -102
	-115 -5 6 61 112 94 151 23 26 27 12 8 -36z m-2569 -16 c62 -41 113 -93 147
	-152 14 -24 15 -31 5 -27 -8 3 -47 13 -86 23 -40 10 -77 23 -81 29 -11 14 -62
	143 -62 156 0 17 14 12 77 -29z m2029 -104 l-35 -75 -70 -16 c-79 -18 -101
	-20 -101 -8 0 5 28 38 63 74 60 62 168 130 175 109 2 -5 -13 -43 -32 -84z
	m-2472 1 c59 -60 120 -142 130 -175 11 -35 -19 -29 -84 15 -44 30 -62 51 -87
	102 -33 67 -42 110 -22 110 7 0 35 -24 63 -52z m-80 -10 c11 -26 16 -51 13
	-55 -12 -12 -77 59 -77 85 0 18 5 23 22 20 16 -2 28 -17 42 -50z m175 42 c42
	-12 51 -24 51 -70 0 -68 -16 -71 -70 -11 -72 79 -66 106 19 81z m202 -46 c57
	-14 109 -31 115 -37 13 -13 86 -228 80 -234 -2 -2 -34 -9 -71 -14 -59 -8 -71
	-7 -89 8 -11 10 -56 49 -98 87 l-78 70 0 66 c0 37 3 70 7 73 10 11 22 9 134
	-19z m362 -28 c61 -41 87 -61 87 -68 0 -3 -23 -1 -50 5 -44 8 -55 16 -81 53
	-16 24 -25 44 -19 44 6 0 34 -16 63 -34z m2257 -64 c-33 -72 -48 -87 -143
	-141 -46 -25 -47 -25 -47 -4 0 18 69 114 113 156 104 98 124 95 77 -11z m-74
	62 c-8 -22 -44 -63 -83 -97 l-33 -29 0 65 0 66 38 4 c81 8 84 8 78 -9z m158
	10 c9 -3 16 -11 16 -18 0 -15 -78 -92 -85 -84 -7 7 36 108 46 108 4 0 14 -3
	23 -6z m-744 -44 c-28 -39 -56 -56 -103 -63 -33 -5 -37 -4 -26 9 13 15 128 84
	142 84 5 0 -1 -14 -13 -30z m450 -40 l0 -69 -87 -72 c-49 -40 -95 -78 -103
	-85 -13 -11 -30 -11 -83 -2 -82 13 -82 14 -24 153 l42 99 100 22 c55 12 112
	23 128 23 27 1 27 1 27 -69z m-2146 35 l82 -25 57 -77 c32 -42 54 -80 50 -84
	-4 -4 -59 -8 -121 -10 l-113 -4 -39 113 c-45 131 -49 127 84 87z m1842 -78
	c-12 -29 -31 -76 -40 -105 -10 -28 -21 -54 -26 -57 -5 -3 -61 0 -124 6 l-115
	12 30 41 c74 102 90 116 164 136 39 10 85 19 102 19 l33 1 -24 -53z m-1625 14
	c56 -18 189 -96 189 -112 0 -8 -156 -20 -172 -13 -14 5 -108 126 -108 138 0
	10 26 7 91 -13z m1363 -67 c-21 -25 -45 -55 -53 -65 -12 -16 -27 -19 -107 -19
	-52 0 -94 4 -94 8 0 11 47 45 107 76 45 24 172 59 182 50 2 -2 -14 -24 -35
	-50z m-2049 10 c29 -19 31 -57 3 -62 -16 -3 -78 68 -78 89 0 10 41 -4 75 -27z
	m155 -34 c41 -38 69 -69 62 -70 -30 -1 -93 43 -121 84 -56 80 -38 76 59 -14z
	m798 9 c39 -12 72 -26 72 -30 0 -5 -25 -9 -55 -9 -47 0 -59 4 -87 30 -40 36
	-28 37 70 9z m872 -3 c0 -2 -17 -15 -38 -30 -29 -20 -50 -26 -90 -26 -29 0
	-52 5 -52 10 0 6 3 10 8 11 4 0 39 9 77 19 70 19 95 23 95 16z m758 -40 c-23
	-35 -109 -91 -129 -84 -6 2 6 17 27 33 22 16 56 44 77 63 47 41 57 36 25 -12z
	m162 26 c0 -14 -61 -82 -75 -82 -15 0 -28 27 -19 41 6 10 74 48 87 49 4 0 7
	-3 7 -8z m-1747 -98 c42 -31 77 -60 77 -64 0 -9 -186 -80 -210 -80 -10 0 -33
	24 -55 58 -21 31 -51 73 -67 94 -35 44 -31 46 87 47 l90 1 78 -56z m185 36
	c118 -37 119 -40 19 -71 l-88 -28 -69 51 c-39 28 -70 54 -70 59 0 17 144 9
	208 -11z m-422 -83 c35 -49 64 -96 64 -104 0 -14 -96 -63 -124 -63 -7 0 -62
	24 -123 54 l-109 53 -17 62 c-9 33 -17 65 -17 70 0 13 48 18 164 17 l99 -1 63
	-88z m674 89 c0 -3 -24 -13 -53 -22 -51 -16 -55 -16 -98 4 l-44 20 98 1 c53 1
	97 -1 97 -3z m201 -6 c32 0 59 -3 59 -7 0 -14 -140 -98 -157 -95 -10 2 -49 15
	-86 29 -67 26 -68 27 -43 40 33 17 137 42 154 37 8 -2 40 -4 73 -4z m-1212
	-37 c18 -74 19 -83 10 -83 -31 0 -155 88 -142 101 11 10 42 16 85 18 35 1 38
	-1 47 -36z m1467 27 c31 0 54 -5 54 -10 0 -10 -68 -102 -120 -161 l-25 -29
	-100 41 c-55 22 -104 44 -109 49 -4 4 29 33 75 65 78 52 87 56 128 51 24 -3
	68 -6 97 -6z m243 -21 c113 -13 105 -2 77 -102 -14 -46 -30 -57 -180 -118
	l-78 -32 -64 31 -64 32 27 38 c130 178 114 170 282 151z m-1861 -23 c97 -49
	207 -145 188 -163 -6 -7 -118 24 -152 41 -27 14 -114 115 -114 133 0 19 25 16
	78 -11z m2090 -6 c27 -1 9 -22 -50 -60 -77 -50 -92 -51 -83 -7 4 17 13 44 21
	58 12 25 16 26 56 18 24 -4 49 -8 56 -9z m-2157 -32 c33 -46 27 -58 -19 -34
	-37 19 -56 42 -48 61 10 26 35 16 67 -27z m1218 9 c46 -18 86 -36 87 -42 3 -9
	-126 -108 -167 -129 -14 -7 -35 4 -93 48 -41 32 -81 65 -90 75 -16 17 -15 19
	11 29 31 12 155 51 163 51 3 0 43 -14 89 -32z m1044 -22 c-5 -8 -31 -38 -59
	-68 -42 -44 -60 -55 -105 -65 -30 -7 -64 -15 -76 -18 -39 -10 -27 21 22 61 60
	50 164 104 198 105 22 0 26 -3 20 -15z m57 -10 c16 -19 -6 -47 -51 -65 -43
	-18 -46 -6 -9 40 35 44 42 47 60 25z m-1310 -85 c49 -40 90 -75 90 -79 0 -4
	-23 -27 -51 -51 l-51 -43 -86 12 c-170 24 -173 25 -209 87 -18 31 -33 59 -33
	64 0 5 19 16 43 24 108 41 183 64 194 61 7 -2 53 -36 103 -75z m457 24 c48
	-20 94 -38 101 -41 6 -3 12 -8 12 -12 0 -6 -62 -107 -73 -117 -2 -3 -62 -11
	-132 -20 l-127 -14 -37 32 c-55 48 -66 67 -49 85 35 34 175 123 195 123 12 0
	62 -16 110 -36z m-1096 -35 c49 -23 89 -46 89 -52 0 -12 -74 -1 -109 17 -28
	15 -90 76 -77 76 4 0 48 -19 97 -41z m-153 -19 c43 -11 53 -28 28 -49 -11 -10
	-20 -10 -38 0 -51 26 -90 77 -50 65 9 -3 36 -10 60 -16z m1748 2 c-16 -26 -86
	-61 -136 -67 -30 -4 -52 -4 -49 -1 9 9 183 84 188 81 1 -2 0 -8 -3 -13z
	m-1289 -37 c27 -48 28 -55 7 -55 -27 0 -120 30 -140 45 -18 13 -16 15 26 34
	61 27 80 23 107 -24z m988 3 c25 -12 45 -25 45 -29 0 -11 -71 -36 -124 -44
	l-48 -8 13 24 c19 37 52 79 61 79 4 0 28 -10 53 -22z m426 -22 c-33 -35 -80
	-53 -92 -35 -5 8 -7 18 -6 24 4 11 70 33 101 34 18 1 18 -1 -3 -23z m-1538
	-27 c90 -23 189 -67 195 -86 3 -10 -18 -13 -83 -13 -87 0 -88 0 -156 46 -77
	51 -83 62 -41 73 1 1 40 -8 85 -20z m621 -28 l39 -40 -37 -7 c-40 -7 -123 -1
	-134 11 -8 8 66 75 83 75 6 0 28 -18 49 -39z m-703 -18 c21 -16 39 -32 39 -37
	0 -14 -81 1 -98 17 -16 16 -10 47 9 47 6 0 28 -12 50 -27z m1327 15 c-6 -17
	-123 -87 -150 -89 -60 -5 -158 2 -158 12 0 5 24 21 53 35 92 42 264 70 255 42z
	m-875 -39 c55 -15 45 -29 -20 -29 -43 1 -70 8 -103 26 l-45 25 65 -6 c36 -3
	82 -11 103 -16z m917 1 c13 -24 -9 -38 -77 -46 l-48 -6 50 36 c58 42 61 42 75
	16z m-360 2 c0 -4 -22 -16 -50 -26 -37 -13 -63 -16 -100 -11 -61 8 -66 25 -7
	26 23 0 60 4 82 8 55 12 75 12 75 3z m-217 -53 c31 -17 18 -26 -63 -48 l-80
	-22 -67 21 c-81 24 -102 35 -88 49 21 21 258 20 298 0z m-503 -24 c0 -29 -22
	-33 -74 -11 -58 24 -53 36 13 36 58 0 61 -1 61 -25z m824 -4 c16 -6 13 -10
	-22 -24 -67 -27 -100 -20 -86 17 7 17 72 21 108 7z m-569 -30 c40 -18 40 -19
	14 -25 -14 -4 -41 -6 -60 -4 -26 2 -35 8 -37 26 -4 28 26 29 83 3z m290 -2
	c12 -36 -27 -47 -100 -29 -32 7 -31 9 40 34 53 19 53 19 60 -5z"/>
	<path d="M2290 2763 c0 -5 0 -314 -1 -688 -1 -374 -1 -686 0 -692 0 -7 6 -13
	11 -13 7 0 10 240 10 700 0 460 -3 700 -10 700 -5 0 -10 -3 -10 -7z"/>
	<path d="M1287 2632 c-35 -38 -69 -145 -75 -231 -3 -51 -1 -85 5 -90 6 -3 12
	-82 15 -193 4 -150 2 -188 -9 -192 -7 -3 -13 -15 -13 -26 0 -16 -7 -20 -30
	-20 -28 0 -30 -3 -30 -35 l0 -35 445 0 445 0 0 35 0 35 -55 0 -54 0 -11 40
	c-8 29 -16 40 -30 40 -24 0 -24 7 -6 144 9 69 18 103 30 111 34 25 7 88 -29
	67 -12 -6 -48 2 -124 30 -58 22 -168 61 -244 88 -116 42 -171 64 -185 75 -1 1
	9 26 23 56 27 60 31 89 13 107 -18 18 -63 14 -81 -6z m69 -17 c7 -18 -104
	-285 -119 -285 -6 0 -8 29 -4 79 5 75 26 143 63 199 17 25 52 29 60 7z m132
	-227 c71 -23 72 -26 47 -122 -8 -31 -22 -92 -31 -134 -8 -42 -25 -116 -36
	-164 l-21 -88 -84 0 c-77 0 -83 2 -83 20 0 11 -7 23 -15 26 -22 9 -22 357 -1
	400 8 16 24 50 35 77 l20 47 53 -21 c29 -11 81 -29 116 -41z m183 -68 c46 -17
	91 -34 99 -39 9 -5 30 -12 47 -15 27 -6 71 -50 66 -66 -1 -3 -6 -43 -12 -90
	-19 -147 -20 -148 -44 -152 -15 -2 -26 -14 -33 -38 -11 -34 -13 -35 -60 -35
	l-49 0 -16 75 c-29 133 -79 354 -85 373 -3 9 -4 17 -2 17 2 0 42 -14 89 -30z
	m-71 -135 c10 -51 10 -70 1 -73 -6 -2 -11 -8 -11 -13 0 -4 6 -6 13 -3 10 3 20
	-21 37 -91 12 -53 20 -98 17 -101 -3 -3 -29 12 -57 33 -51 37 -52 39 -47 83 3
	24 10 46 16 48 6 2 11 8 11 13 0 6 -5 7 -12 3 -8 -5 -9 9 -5 56 4 35 7 81 7
	104 1 55 13 30 30 -59z m310 65 c0 -5 -4 -10 -10 -10 -5 0 -10 5 -10 10 0 6 5
	10 10 10 6 0 10 -4 10 -10z m-367 -117 c-3 -38 -12 -74 -19 -82 -21 -23 -24
	-9 -9 44 7 28 16 62 19 78 11 48 15 29 9 -40z m-3 -111 c0 -26 -11 -34 -27
	-21 -10 9 -10 15 -2 25 16 19 29 17 29 -4z m-21 -36 c12 -11 15 -28 13 -60 -4
	-43 -6 -46 -34 -46 -23 0 -28 4 -24 18 2 9 8 36 11 60 7 46 11 49 34 28z m127
	-98 c3 -5 -18 -8 -45 -8 l-51 0 0 41 0 40 46 -33 c25 -18 48 -36 50 -40z m248
	36 c11 -29 6 -34 -40 -34 -38 0 -45 3 -40 16 3 9 6 20 6 25 0 16 67 10 74 -7z
	m-634 -29 c0 -8 -7 -15 -15 -15 -8 0 -15 7 -15 15 0 8 7 15 15 15 8 0 15 -7
	15 -15z m760 -50 c0 -13 -54 -15 -425 -15 -371 0 -425 2 -425 15 0 13 54 15
	425 15 371 0 425 -2 425 -15z"/>
	<path d="M2815 2389 c54 -16 55 -23 54 -278 0 -130 -4 -245 -8 -255 -4 -11
	-23 -25 -42 -32 -30 -11 -21 -12 86 -12 108 0 116 1 78 11 -23 7 -47 17 -53
	23 -7 7 -11 101 -13 263 -2 242 -1 253 18 268 27 20 108 12 143 -14 15 -10 38
	-41 51 -67 23 -45 24 -53 13 -102 -6 -30 -19 -65 -29 -78 -20 -27 -72 -53
	-118 -59 -26 -3 -25 -4 8 -6 100 -3 187 73 195 173 7 90 -34 147 -119 165 -62
	14 -309 14 -264 0z"/>
	</g>
</svg>
